<COLLADA xmlns="http://www.collada.org/2005/11/COLLADASchema" version="1.4.1">
  <asset>
    <created>2026-09-03T15:32:12.447035</created>
    <modified>2026-09-03T15:32:12.447038</modified>
    <up_axis>Y_UP</up_axis>
  </asset>
  <library_effects>
    <effect id="f28a2f7e51c84140a85207ee5ac66b43" name="f28a2f7e51c84140a85207ee5ac66b43">
      <profile_COMMON>
        <technique sid="common">
          <phong>
            <emission>
              <color>0.0 0.0 0.0 1.0</color>
            </emission>
            <ambient>
              <color>0.0 0.0 0.0 1.0</color>
            </ambient>
            <diffuse>
              <color>0.0 0.0 0.0 1.0</color>
            </diffuse>
            <specular>
              <color>0.0 0.0 0.0 1.0</color>
            </specular>
            <shininess>
              <float>0.0</float>
            </shininess>
            <reflective>
              <color>0.0 0.0 0.0 1.0</color>
            </reflective>
            <reflectivity>
              <float>0.0</float>
            </reflectivity>
            <transparent>
              <color>0.0 0.0 0.0 1.0</color>
            </transparent>
            <transparency>
              <float>1.0</float>
            </transparency>
          </phong>
        </technique>
        <extra>
          <technique profile="GOOGLEEARTH">
            <double_sided>0</double_sided>
          </technique>
        </extra>
      </profile_COMMON>
    </effect>
  </library_effects>
  <library_geometries>
    <geometry id="84e5524856b1424da98ef07e50fb0ab5" name="c351b6c7a89d4b51b2bd8e29ba294578">
      <mesh>
        <source id="verts-array">
          <float_array count="3000" id="verts-array-array">-0.005 0.0316768 -0.00908188 -0.005 0.0322556 -0.00902595 -0.0045 0.0317519 -0.0100796 -0.0045 0.0236897 0.0127496 -0.0115 0.0242004 0.00927773 -0.0055 -0.0013275 0.00738158 -0.012 0.0242277 0.00876495 -0.0115 0.0242004 0.00927773 -0.012 0.0247205 0.00885723 0.0115 0.0242004 0.00927773 0.0045 0.0236897 0.0127496 0.0055 -0.0013275 0.00738158 0.0115 0.0242004 0.00927773 0.0055 -0.0013275 0.00738158 0.0055 -0.00200292 0.00722761 0.0115 0.0242004 0.00927773 0.012 0.0247205 0.00885723 0.0115 0.0248506 0.00936074 0.0055 -0.00595397 0.00456073 0.012 0.02309 0.00783017 0.012 0.023386 0.00823477 -0.0045 0.0243268 0.0128388 -0.0115 0.0242004 0.00927773 -0.0045 0.0236897 0.0127496 -0.0115 0.0248506 0.00936074 -0.0045 0.0243268 0.0128388 -0.0045 0.0249699 0.0128593 -0.0045 0.0243268 0.0128388 -0.0115 0.0248506 0.00936074 -0.0115 0.0242004 0.00927773 -0.0115 0.0248506 0.00936074 -0.0045 0.0335449 0.0117815 -0.0115 0.0255 0.00927188 -0.0115 0.0242004 0.00927773 -0.0115 0.0248506 0.00936074 -0.012 0.0247205 0.00885723 -0.012 0.0252075 0.00489494 -0.005 0.0322556 -0.00902595 -0.005 0.0316768 -0.00908188 0.012 0.0229005 0.00636992 0.0055 -0.00701197 -0.00266125 0.012 0.0230835 0.00590317 -0.0045 0.038644 0.0070678 -0.012 0.0267014 0.00759074 -0.0045 0.0384687 0.00771739 -0.0045 0.0384687 0.00771739 -0.012 0.0267014 0.00759074 -0.0045 0.0382217 0.00834326 -0.012 0.0267014 0.00759074 -0.0045 0.0379062 0.00893755 -0.0045 0.0382217 0.00834326 0.0045 0.0236897 0.0127496 0.0115 0.0242004 0.00927773 0.0045 0.0243268 0.0128388 0.0045 0.0243268 0.0128388 0.0115 0.0242004 0.00927773 0.0115 0.0248506 0.00936074 0.0045 0.0335449 0.0117815 0.0045 0.0256114 0.0128109 0.0115 0.0248506 0.00936074 0.012 0.0264613 0.00803087 0.012 0.0267014 0.00759074 0.0045 0.0379062 0.00893755 0.0115 0.0255 0.00927188 0.0115 0.0261041 0.00901725 0.0045 0.0348496 0.0114605 0.0115 0.0255 0.00927188 0.0045 0.0335449 0.0117815 0.0115 0.0248506 0.00936074 0.0115 0.0255 0.00927188 0.012 0.025697 0.00866754 0.0115 0.0261041 0.00901725 0.005 0.0359084 -0.0064185 0.012 0.0266964 0.00611825 0.012 0.0264534 0.00567974 0.005 0.0356077 -0.00691613 0.005 0.0359084 -0.0064185 0.012 0.0264534 0.00567974 0.005 0.0322556 -0.00902595 0.005 0.0328239 -0.00890321 0.012 0.0252075 0.00489494 0.012 0.0256848 0.00504825 0.012 0.0252075 0.00489494 0.005 0.0328239 -0.00890321 0.012 0.0256848 0.00504825 0.005 0.034391 -0.0081551 0.012 0.026109 0.00531545 0.0045 0.0330246 -0.00988491 0.005 0.0328239 -0.00890321 0.005 0.0322556 -0.00902595 0.005 0.0333742 -0.00871532 -0.0045 0.0323935 -0.0100165 0.0045 0.0365727 -0.00726763 -0.0115 0.0255 0.00927188 -0.0045 0.0342062 0.0116576 -0.0045 0.0348496 0.0114605 -0.0045 0.0342062 0.0116576 -0.0115 0.0255 0.00927188 -0.0045 0.0335449 0.0117815 -0.0045 0.0256114 0.0128109 -0.0115 0.0248506 0.00936074 -0.0045 0.0249699 0.0128593 -0.0115 0.0248506 0.00936074 -0.0045 0.0256114 0.0128109 -0.0045 0.0335449 0.0117815 -0.012 0.0264613 0.00803087 -0.0045 0.0379062 0.00893755 -0.012 0.0267014 0.00759074 -0.012 0.0264613 0.00803087 -0.012 0.0261194 0.00839748 -0.0045 0.0370863 0.010002 -0.012 0.024707 0.00486515 -0.005 0.0316768 -0.00908188 -0.0045 0.0317519 -0.0100796 -0.012 0.024707 0.00486515 -0.012 0.0252075 0.00489494 -0.005 0.0316768 -0.00908188 -0.0045 0.0311073 -0.0100736 -0.012 0.024707 0.00486515 -0.0055 -0.00142868 -0.00736267 -0.012 0.0242149 0.00496074 -0.012 0.024707 0.00486515 -0.0055 -0.000743246 -0.00746308 -0.0055 -0.00142868 -0.00736267 -0.0055 -0.00210193 -0.00719944 -0.012 0.0242149 0.00496074 -0.0055 -0.00142868 -0.00736267 -0.012 0.0242149 0.00496074 -0.0055 -0.00338903 -0.00669063 -0.012 0.023762 0.00517573 0.0055 -0.00456073 -0.00595397 0.012 0.023762 0.00517573 0.012 0.0233768 0.00549659 -0.012 0.0228393 0.00686751 -0.0055 -0.00749982 5.14696e-05 -0.0055 -0.00746308 0.000743246 -0.012 0.0228393 0.00686751 -0.012 0.0229005 0.00636992 -0.0055 -0.00747258 -0.000640746 -0.012 0.0228393 0.00686751 -0.0055 -0.00747258 -0.000640746 -0.0055 -0.00749982 5.14696e-05 0.012 0.0229039 0.00736467 0.0055 -0.00719944 0.00210193 0.0055 -0.00736267 0.00142868 0.012 0.0242277 0.00876495 0.0115 0.0242004 0.00927773 0.0055 -0.00200292 0.00722761 0.012 0.0247205 0.00885723 0.0115 0.0242004 0.00927773 0.012 0.0242277 0.00876495 0.012 0.024707 0.00486515 0.0055 -5.14696e-05 -0.00749982 0.0045 0.0311073 -0.0100736 0.012 0.024707 0.00486515 0.0045 0.0311073 -0.0100736 0.0045 0.0317519 -0.0100796 0.0055 -0.00747258 -0.000640746 0.012 0.0228393 0.00686751 0.0055 -0.00749982 5.14696e-05 0.0055 -0.00747258 -0.000640746 0.012 0.0229005 0.00636992 0.012 0.0228393 0.00686751 0.0055 -0.00738158 -0.0013275 0.0055 -0.00722761 -0.00200292 0.0055 -0.00701197 -0.00266125 0.012 0.0229005 0.00636992 0.0055 -0.00722761 -0.00200292 0.012 0.0229005 0.00636992 0.0055 -0.00738158 -0.0013275 0.0045 0.0387456 0.00640266 0.0045 0.038644 0.0070678 0.012 0.0268244 0.00710474 0.0045 0.038644 0.0070678 0.012 0.0267014 0.00759074 0.012 0.0268244 0.00710474 0.0045 0.038644 0.0070678 0.0045 0.0384687 0.00771739 0.012 0.0267014 0.00759074 0.0045 0.038772 0.00573033 0.0045 0.0387456 0.00640266 0.012 0.0268244 0.00710474 0.0045 0.037319 -0.00549151 0.012 0.0266964 0.00611825 0.0045 0.0371345 -0.0061092 0.0115 0.0248506 0.00936074 0.0045 0.0256114 0.0128109 0.0045 0.0249699 0.0128593 0.0045 0.0249699 0.0128593 0.0045 0.0243268 0.0128388 0.0115 0.0248506 0.00936074 0.0045 0.0382217 0.00834326 0.012 0.0267014 0.00759074 0.0045 0.0384687 0.00771739 0.0045 0.0382217 0.00834326 0.0045 0.0379062 0.00893755 0.012 0.0267014 0.00759074 -0.0045 0.0375261 0.00949277 -0.012 0.0264613 0.00803087 -0.0045 0.0370863 0.010002 -0.0045 0.0379062 0.00893755 -0.012 0.0264613 0.00803087 -0.0045 0.0375261 0.00949277 -0.012 0.0261194 0.00839748 -0.0045 0.0365922 0.0104587 -0.0045 0.0370863 0.010002 -0.0045 0.0365922 0.0104587 -0.012 0.0261194 0.00839748 -0.0045 0.0360501 0.0108572 0.012 0.0261194 0.00839748 0.012 0.0264613 0.00803087 0.0045 0.0370863 0.010002 0.012 0.025697 0.00866754 0.012 0.0261194 0.00839748 0.0115 0.0261041 0.00901725 0.012 0.0261194 0.00839748 0.0045 0.0360501 0.0108572 0.0115 0.0261041 0.00901725 0.012 0.0252207 0.00882406 0.012 0.025697 0.00866754 0.0115 0.0255 0.00927188 0.012 0.0247205 0.00885723 0.012 0.0252207 0.00882406 0.0115 0.0248506 0.00936074 0.012 0.0252207 0.00882406 0.0115 0.0255 0.00927188 0.0115 0.0248506 0.00936074 -0.005 0.034391 -0.0081551 -0.012 0.026109 0.00531545 -0.005 0.0348438 -0.00779034 -0.012 0.026109 0.00531545 -0.005 0.034391 -0.0081551 -0.012 0.0256848 0.00504825 -0.012 0.0252075 0.00489494 -0.005 0.0328239 -0.00890321 -0.005 0.0322556 -0.00902595 -0.005 0.0328239 -0.00890321 -0.012 0.0252075 0.00489494 -0.012 0.0256848 0.00504825 -0.005 0.0333742 -0.00871532 -0.0045 0.0368848 -0.00670353 -0.012 0.0266964 0.00611825 -0.0045 0.0371345 -0.0061092 0.005 0.0338989 -0.00846482 0.0045 0.0347832 -0.00909836 0.005 0.034391 -0.0081551 0.005 0.0338989 -0.00846482 0.005 0.0338989 -0.00846482 0.012 0.0256848 0.00504825 0.005 0.0333742 -0.00871532 0.0045 0.0330246 -0.00988491 0.0045 0.0336379 -0.00968637 0.005 0.0328239 -0.00890321 0.0045 0.0336379 -0.00968637 0.005 0.0333742 -0.00871532 0.005 0.0328239 -0.00890321 0.0045 0.0323935 -0.0100165 0.005 0.0322556 -0.00902595 0.0045 0.0317519 -0.0100796 0.0045 0.0323935 -0.0100165 0.012 0.026109 0.00531545 0.005 0.0352512 -0.00737548 0.012 0.0264534 0.00567974 0.005 0.0352512 -0.00737548 0.005 0.0356077 -0.00691613 0.012 0.0264534 0.00567974 0.0045 0.035302 -0.00871568 0.005 0.034391 -0.0081551 0.0045 0.0347832 -0.00909836 -0.0055 -0.00329689 0.00673651 -0.0055 -0.00266125 0.00701197 -0.012 0.0242277 0.00876495 -0.012 0.0242277 0.00876495 -0.0055 -0.00200292 0.00722761 -0.0115 0.0242004 0.00927773 -0.0055 -0.00266125 0.00701197 -0.0055 -0.00200292 0.00722761 -0.012 0.0242277 0.00876495 -0.0115 0.0242004 0.00927773 -0.0055 -0.00200292 0.00722761 -0.0055 -0.0013275 0.00738158 -0.012 0.02309 0.00783017 -0.0055 -0.00634938 0.00399191 -0.0055 -0.00595397 0.00456073 -0.0055 -0.00634938 0.00399191 -0.012 0.02309 0.00783017 -0.0055 -0.00669063 0.00338903 -0.0055 -0.00697478 0.00275724 -0.0055 -0.00669063 0.00338903 -0.012 0.02309 0.00783017 -0.012 0.023386 0.00823477 -0.012 0.02309 0.00783017 -0.0055 -0.00595397 0.00456073 0.0055 -0.00550776 0.00509063 0.0055 -0.00595397 0.00456073 0.012 0.023386 0.00823477 0.0055 -0.00501456 0.00557711 0.0055 -0.00550776 0.00509063 0.012 0.023386 0.00823477 0.0045 0.0342062 0.0116576 0.0115 0.0255 0.00927188 0.0045 0.0348496 0.0114605 0.0045 0.0335449 0.0117815 0.0115 0.0255 0.00927188 0.0045 0.0342062 0.0116576 -0.012 0.025697 0.00866754 -0.012 0.0252207 0.00882406 -0.0115 0.0255 0.00927188 -0.012 0.0247205 0.00885723 -0.0115 0.0248506 0.00936074 -0.012 0.0252207 0.00882406 -0.012 0.0252207 0.00882406 -0.0115 0.0248506 0.00936074 -0.0115 0.0255 0.00927188 -0.0045 0.0311073 -0.0100736 -0.0055 -0.000743246 -0.00746308 -0.0055 -5.14696e-05 -0.00749982 -0.0055 -5.14696e-05 -0.00749982 -0.012 0.024707 0.00486515 -0.0045 0.0311073 -0.0100736 -0.012 0.024707 0.00486515 -0.0055 -5.14696e-05 -0.00749982 -0.0055 -0.000743246 -0.00746308 -0.0055 -0.00738158 -0.0013275 -0.0055 -0.00738158 -0.0013275 -0.012 0.0229005 0.00636992 -0.0055 -0.00722761 -0.00200292 -0.0055 -0.00701197 -0.00266125 -0.0055 -0.00722761 -0.00200292 -0.012 0.0229005 0.00636992 -0.0055 -0.00701197 -0.00266125 -0.012 0.0229005 0.00636992 -0.012 0.0230835 0.00590317 -0.0055 -0.00701197 -0.00266125 -0.012 0.0230835 0.00590317 -0.0055 -0.00673651 -0.00329689 -0.0055 -0.00601601 -0.00447858 -0.012 0.0230835 0.00590317 -0.012 0.0233768 0.00549659 -0.0055 -0.00601601 -0.00447858 -0.012 0.0233768 0.00549659 -0.0055 -0.00557711 -0.00501456 -0.0055 -0.00275724 -0.00697478 -0.0055 -0.00338903 -0.00669063 -0.012 0.0242149 0.00496074 -0.0055 -0.00210193 -0.00719944 -0.0055 -0.00275724 -0.00697478 -0.012 0.0242149 0.00496074 -0.0055 -0.00456073 -0.00595397 -0.012 0.0233768 0.00549659 -0.012 0.023762 0.00517573 0.0055 -0.00509063 -0.00550776 0.012 0.0233768 0.00549659 0.0055 -0.00557711 -0.00501456 0.0055 -0.00509063 -0.00550776 -0.0055 -0.00719944 0.00210193 -0.0055 -0.00697478 0.00275724 -0.012 0.0229039 0.00736467 -0.012 0.0229039 0.00736467 -0.0055 -0.00697478 0.00275724 -0.012 0.02309 0.00783017 -0.012 0.0229039 0.00736467 -0.012 0.0228393 0.00686751 -0.0055 -0.00746308 0.000743246 0.0055 -0.00746308 0.000743246 0.012 0.0228393 0.00686751 0.012 0.0229039 0.00736467 0.0055 -0.00736267 0.00142868 0.0055 -0.00749982 5.14696e-05 0.012 0.0228393 0.00686751 0.0055 -0.00746308 0.000743246 0.012 0.0237734 0.00855302 0.0055 -0.00390439 0.00640357 0.0055 -0.00447858 0.00601601 0.012 0.0237734 0.00855302 0.0055 -0.00329689 0.00673651 0.0055 -0.00390439 0.00640357 0.012 0.0237734 0.00855302 0.012 0.0242277 0.00876495 0.0055 -0.00329689 0.00673651 0.012 0.0237734 0.00855302 0.0055 -0.00501456 0.00557711 0.012 0.023386 0.00823477 0.0055 -0.00447858 0.00601601 0.0055 -0.00266125 0.00701197 0.012 0.0242277 0.00876495 0.0055 -0.00200292 0.00722761 0.0055 -0.00329689 0.00673651 0.012 0.0242277 0.00876495 0.0055 -0.00266125 0.00701197 0.005 0.0316768 -0.00908188 0.005 0.0316768 -0.00908188 0.012 0.024707 0.00486515 0.005 0.0316768 -0.00908188 0.012 0.0252075 0.00489494 0.005 0.0316768 -0.00908188 0.005 0.0322556 -0.00902595 0.012 0.0252075 0.00489494 0.0055 -0.00673651 -0.00329689 0.012 0.0230835 0.00590317 0.0055 -0.00701197 -0.00266125 0.0055 -0.00673651 -0.00329689 0.0055 -0.00640357 -0.00390439 0.012 0.0230835 0.00590317 0.0055 -0.00601601 -0.00447858 0.012 0.0233768 0.00549659 0.012 0.0230835 0.00590317 0.0055 -0.00640357 -0.00390439 0.0055 -0.00601601 -0.00447858 0.012 0.0230835 0.00590317 0.012 0.0233768 0.00549659 0.0055 -0.00601601 -0.00447858 0.0055 -0.00557711 -0.00501456 -0.0045 0.0387229 0.00505927 -0.0045 0.0374362 -0.00485759 -0.012 0.0268227 0.00660341 0.012 0.0266964 0.00611825 0.0045 0.037319 -0.00549151 0.012 0.0268227 0.00660341 0.012 0.0268227 0.00660341 0.0045 0.037319 -0.00549151 0.0045 0.0374362 -0.00485759 0.012 0.0268227 0.00660341 0.0045 0.0374362 -0.00485759 0.0045 0.0387229 0.00505927 0.012 0.0268227 0.00660341 0.0045 0.038772 0.00573033 0.012 0.0268244 0.00710474 0.012 0.0268227 0.00660341 0.0045 0.0387229 0.00505927 0.0045 0.038772 0.00573033 0.0045 0.0375261 0.00949277 0.0045 0.0370863 0.010002 0.012 0.0264613 0.00803087 0.012 0.0264613 0.00803087 0.0045 0.0379062 0.00893755 0.0045 0.0375261 0.00949277 -0.0115 0.0261041 0.00901725 -0.0045 0.0354668 0.0111926 -0.0045 0.0360501 0.0108572 -0.0115 0.0261041 0.00901725 -0.012 0.0261194 0.00839748 -0.012 0.025697 0.00866754 -0.0115 0.0261041 0.00901725 -0.0045 0.0360501 0.0108572 -0.012 0.0261194 0.00839748 -0.0115 0.0261041 0.00901725 -0.012 0.025697 0.00866754 -0.0115 0.0255 0.00927188 -0.0115 0.0261041 0.00901725 -0.0115 0.0255 0.00927188 -0.0045 0.0348496 0.0114605 -0.0045 0.0354668 0.0111926 -0.0115 0.0261041 0.00901725 -0.0045 0.0348496 0.0114605 0.0045 0.0348496 0.0114605 0.0115 0.0261041 0.00901725 0.0045 0.0354668 0.0111926 0.0115 0.0261041 0.00901725 0.0045 0.0360501 0.0108572 0.0045 0.0354668 0.0111926 0.0045 0.0365922 0.0104587 0.012 0.0261194 0.00839748 0.0045 0.0370863 0.010002 0.012 0.0261194 0.00839748 0.0045 0.0365922 0.0104587 0.0045 0.0360501 0.0108572 -0.005 0.0338989 -0.00846482 -0.005 0.0333742 -0.00871532 -0.012 0.0256848 0.00504825 -0.005 0.0338989 -0.00846482 -0.005 0.0338989 -0.00846482 -0.0045 0.0342264 -0.00942318 -0.005 0.0333742 -0.00871532 -0.005 0.0352512 -0.00737548 -0.012 0.026109 0.00531545 -0.012 0.0264534 0.00567974 -0.005 0.0352512 -0.00737548 -0.005 0.0348438 -0.00779034 -0.012 0.026109 0.00531545 -0.005 0.0352512 -0.00737548 -0.012 0.0264534 0.00567974 -0.005 0.0356077 -0.00691613 -0.0045 0.036202 -0.007795 -0.005 0.0352512 -0.00737548 -0.005 0.0356077 -0.00691613 -0.0045 0.0365727 -0.00726763 -0.0045 0.036202 -0.007795 -0.005 0.0356077 -0.00691613 0.0045 0.0365727 -0.00726763 0.0045 0.0368848 -0.00670353 0.005 0.0359084 -0.0064185 0.012 0.0266964 0.00611825 0.0045 0.0368848 -0.00670353 0.0045 0.0371345 -0.0061092 0.005 0.0359084 -0.0064185 0.0045 0.0368848 -0.00670353 0.012 0.0266964 0.00611825 0.0045 0.0342264 -0.00942318 0.005 0.0338989 -0.00846482 0.005 0.0333742 -0.00871532 0.0045 0.0336379 -0.00968637 0.0045 0.0342264 -0.00942318 0.005 0.0333742 -0.00871532 0.005 0.0338989 -0.00846482 0.0045 0.0342264 -0.00942318 0.0045 0.0347832 -0.00909836 0.0045 0.036202 -0.007795 0.005 0.0352512 -0.00737548 0.0045 0.0357767 -0.00827955 0.0045 0.036202 -0.007795 0.0045 0.0365727 -0.00726763 0.005 0.0356077 -0.00691613 0.005 0.0352512 -0.00737548 0.0045 0.036202 -0.007795 0.005 0.0356077 -0.00691613 0.005 0.0348438 -0.00779034 0.005 0.034391 -0.0081551 0.0045 0.035302 -0.00871568 0.005 0.0348438 -0.00779034 0.012 0.026109 0.00531545 0.005 0.034391 -0.0081551 0.005 0.0348438 -0.00779034 0.005 0.0352512 -0.00737548 0.012 0.026109 0.00531545 0.005 0.0348438 -0.00779034 0.0045 0.0357767 -0.00827955 0.005 0.0352512 -0.00737548 0.005 0.0348438 -0.00779034 0.0045 0.035302 -0.00871568 0.0045 0.0357767 -0.00827955 0.0055 -0.00634938 0.00399191 0.012 0.02309 0.00783017 0.0055 -0.00595397 0.00456073 0.0055 -0.00634938 0.00399191 0.0055 -0.00669063 0.00338903 0.012 0.02309 0.00783017 0.0055 -0.00697478 0.00275724 0.012 0.0229039 0.00736467 0.012 0.02309 0.00783017 0.0055 -0.00697478 0.00275724 0.012 0.02309 0.00783017 0.0055 -0.00669063 0.00338903 0.0055 -0.00697478 0.00275724 0.0055 -0.00719944 0.00210193 0.012 0.0229039 0.00736467 -0.0055 -0.00550776 0.00509063 -0.012 0.023386 0.00823477 -0.0055 -0.00595397 0.00456073 -0.0055 -0.00501456 0.00557711 -0.012 0.023386 0.00823477 -0.0055 -0.00550776 0.00509063 -0.0055 -0.00390439 0.00640357 -0.0055 -0.00329689 0.00673651 -0.012 0.0237734 0.00855302 -0.012 0.0237734 0.00855302 -0.0055 -0.00329689 0.00673651 -0.012 0.0242277 0.00876495 -0.012 0.0237734 0.00855302 -0.012 0.023386 0.00823477 -0.0055 -0.00501456 0.00557711 -0.0055 -0.00673651 -0.00329689 -0.012 0.0230835 0.00590317 -0.0055 -0.00640357 -0.00390439 -0.0055 -0.00601601 -0.00447858 -0.0055 -0.00640357 -0.00390439 -0.012 0.0230835 0.00590317 -0.0055 -0.00557711 -0.00501456 -0.012 0.0233768 0.00549659 -0.0055 -0.00509063 -0.00550776 -0.0055 -0.00509063 -0.00550776 -0.0055 -0.00399191 -0.00634938 -0.012 0.023762 0.00517573 -0.0055 -0.00338903 -0.00669063 -0.0055 -0.00399191 -0.00634938 -0.0055 -0.00456073 -0.00595397 -0.012 0.023762 0.00517573 -0.0055 -0.00719944 0.00210193 -0.012 0.0229039 0.00736467 -0.0055 -0.00736267 0.00142868 -0.0055 -0.00736267 0.00142868 -0.0045 0.037319 -0.00549151 -0.012 0.0268227 0.00660341 -0.0045 0.0374362 -0.00485759 -0.0045 0.037319 -0.00549151 -0.012 0.0266964 0.00611825 -0.012 0.0268227 0.00660341 -0.0045 0.0371345 -0.0061092 -0.012 0.0266964 0.00611825 -0.0045 0.037319 -0.00549151 -0.012 0.0267014 0.00759074 -0.0045 0.038644 0.0070678 -0.012 0.0268244 0.00710474 -0.0045 0.0330246 -0.00988491 -0.0045 0.0323935 -0.0100165 -0.005 0.0322556 -0.00902595 -0.005 0.0328239 -0.00890321 -0.0045 0.035302 -0.00871568 -0.005 0.034391 -0.0081551 -0.005 0.0348438 -0.00779034 -0.005 0.0359084 -0.0064185 -0.012 0.0264534 0.00567974 -0.012 0.0266964 0.00611825 -0.005 0.0359084 -0.0064185 -0.0045 0.0368848 -0.00670353 -0.0045 0.0365727 -0.00726763 -0.005 0.0359084 -0.0064185 -0.012 0.0266964 0.00611825 -0.0045 0.0368848 -0.00670353 -0.005 0.0356077 -0.00691613 -0.012 0.0264534 0.00567974 -0.005 0.0359084 -0.0064185 -0.0045 0.0365727 -0.00726763 -0.0055 -0.00390439 0.00640357 -0.012 0.0237734 0.00855302 -0.0055 -0.00447858 0.00601601 -0.0055 -0.00447858 0.00601601 0.0055 -0.00338903 -0.00669063 0.012 0.0242149 0.00496074 0.012 0.023762 0.00517573 0.0055 -0.00338903 -0.00669063 0.0055 -0.00275724 -0.00697478 0.012 0.0242149 0.00496074 0.0055 -0.00142868 -0.00736267 0.012 0.024707 0.00486515 0.012 0.0242149 0.00496074 -0.0045 0.0387456 0.00640266 -0.012 0.0268244 0.00710474 -0.0045 0.038644 0.0070678 -0.0045 0.0336379 -0.00968637 -0.005 0.0328239 -0.00890321 -0.005 0.0333742 -0.00871532 -0.0045 0.0336379 -0.00968637 -0.0045 0.0330246 -0.00988491 -0.005 0.0328239 -0.00890321 -0.005 0.0333742 -0.00871532 -0.0045 0.0342264 -0.00942318 -0.0045 0.0336379 -0.00968637 -0.0045 0.035302 -0.00871568 -0.0045 0.0347832 -0.00909836 -0.005 0.034391 -0.0081551 -0.0045 0.0347832 -0.00909836 -0.005 0.0338989 -0.00846482 -0.005 0.034391 -0.0081551 -0.005 0.0338989 -0.00846482 -0.0045 0.0347832 -0.00909836 -0.0045 0.0342264 -0.00942318 -0.005 0.0348438 -0.00779034 -0.005 0.0352512 -0.00737548 -0.0045 0.0357767 -0.00827955 -0.0045 0.0357767 -0.00827955 -0.0045 0.035302 -0.00871568 -0.005 0.0348438 -0.00779034 -0.0045 0.0357767 -0.00827955 -0.005 0.0352512 -0.00737548 -0.0045 0.036202 -0.007795 0.012 0.023762 0.00517573 0.0055 -0.00456073 -0.00595397 0.0055 -0.00399191 -0.00634938 0.0055 -0.00399191 -0.00634938 0.0055 -0.00338903 -0.00669063 0.012 0.023762 0.00517573 0.0055 -0.000743246 -0.00746308 0.0045 0.0311073 -0.0100736 0.0055 -5.14696e-05 -0.00749982 0.0055 -5.14696e-05 -0.00749982 0.012 0.024707 0.00486515 0.0055 -0.000743246 -0.00746308 0.012 0.024707 0.00486515 0.0055 -0.00142868 -0.00736267 0.0055 -0.000743246 -0.00746308 0.012 0.0242149 0.00496074 0.0055 -0.00275724 -0.00697478 0.0055 -0.00210193 -0.00719944 0.0055 -0.00210193 -0.00719944 0.0055 -0.00142868 -0.00736267 0.012 0.0242149 0.00496074 -0.012 0.0268227 0.00660341 -0.012 0.0268244 0.00710474 -0.0045 0.038772 0.00573033 -0.0045 0.038772 0.00573033 -0.012 0.0268244 0.00710474 -0.0045 0.0387456 0.00640266 -0.0045 0.0387229 0.00505927 -0.012 0.0268227 0.00660341 -0.0045 0.038772 0.00573033 -0.0045 0.0236897 0.0127496 0.0055 -0.0013275 0.00738158 0.0045 0.0236897 0.0127496 -0.0055 -0.0013275 0.00738158 0.0045 0.0311073 -0.0100736 -0.0045 0.0311073 -0.0100736 -0.0045 0.0317519 -0.0100796 0.0045 0.0317519 -0.0100796 0.0045 0.0243268 0.0128388 -0.0045 0.0236897 0.0127496 0.0045 0.0236897 0.0127496 -0.0045 0.0243268 0.0128388 -0.0045 0.0256114 0.0128109 0.0045 0.0335449 0.0117815 -0.0045 0.0335449 0.0117815 0.0045 0.0256114 0.0128109 0.0055 -0.00747258 -0.000640746 -0.0055 -0.00749982 5.14696e-05 -0.0055 -0.00747258 -0.000640746 0.0055 -0.00749982 5.14696e-05 0.0045 0.038644 0.0070678 -0.0045 0.038644 0.0070678 -0.0045 0.0384687 0.00771739 0.0045 0.0384687 0.00771739 0.0045 0.0256114 0.0128109 -0.0045 0.0256114 0.0128109 0.0045 0.0249699 0.0128593 -0.0045 0.0249699 0.0128593 0.0045 0.0243268 0.0128388 0.0045 0.0249699 0.0128593 -0.0045 0.0243268 0.0128388 -0.0045 0.0249699 0.0128593 0.0045 0.0382217 0.00834326 0.0045 0.0384687 0.00771739 -0.0045 0.0384687 0.00771739 -0.0045 0.0382217 0.00834326 0.0045 0.0382217 0.00834326 -0.0045 0.0379062 0.00893755 0.0045 0.0379062 0.00893755 -0.0045 0.0382217 0.00834326 0.0045 0.0323935 -0.0100165 0.0045 0.0317519 -0.0100796 -0.0045 0.0317519 -0.0100796 -0.0045 0.0323935 -0.0100165 -0.0055 -0.00329689 0.00673651 0.0055 -0.00390439 0.00640357 0.0055 -0.00329689 0.00673651 -0.0055 -0.00390439 0.00640357 -0.0055 -0.00200292 0.00722761 0.0055 -0.0013275 0.00738158 -0.0055 -0.0013275 0.00738158 0.0055 -0.00200292 0.00722761 -0.0045 0.0342062 0.0116576 0.0045 0.0342062 0.0116576 -0.0045 0.0348496 0.0114605 0.0045 0.0348496 0.0114605 -0.0045 0.0335449 0.0117815 0.0045 0.0335449 0.0117815 0.0045 0.0342062 0.0116576 -0.0045 0.0342062 0.0116576 -0.0055 -0.00738158 -0.0013275 0.0055 -0.00747258 -0.000640746 -0.0055 -0.00747258 -0.000640746 0.0055 -0.00738158 -0.0013275 -0.0055 -0.00738158 -0.0013275 0.0055 -0.00722761 -0.00200292 0.0055 -0.00738158 -0.0013275 -0.0055 -0.00722761 -0.00200292 -0.0055 -0.00701197 -0.00266125 0.0055 -0.00722761 -0.00200292 -0.0055 -0.00722761 -0.00200292 0.0055 -0.00701197 -0.00266125 0.0055 -0.00746308 0.000743246 -0.0055 -0.00749982 5.14696e-05 0.0055 -0.00749982 5.14696e-05 -0.0055 -0.00746308 0.000743246 0.0055 -0.00200292 0.00722761 -0.0055 -0.00200292 0.00722761 0.0055 -0.00266125 0.00701197 -0.0055 -0.00266125 0.00701197 0.0055 -0.00266125 0.00701197 -0.0055 -0.00329689 0.00673651 0.0055 -0.00329689 0.00673651 -0.0055 -0.00266125 0.00701197 -0.0055 -0.00701197 -0.00266125 0.0055 -0.00673651 -0.00329689 0.0055 -0.00701197 -0.00266125 -0.0055 -0.00673651 -0.00329689 0.0055 -0.00601601 -0.00447858 -0.0055 -0.00601601 -0.00447858 -0.0055 -0.00557711 -0.00501456 0.0055 -0.00557711 -0.00501456 -0.0045 0.0374362 -0.00485759 -0.0045 0.0387229 0.00505927 0.0045 0.0387229 0.00505927 0.0045 0.0374362 -0.00485759 0.012 0.0268227 0.00660341 0.012 0.0268244 0.00710474 0.012 0.0267014 0.00759074 0.012 0.0261194 0.00839748 0.012 0.025697 0.00866754 0.012 0.0242277 0.00876495 0.012 0.0237734 0.00855302 0.012 0.0256848 0.00504825 0.012 0.026109 0.00531545 0.012 0.0247205 0.00885723 0.012 0.023762 0.00517573 0.012 0.0233768 0.00549659 0.012 0.0229039 0.00736467 0.012 0.0228393 0.00686751 0.012 0.0230835 0.00590317 0.012 0.02309 0.00783017 0.012 0.0264613 0.00803087 0.012 0.0264534 0.00567974 0.012 0.0266964 0.00611825 0.012 0.0229005 0.00636992 0.012 0.023386 0.00823477 0.012 0.0242149 0.00496074 0.012 0.024707 0.00486515 0.012 0.0252075 0.00489494 0.012 0.0252207 0.00882406 0.0045 0.0375261 0.00949277 -0.0045 0.0375261 0.00949277 -0.0045 0.0370863 0.010002 0.0045 0.0370863 0.010002 0.0045 0.0375261 0.00949277 0.0045 0.0379062 0.00893755 -0.0045 0.0379062 0.00893755 -0.0045 0.0375261 0.00949277 0.0045 0.0354668 0.0111926 -0.0045 0.0348496 0.0114605 0.0045 0.0348496 0.0114605 -0.0045 0.0354668 0.0111926 -0.0045 0.0360501 0.0108572 -0.0045 0.0354668 0.0111926 0.0045 0.0354668 0.0111926 0.0045 0.0360501 0.0108572 0.0045 0.0365922 0.0104587 0.0045 0.0370863 0.010002 -0.0045 0.0370863 0.010002 -0.0045 0.0365922 0.0104587 0.0045 0.0365922 0.0104587 -0.0045 0.0360501 0.0108572 0.0045 0.0360501 0.0108572 -0.0045 0.0365922 0.0104587 0.0045 0.0368848 -0.00670353 -0.0045 0.0368848 -0.00670353 -0.0045 0.0371345 -0.0061092 0.0045 0.0371345 -0.0061092 -0.0045 0.0365727 -0.00726763 0.0045 0.0368848 -0.00670353 0.0045 0.0365727 -0.00726763 -0.0045 0.0368848 -0.00670353 0.0045 0.036202 -0.007795 -0.0045 0.0365727 -0.00726763 0.0045 0.0365727 -0.00726763 -0.0045 0.036202 -0.007795 -0.0055 -0.00634938 0.00399191 0.0055 -0.00634938 0.00399191 -0.0055 -0.00595397 0.00456073 0.0055 -0.00595397 0.00456073 0.0055 -0.00634938 0.00399191 -0.0055 -0.00634938 0.00399191 -0.0055 -0.00669063 0.00338903 0.0055 -0.00669063 0.00338903 0.0055 -0.00697478 0.00275724 -0.0055 -0.00697478 0.00275724 -0.0055 -0.00719944 0.00210193 0.0055 -0.00719944 0.00210193 0.0055 -0.00697478 0.00275724 0.0055 -0.00669063 0.00338903 -0.0055 -0.00669063 0.00338903 -0.0055 -0.00697478 0.00275724 -0.0055 -0.00550776 0.00509063 -0.0055 -0.00595397 0.00456073 0.0055 -0.00595397 0.00456073 0.0055 -0.00550776 0.00509063 0.0055 -0.00501456 0.00557711 -0.0055 -0.00501456 0.00557711 -0.0055 -0.00550776 0.00509063 0.0055 -0.00550776 0.00509063 -0.0055 -0.00640357 -0.00390439 0.0055 -0.00673651 -0.00329689 -0.0055 -0.00673651 -0.00329689 0.0055 -0.00640357 -0.00390439 -0.0055 -0.00640357 -0.00390439 -0.0055 -0.00601601 -0.00447858 0.0055 -0.00601601 -0.00447858 0.0055 -0.00640357 -0.00390439 0.0055 -0.00557711 -0.00501456 -0.0055 -0.00557711 -0.00501456 -0.0055 -0.00509063 -0.00550776 0.0055 -0.00509063 -0.00550776 -0.0055 -0.00509063 -0.00550776 -0.0055 -0.00456073 -0.00595397 0.0055 -0.00456073 -0.00595397 0.0055 -0.00509063 -0.00550776 -0.0055 -0.00736267 0.00142868 0.0055 -0.00719944 0.00210193 -0.0055 -0.00719944 0.00210193 0.0055 -0.00736267 0.00142868 -0.0055 -0.00736267 0.00142868 -0.0055 -0.00746308 0.000743246 0.0055 -0.00746308 0.000743246 0.0055 -0.00736267 0.00142868 0.0045 0.0371345 -0.0061092 -0.0045 0.0371345 -0.0061092 -0.0045 0.037319 -0.00549151 0.0045 0.037319 -0.00549151 -0.0045 0.037319 -0.00549151 -0.0045 0.0374362 -0.00485759 0.0045 0.0374362 -0.00485759 0.0045 0.037319 -0.00549151 -0.012 0.0266964 0.00611825 -0.012 0.0264534 0.00567974 -0.012 0.0268244 0.00710474 -0.012 0.0228393 0.00686751 -0.012 0.0229039 0.00736467 -0.012 0.0261194 0.00839748 -0.012 0.0264613 0.00803087 -0.012 0.0242277 0.00876495 -0.012 0.0247205 0.00885723 -0.012 0.025697 0.00866754 -0.012 0.0256848 0.00504825 -0.012 0.0252075 0.00489494 -0.012 0.023762 0.00517573 -0.012 0.0233768 0.00549659 -0.012 0.0230835 0.00590317 -0.012 0.0252207 0.00882406 -0.012 0.024707 0.00486515 -0.012 0.02309 0.00783017 -0.012 0.023386 0.00823477 -0.012 0.0267014 0.00759074 -0.012 0.0242149 0.00496074 -0.012 0.0229005 0.00636992 -0.012 0.026109 0.00531545 -0.012 0.0268227 0.00660341 -0.012 0.0237734 0.00855302 -0.0045 0.0330246 -0.00988491 0.0045 0.0323935 -0.0100165 -0.0045 0.0323935 -0.0100165 0.0045 0.0330246 -0.00988491 -0.0055 -0.00447858 0.00601601 0.0055 -0.00390439 0.00640357 -0.0055 -0.00390439 0.00640357 0.0055 -0.00447858 0.00601601 -0.0055 -0.00447858 0.00601601 -0.0055 -0.00501456 0.00557711 0.0055 -0.00501456 0.00557711 0.0055 -0.00447858 0.00601601 0.0055 -0.00338903 -0.00669063 -0.0055 -0.00275724 -0.00697478 0.0055 -0.00275724 -0.00697478 -0.0055 -0.00338903 -0.00669063 -0.0045 0.038644 0.0070678 0.0045 0.038644 0.0070678 -0.0045 0.0387456 0.00640266 0.0045 0.0387456 0.00640266 -0.0045 0.0342264 -0.00942318 0.0045 0.0342264 -0.00942318 -0.0045 0.0336379 -0.00968637 0.0045 0.0336379 -0.00968637 0.0045 0.0330246 -0.00988491 -0.0045 0.0330246 -0.00988491 -0.0045 0.0336379 -0.00968637 0.0045 0.0336379 -0.00968637 -0.0045 0.0347832 -0.00909836 0.0045 0.0342264 -0.00942318 -0.0045 0.0342264 -0.00942318 0.0045 0.0347832 -0.00909836 -0.0045 0.0347832 -0.00909836 0.0045 0.035302 -0.00871568 0.0045 0.0347832 -0.00909836 -0.0045 0.035302 -0.00871568 -0.0045 0.036202 -0.007795 0.0045 0.036202 -0.007795 -0.0045 0.0357767 -0.00827955 0.0045 0.0357767 -0.00827955 -0.0045 0.0357767 -0.00827955 0.0045 0.035302 -0.00871568 -0.0045 0.035302 -0.00871568 0.0045 0.0357767 -0.00827955 0.0055 -0.00456073 -0.00595397 -0.0055 -0.00456073 -0.00595397 0.0055 -0.00399191 -0.00634938 -0.0055 -0.00399191 -0.00634938 0.0055 -0.00338903 -0.00669063 0.0055 -0.00399191 -0.00634938 -0.0055 -0.00338903 -0.00669063 -0.0055 -0.00399191 -0.00634938 0.0055 -0.000743246 -0.00746308 0.0055 -0.00142868 -0.00736267 -0.0055 -0.00142868 -0.00736267 -0.0055 -0.000743246 -0.00746308 -0.0045 0.0311073 -0.0100736 0.0045 0.0311073 -0.0100736 0.0055 -0.000743246 -0.00746308 -0.0055 -0.000743246 -0.00746308 0.0055 -0.00210193 -0.00719944 0.0055 -0.00275724 -0.00697478 -0.0055 -0.00275724 -0.00697478 -0.0055 -0.00210193 -0.00719944 0.0055 -0.00210193 -0.00719944 -0.0055 -0.00142868 -0.00736267 0.0055 -0.00142868 -0.00736267 -0.0055 -0.00210193 -0.00719944 0.0045 0.0387229 0.00505927 -0.0045 0.0387229 0.00505927 -0.0045 0.038772 0.00573033 0.0045 0.038772 0.00573033 -0.0045 0.038772 0.00573033 -0.0045 0.0387456 0.00640266 0.0045 0.0387456 0.00640266 0.0045 0.038772 0.00573033</float_array>
          <technique_common>
            <accessor count="1000" source="#verts-array-array" stride="3">
              <param type="float" name="X"/>
              <param type="float" name="Y"/>
              <param type="float" name="Z"/>
            </accessor>
          </technique_common>
        </source>
        <source id="normals-array">
          <float_array count="3000" id="normals-array-array">-0.8944841 0.04300273 -0.4450269 -0.8944234 0.04326505 -0.4451235 -0.8943567 0.04355275 -0.4452294 -0.4477816 -0.1704422 0.8777477 -0.4477816 -0.1704422 0.8777477 -0.4477816 -0.1704422 0.8777477 -0.7134161 -0.1289765 0.6887688 -0.7134161 -0.1289765 0.6887688 -0.7134161 -0.1289765 0.6887688 0.4477816 -0.1704422 0.8777477 0.4477816 -0.1704422 0.8777477 0.4477816 -0.1704422 0.8777477 0.5375673 -0.187414 0.8221298 0.5375673 -0.187414 0.8221298 0.5375673 -0.187414 0.8221298 0.6947593 -0.09108493 0.7134515 0.6947593 -0.09108493 0.7134515 0.6947593 -0.09108493 0.7134515 0.9572498 -0.2334572 0.1707941 0.9572498 -0.2334572 0.1707941 0.9572498 -0.2334572 0.1707941 -0.4481478 -0.1239537 0.8853243 -0.4481478 -0.1239537 0.8853243 -0.4481478 -0.1239537 0.8853243 -0.4464959 -0.02850736 0.8943315 -0.4464959 -0.02850736 0.8943315 -0.4464959 -0.02850736 0.8943315 -0.4488868 -0.1131642 0.8863941 -0.4488868 -0.1131642 0.8863941 -0.4488868 -0.1131642 0.8863941 -0.4550423 0.1207209 0.8822488 -0.4550423 0.1207209 0.8822488 -0.4550423 0.1207209 0.8822488 -0.6947593 -0.09108493 0.7134515 -0.6947593 -0.09108493 0.7134515 -0.6947593 -0.09108493 0.7134515 -0.9009525 0.04173487 -0.431906 -0.9009525 0.04173487 -0.431906 -0.9009525 0.04173487 -0.431906 0.9789085 -0.1902023 -0.07457343 0.9789085 -0.1902023 -0.07457343 0.9789085 -0.1902023 -0.07457343 -0.8352816 0.5308328 0.1432524 -0.8352816 0.5308328 0.1432524 -0.8352816 0.5308328 0.1432524 -0.8260418 0.5242587 0.2069005 -0.8260418 0.5242587 0.2069005 -0.8260418 0.5242587 0.2069005 -0.8144688 0.5124681 0.2720606 -0.8144688 0.5124681 0.2720606 -0.8144688 0.5124681 0.2720606 0.4481478 -0.1239537 0.8853243 0.4481478 -0.1239537 0.8853243 0.4481478 -0.1239537 0.8853243 0.4488868 -0.1131642 0.8863941 0.4488868 -0.1131642 0.8863941 0.4488868 -0.1131642 0.8863941 0.4491908 0.1149628 0.8860086 0.4491908 0.1149628 0.8860086 0.4491908 0.1149628 0.8860086 0.8132443 0.5108526 0.2786815 0.8132443 0.5108526 0.2786815 0.8132443 0.5108526 0.2786815 0.6279614 0.302278 0.7171419 0.6279614 0.302278 0.7171419 0.6279614 0.302278 0.7171419 0.4550423 0.1207209 0.8822488 0.4550423 0.1207209 0.8822488 0.4550423 0.1207209 0.8822488 0.6928131 0.2800892 0.6644999 0.6928131 0.2800892 0.6644999 0.6928131 0.2800892 0.6644999 0.8961217 0.3881899 -0.2151152 0.8961217 0.3881899 -0.2151152 0.8961217 0.3881899 -0.2151152 0.897175 0.37802 -0.2284248 0.8975921 0.3772941 -0.2279861 0.8987597 0.3752524 -0.2267524 0.9072023 0.08881353 -0.4112129 0.9072023 0.08881353 -0.4112129 0.9072023 0.08881353 -0.4112129 0.9110428 0.1262275 -0.3925144 0.9110341 0.1260972 -0.3925767 0.9114619 0.1328072 -0.3893578 0.9144015 0.2157489 -0.3425235 0.9144004 0.2156308 -0.3426007 0.9144015 0.2157515 -0.3425218 0.8942658 0.09230548 -0.4379136 0.8947743 0.0942653 -0.436455 0.8945346 0.09333879 -0.437145 0.9114687 0.1329205 -0.3893032 -0.8943003 0.04379596 -0.4453189 0.8957938 0.3804119 -0.2298701 -0.5680193 0.2410658 0.7869189 -0.5680193 0.2410658 0.7869189 -0.5680193 0.2410658 0.7869189 -0.4912715 0.1603984 0.8561102 -0.4912715 0.1603984 0.8561102 -0.4912715 0.1603984 0.8561102 -0.4469703 0.06730064 0.8920136 -0.4469703 0.06730064 0.8920136 -0.4469703 0.06730064 0.8920136 -0.4491908 0.1149628 0.8860086 -0.4491908 0.1149628 0.8860086 -0.4491908 0.1149628 0.8860086 -0.8132443 0.5108526 0.2786815 -0.8132443 0.5108526 0.2786815 -0.8132443 0.5108526 0.2786815 -0.7721882 0.4646782 0.4333586 -0.7721882 0.4646782 0.4333586 -0.7721882 0.4646782 0.4333586 -0.8933998 -0.001924083 -0.4492583 -0.8940653 0.001593961 -0.4479339 -0.8932115 -0.002907522 -0.4496274 -0.8986058 0.02606884 -0.4379818 -0.8986058 0.02606884 -0.4379818 -0.8986058 0.02606884 -0.4379818 -0.8929643 -0.004190012 -0.4501079 -0.9339615 -0.06814561 -0.3508163 -0.9339615 -0.06814561 -0.3508163 -0.9339615 -0.06814561 -0.3508163 -0.9255304 -0.05488648 -0.3746745 -0.9255304 -0.05488648 -0.3746745 -0.9255304 -0.05488648 -0.3746745 -0.9406664 -0.07995507 -0.3297786 -0.9406664 -0.07995507 -0.3297786 -0.9406664 -0.07995507 -0.3297786 -0.9602602 -0.11969 -0.25214 -0.9602602 -0.11969 -0.25214 -0.9602602 -0.11969 -0.25214 0.9717308 -0.1520641 -0.1805986 0.971579 -0.1515028 -0.181882 0.9715805 -0.1515082 -0.1818696 -0.9772278 -0.2118943 0.01125372 -0.9772278 -0.2118943 0.01125372 -0.9772278 -0.2118943 0.01125372 -0.9787193 -0.2036692 -0.02504952 -0.9787198 -0.2036638 -0.02507352 -0.9787575 -0.2032471 -0.02691373 -0.9781525 -0.2077276 -0.00817456 -0.9781525 -0.2077276 -0.00817456 -0.9781525 -0.2077276 -0.00817456 0.9741252 -0.2196458 0.05325328 0.9741252 -0.2196458 0.05325328 0.9741252 -0.2196458 0.05325328 0.7050141 -0.2143252 0.6760324 0.7050141 -0.2143252 0.6760324 0.7050141 -0.2143252 0.6760324 0.7134161 -0.1289765 0.6887688 0.7134161 -0.1289765 0.6887688 0.7134161 -0.1289765 0.6887688 0.8921647 -0.008672469 -0.4516269 0.8921647 -0.008672469 -0.4516269 0.8921647 -0.008672469 -0.4516269 0.8933998 -0.001924083 -0.4492583 0.8929643 -0.004190012 -0.4501079 0.8932115 -0.002907522 -0.4496274 0.9781525 -0.2077276 -0.00817456 0.9781525 -0.2077276 -0.00817456 0.9781525 -0.2077276 -0.00817456 0.9787575 -0.2032471 -0.02691373 0.9787198 -0.2036638 -0.02507352 0.9787193 -0.2036692 -0.02504952 0.9787579 -0.2032431 -0.02693125 0.9790294 -0.1935978 -0.06341413 0.9790294 -0.1935978 -0.06341413 0.9790294 -0.1935978 -0.06341413 0.9790266 -0.1986364 -0.04528146 0.9790266 -0.1986364 -0.04528146 0.9790266 -0.1986364 -0.04528146 0.8414277 0.5341738 0.08159545 0.8414277 0.5341738 0.08159545 0.8414277 0.5341738 0.08159545 0.8365028 0.531214 0.1344421 0.8365028 0.531214 0.1344421 0.8365028 0.531214 0.1344421 0.8352816 0.5308328 0.1432524 0.8352816 0.5308328 0.1432524 0.8352816 0.5308328 0.1432524 0.8456812 0.5332775 0.02093809 0.8456812 0.5332775 0.02093809 0.8456812 0.5332775 0.02093809 0.8741723 0.4653023 -0.138984 0.8741723 0.4653023 -0.138984 0.8741723 0.4653023 -0.138984 0.4469703 0.06730064 0.8920136 0.4469703 0.06730064 0.8920136 0.4469703 0.06730064 0.8920136 0.4464959 -0.02850736 0.8943315 0.4464959 -0.02850736 0.8943315 0.4464959 -0.02850736 0.8943315 0.8260418 0.5242587 0.2069005 0.8260418 0.5242587 0.2069005 0.8260418 0.5242587 0.2069005 0.8144688 0.5124681 0.2720606 0.8144688 0.5124681 0.2720606 0.8144688 0.5124681 0.2720606 -0.7793848 0.474179 0.4095285 -0.7793848 0.474179 0.4095285 -0.7793848 0.474179 0.4095285 -0.7987291 0.4964912 0.3398945 -0.7987291 0.4964912 0.3398945 -0.7987291 0.4964912 0.3398945 -0.7545027 0.4454739 0.4819529 -0.7545027 0.4454739 0.4819529 -0.7545027 0.4454739 0.4819529 -0.7236431 0.4087824 0.5560913 -0.7236431 0.4087824 0.5560913 -0.7236431 0.4087824 0.5560913 0.7721882 0.4646782 0.4333586 0.7721882 0.4646782 0.4333586 0.7721882 0.4646782 0.4333586 0.7167522 0.3756248 0.5875137 0.7167522 0.3756248 0.5875137 0.7167522 0.3756248 0.5875137 0.7110704 0.392536 0.5833475 0.7110704 0.392536 0.5833475 0.7110704 0.392536 0.5833475 0.7158724 0.2179827 0.6633327 0.7158724 0.2179827 0.6633327 0.7158724 0.2179827 0.6633327 0.7147679 0.04627527 0.6978291 0.7147679 0.04627527 0.6978291 0.7147679 0.04627527 0.6978291 0.693693 0.09764704 0.7136211 0.693693 0.09764704 0.7136211 0.693693 0.09764704 0.7136211 -0.9131938 0.2556545 -0.3173609 -0.9131938 0.2556545 -0.3173609 -0.9131938 0.2556545 -0.3173609 -0.9144015 0.2157515 -0.3425218 -0.9144004 0.2156308 -0.3426007 -0.9144015 0.2157489 -0.3425235 -0.9072023 0.08881353 -0.4112129 -0.9072023 0.08881353 -0.4112129 -0.9072023 0.08881353 -0.4112129 -0.9114619 0.1328072 -0.3893578 -0.9110341 0.1260972 -0.3925767 -0.9110428 0.1262275 -0.3925144 -0.9114687 0.1329205 -0.3893032 -0.8863792 0.4268203 -0.1793221 -0.8863792 0.4268203 -0.1793221 -0.8863792 0.4268203 -0.1793221 0.8957072 0.2368464 -0.3763143 0.8957072 0.2368464 -0.3763143 0.8957072 0.2368464 -0.3763143 0.9144004 0.2156286 -0.3426022 0.9136537 0.1751312 -0.3668323 0.9136537 0.1751312 -0.3668323 0.9136537 0.1751312 -0.3668323 0.893671 0.138201 -0.4269107 0.893671 0.138201 -0.4269107 0.893671 0.138201 -0.4269107 0.8951692 0.1440218 -0.4218172 0.8951692 0.1440218 -0.4218172 0.8951692 0.1440218 -0.4218172 0.8943003 0.04379596 -0.4453189 0.8944234 0.04326505 -0.4451235 0.8943567 0.04355275 -0.4452294 0.8940404 0.09144314 -0.4385544 0.9099795 0.3013143 -0.2848633 0.9099795 0.3013143 -0.2848633 0.9099795 0.3013143 -0.2848633 0.9056901 0.3349114 -0.2599226 0.9056901 0.3349114 -0.2599226 0.9056901 0.3349114 -0.2599226 0.8929651 0.2671984 -0.3622407 0.8929651 0.2671984 -0.3622407 0.8929651 0.2671984 -0.3622407 -0.8132292 -0.2313966 0.5339606 -0.8132292 -0.2313966 0.5339606 -0.8132292 -0.2313966 0.5339606 -0.7050141 -0.2143252 0.6760324 -0.7050141 -0.2143252 0.6760324 -0.7050141 -0.2143252 0.6760324 -0.7179544 -0.2166805 0.6615066 -0.7179544 -0.2166805 0.6615066 -0.7179544 -0.2166805 0.6615066 -0.5375673 -0.187414 0.8221298 -0.5375673 -0.187414 0.8221298 -0.5375673 -0.187414 0.8221298 -0.9589544 -0.232832 0.1618511 -0.9589544 -0.232832 0.1618511 -0.9589544 -0.232832 0.1618511 -0.9644701 -0.2299154 0.1301397 -0.9644701 -0.2299154 0.1301397 -0.9644701 -0.2299154 0.1301397 -0.9686366 -0.2266167 0.1019218 -0.9686366 -0.2266167 0.1019218 -0.9686366 -0.2266167 0.1019218 -0.9572498 -0.2334572 0.1707941 -0.9572498 -0.2334572 0.1707941 -0.9572498 -0.2334572 0.1707941 0.9513794 -0.2356138 0.198402 0.9513794 -0.2356138 0.198402 0.9513794 -0.2356138 0.198402 0.9408656 -0.2379048 0.2411912 0.9408656 -0.2379048 0.2411912 0.9408656 -0.2379048 0.2411912 0.5680193 0.2410658 0.7869189 0.5680193 0.2410658 0.7869189 0.5680193 0.2410658 0.7869189 0.4912715 0.1603984 0.8561102 0.4912715 0.1603984 0.8561102 0.4912715 0.1603984 0.8561102 -0.7158724 0.2179827 0.6633327 -0.7158724 0.2179827 0.6633327 -0.7158724 0.2179827 0.6633327 -0.7147679 0.04627527 0.6978291 -0.7147679 0.04627527 0.6978291 -0.7147679 0.04627527 0.6978291 -0.693693 0.09764704 0.7136211 -0.693693 0.09764704 0.7136211 -0.693693 0.09764704 0.7136211 -0.6761148 -0.03907624 -0.7357593 -0.6761148 -0.03907624 -0.7357593 -0.6761148 -0.03907624 -0.7357593 -0.8921647 -0.008672469 -0.4516269 -0.8921647 -0.008672469 -0.4516269 -0.8921647 -0.008672469 -0.4516269 -0.9029905 -0.02278719 -0.4290558 -0.9029905 -0.02278719 -0.4290558 -0.9029905 -0.02278719 -0.4290558 -0.9787579 -0.2032431 -0.02693125 -0.9790266 -0.1986364 -0.04528146 -0.9790266 -0.1986364 -0.04528146 -0.9790266 -0.1986364 -0.04528146 -0.9790294 -0.1935978 -0.06341413 -0.9790294 -0.1935978 -0.06341413 -0.9790294 -0.1935978 -0.06341413 -0.9789085 -0.1902023 -0.07457343 -0.9789085 -0.1902023 -0.07457343 -0.9789085 -0.1902023 -0.07457343 -0.9787428 -0.1881811 -0.08154998 -0.9787428 -0.1881811 -0.08154998 -0.9787428 -0.1881811 -0.08154998 -0.9768387 -0.1735356 -0.125186 -0.9768387 -0.1735356 -0.125186 -0.9768387 -0.1735356 -0.125186 -0.9758873 -0.1688781 -0.1382898 -0.9758873 -0.1688781 -0.1382898 -0.9758873 -0.1688781 -0.1382898 -0.9588374 -0.1164725 -0.2589692 -0.9588374 -0.1164725 -0.2589692 -0.9588374 -0.1164725 -0.2589692 -0.9512042 -0.1000671 -0.2918855 -0.9512042 -0.1000671 -0.2918855 -0.9512042 -0.1000671 -0.2918855 -0.9717308 -0.1520641 -0.1805986 -0.9715805 -0.1515082 -0.1818696 -0.971579 -0.1515028 -0.181882 0.974088 -0.1610192 -0.1588252 0.974088 -0.1610192 -0.1588252 0.974088 -0.1610192 -0.1588252 0.9717318 -0.152068 -0.1805896 -0.9717637 -0.2232036 0.07652087 -0.9717637 -0.2232036 0.07652087 -0.9717637 -0.2232036 0.07652087 -0.9702156 -0.2249338 0.08992513 -0.9702156 -0.2249338 0.08992513 -0.9702156 -0.2249338 0.08992513 -0.9761993 -0.2150598 0.02800316 -0.9762037 -0.2150476 0.02794286 -0.9759317 -0.2157795 0.03156655 0.9759317 -0.2157795 0.03156655 0.9762037 -0.2150476 0.02794286 0.9761993 -0.2150598 0.02800316 0.9759283 -0.2157885 0.0316111 0.9772278 -0.2118943 0.01125372 0.9772278 -0.2118943 0.01125372 0.9772278 -0.2118943 0.01125372 0.9035041 -0.239771 0.3552326 0.9035041 -0.239771 0.3552326 0.9035041 -0.239771 0.3552326 0.8690315 -0.2377823 0.4338707 0.8690315 -0.2377823 0.4338707 0.8690315 -0.2377823 0.4338707 0.8333055 -0.2337073 0.5009818 0.8333055 -0.2337073 0.5009818 0.8333055 -0.2337073 0.5009818 0.9262489 -0.2392439 0.2912477 0.9259472 -0.2392724 0.2921822 0.9262558 -0.2392433 0.2912266 0.9259422 -0.2392729 0.2921976 0.7179544 -0.2166805 0.6615066 0.7179544 -0.2166805 0.6615066 0.7179544 -0.2166805 0.6615066 0.8132292 -0.2313966 0.5339606 0.8132292 -0.2313966 0.5339606 0.8132292 -0.2313966 0.5339606 0.8944841 0.04300273 -0.4450269 0.8940653 0.001593961 -0.4479339 0.8986058 0.02606884 -0.4379818 0.8986058 0.02606884 -0.4379818 0.8986058 0.02606884 -0.4379818 0.9009525 0.04173487 -0.431906 0.9009525 0.04173487 -0.431906 0.9009525 0.04173487 -0.431906 0.9787428 -0.1881811 -0.08154998 0.9787428 -0.1881811 -0.08154998 0.9787428 -0.1881811 -0.08154998 0.9781362 -0.1823725 -0.09994899 0.9781362 -0.1823725 -0.09994899 0.9781362 -0.1823725 -0.09994899 0.9768387 -0.1735356 -0.125186 0.9768387 -0.1735356 -0.125186 0.9768387 -0.1735356 -0.125186 0.977217 -0.1759197 -0.1187404 0.977217 -0.1759197 -0.1187404 0.977217 -0.1759197 -0.1187404 0.9758873 -0.1688781 -0.1382898 0.9758873 -0.1688781 -0.1382898 0.9758873 -0.1688781 -0.1382898 -0.8479976 0.5255944 -0.06819527 -0.8479976 0.5255944 -0.06819527 -0.8479976 0.5255944 -0.06819527 0.8695342 0.4779429 -0.124422 0.8695342 0.4779429 -0.124422 0.8695342 0.4779429 -0.124422 0.8578596 0.5053206 -0.09342357 0.8578596 0.5053206 -0.09342357 0.8578596 0.5053206 -0.09342357 0.8479976 0.5255944 -0.06819527 0.8479976 0.5255944 -0.06819527 0.8479976 0.5255944 -0.06819527 0.8470452 0.5315179 -0.001801779 0.8470452 0.5315179 -0.001801779 0.8470452 0.5315179 -0.001801779 0.8476235 0.5291835 -0.03871839 0.8476235 0.5291835 -0.03871839 0.8476235 0.5291835 -0.03871839 0.7793848 0.474179 0.4095285 0.7793848 0.474179 0.4095285 0.7793848 0.474179 0.4095285 0.7987291 0.4964912 0.3398945 0.7987291 0.4964912 0.3398945 0.7987291 0.4964912 0.3398945 -0.6834081 0.3639057 0.6328712 -0.6834081 0.3639057 0.6328712 -0.6834081 0.3639057 0.6328712 -0.7167522 0.3756248 0.5875137 -0.7167522 0.3756248 0.5875137 -0.7167522 0.3756248 0.5875137 -0.7110704 0.392536 0.5833475 -0.7110704 0.392536 0.5833475 -0.7110704 0.392536 0.5833475 -0.6928131 0.2800892 0.6644999 -0.6928131 0.2800892 0.6644999 -0.6928131 0.2800892 0.6644999 -0.6279614 0.302278 0.7171419 -0.6279614 0.302278 0.7171419 -0.6279614 0.302278 0.7171419 -0.6329805 0.3082475 0.7101544 -0.6329805 0.3082475 0.7101544 -0.6329805 0.3082475 0.7101544 0.6329805 0.3082475 0.7101544 0.6329805 0.3082475 0.7101544 0.6329805 0.3082475 0.7101544 0.6834081 0.3639057 0.6328712 0.6834081 0.3639057 0.6328712 0.6834081 0.3639057 0.6328712 0.7545027 0.4454739 0.4819529 0.7545027 0.4454739 0.4819529 0.7545027 0.4454739 0.4819529 0.7236431 0.4087824 0.5560913 0.7236431 0.4087824 0.5560913 0.7236431 0.4087824 0.5560913 -0.9136537 0.1751312 -0.3668323 -0.9136537 0.1751312 -0.3668323 -0.9136537 0.1751312 -0.3668323 -0.9144004 0.2156286 -0.3426022 -0.8954843 0.1917613 -0.4016659 -0.8954843 0.1917613 -0.4016659 -0.8954843 0.1917613 -0.4016659 -0.9099795 0.3013143 -0.2848633 -0.9099795 0.3013143 -0.2848633 -0.9099795 0.3013143 -0.2848633 -0.9105178 0.295007 -0.2897038 -0.9105178 0.295007 -0.2897038 -0.9105178 0.295007 -0.2897038 -0.9056901 0.3349114 -0.2599226 -0.9056901 0.3349114 -0.2599226 -0.9056901 0.3349114 -0.2599226 -0.8959042 0.3509538 -0.272373 -0.8959042 0.3509538 -0.272373 -0.8959042 0.3509538 -0.272373 -0.8929109 0.3683389 -0.2589142 -0.8929109 0.3683389 -0.2589142 -0.8929109 0.3683389 -0.2589142 0.8930443 0.3937249 -0.217836 0.8930443 0.3937249 -0.217836 0.8930443 0.3937249 -0.217836 0.8863792 0.4268203 -0.1793221 0.8863792 0.4268203 -0.1793221 0.8863792 0.4268203 -0.1793221 0.8939841 0.3973038 -0.2072248 0.8939841 0.3973038 -0.2072248 0.8939841 0.3973038 -0.2072248 0.8954843 0.1917613 -0.4016659 0.8954843 0.1917613 -0.4016659 0.8954843 0.1917613 -0.4016659 0.8933639 0.1834435 -0.4101822 0.8933639 0.1834435 -0.4101822 0.8933639 0.1834435 -0.4101822 0.8931322 0.2266482 -0.3885169 0.8931322 0.2266482 -0.3885169 0.8931322 0.2266482 -0.3885169 0.892859 0.3384553 -0.2970702 0.892859 0.3384553 -0.2970702 0.892859 0.3384553 -0.2970702 0.8929109 0.3683389 -0.2589142 0.8929109 0.3683389 -0.2589142 0.8929109 0.3683389 -0.2589142 0.8959042 0.3509538 -0.272373 0.8959042 0.3509538 -0.272373 0.8959042 0.3509538 -0.272373 0.8958539 0.2787548 -0.3460369 0.8958539 0.2787548 -0.3460369 0.8958539 0.2787548 -0.3460369 0.9131938 0.2556545 -0.3173609 0.9131938 0.2556545 -0.3173609 0.9131938 0.2556545 -0.3173609 0.9105178 0.295007 -0.2897038 0.9105178 0.295007 -0.2897038 0.9105178 0.295007 -0.2897038 0.8959125 0.3169543 -0.3112566 0.8959125 0.3169543 -0.3112566 0.8959125 0.3169543 -0.3112566 0.8928744 0.3046576 -0.3316008 0.8928744 0.3046576 -0.3316008 0.8928744 0.3046576 -0.3316008 0.9589544 -0.232832 0.1618511 0.9589544 -0.232832 0.1618511 0.9589544 -0.232832 0.1618511 0.9644701 -0.2299154 0.1301397 0.9644701 -0.2299154 0.1301397 0.9644701 -0.2299154 0.1301397 0.9702156 -0.2249338 0.08992513 0.9702156 -0.2249338 0.08992513 0.9702156 -0.2249338 0.08992513 0.9686366 -0.2266167 0.1019218 0.9686366 -0.2266167 0.1019218 0.9686366 -0.2266167 0.1019218 0.9717637 -0.2232036 0.07652087 0.9717637 -0.2232036 0.07652087 0.9717637 -0.2232036 0.07652087 -0.9513794 -0.2356138 0.198402 -0.9513794 -0.2356138 0.198402 -0.9513794 -0.2356138 0.198402 -0.9408656 -0.2379048 0.2411912 -0.9408656 -0.2379048 0.2411912 -0.9408656 -0.2379048 0.2411912 -0.8690315 -0.2377823 0.4338707 -0.8690315 -0.2377823 0.4338707 -0.8690315 -0.2377823 0.4338707 -0.8333055 -0.2337073 0.5009818 -0.8333055 -0.2337073 0.5009818 -0.8333055 -0.2337073 0.5009818 -0.9262489 -0.2392439 0.2912477 -0.9262558 -0.2392433 0.2912266 -0.9259472 -0.2392724 0.2921822 -0.9781362 -0.1823725 -0.09994899 -0.9781362 -0.1823725 -0.09994899 -0.9781362 -0.1823725 -0.09994899 -0.977217 -0.1759197 -0.1187404 -0.977217 -0.1759197 -0.1187404 -0.977217 -0.1759197 -0.1187404 -0.974088 -0.1610192 -0.1588252 -0.974088 -0.1610192 -0.1588252 -0.974088 -0.1610192 -0.1588252 -0.9717318 -0.152068 -0.1805896 -0.9643908 -0.1302822 -0.2301671 -0.9643908 -0.1302822 -0.2301671 -0.9643908 -0.1302822 -0.2301671 -0.9685568 -0.1420061 -0.2042839 -0.9685568 -0.1420061 -0.2042839 -0.9685568 -0.1420061 -0.2042839 -0.9741252 -0.2196458 0.05325328 -0.9741252 -0.2196458 0.05325328 -0.9741252 -0.2196458 0.05325328 -0.9759283 -0.2157885 0.0316111 -0.8578596 0.5053206 -0.09342357 -0.8578596 0.5053206 -0.09342357 -0.8578596 0.5053206 -0.09342357 -0.8695342 0.4779429 -0.124422 -0.8695342 0.4779429 -0.124422 -0.8695342 0.4779429 -0.124422 -0.8741723 0.4653023 -0.138984 -0.8741723 0.4653023 -0.138984 -0.8741723 0.4653023 -0.138984 -0.8365028 0.531214 0.1344421 -0.8365028 0.531214 0.1344421 -0.8365028 0.531214 0.1344421 -0.8942658 0.09230548 -0.4379136 -0.8940404 0.09144314 -0.4385544 -0.8945346 0.09333879 -0.437145 -0.8947743 0.0942653 -0.436455 -0.8958539 0.2787548 -0.3460369 -0.8958539 0.2787548 -0.3460369 -0.8958539 0.2787548 -0.3460369 -0.8961217 0.3881899 -0.2151152 -0.8961217 0.3881899 -0.2151152 -0.8961217 0.3881899 -0.2151152 -0.8930443 0.3937249 -0.217836 -0.8930443 0.3937249 -0.217836 -0.8930443 0.3937249 -0.217836 -0.8939841 0.3973038 -0.2072248 -0.8939841 0.3973038 -0.2072248 -0.8939841 0.3973038 -0.2072248 -0.897175 0.37802 -0.2284248 -0.8987597 0.3752524 -0.2267524 -0.8975921 0.3772941 -0.2279861 -0.8957938 0.3804119 -0.2298701 -0.9035041 -0.239771 0.3552326 -0.9035041 -0.239771 0.3552326 -0.9035041 -0.239771 0.3552326 -0.9259422 -0.2392729 0.2921976 0.9602602 -0.11969 -0.25214 0.9602602 -0.11969 -0.25214 0.9602602 -0.11969 -0.25214 0.9588374 -0.1164725 -0.2589692 0.9588374 -0.1164725 -0.2589692 0.9588374 -0.1164725 -0.2589692 0.9339615 -0.06814561 -0.3508163 0.9339615 -0.06814561 -0.3508163 0.9339615 -0.06814561 -0.3508163 -0.8414277 0.5341738 0.08159545 -0.8414277 0.5341738 0.08159545 -0.8414277 0.5341738 0.08159545 -0.8951692 0.1440218 -0.4218172 -0.8951692 0.1440218 -0.4218172 -0.8951692 0.1440218 -0.4218172 -0.893671 0.138201 -0.4269107 -0.893671 0.138201 -0.4269107 -0.893671 0.138201 -0.4269107 -0.8933639 0.1834435 -0.4101822 -0.8933639 0.1834435 -0.4101822 -0.8933639 0.1834435 -0.4101822 -0.8929651 0.2671984 -0.3622407 -0.8929651 0.2671984 -0.3622407 -0.8929651 0.2671984 -0.3622407 -0.8957072 0.2368464 -0.3763143 -0.8957072 0.2368464 -0.3763143 -0.8957072 0.2368464 -0.3763143 -0.8931322 0.2266482 -0.3885169 -0.8931322 0.2266482 -0.3885169 -0.8931322 0.2266482 -0.3885169 -0.8959125 0.3169543 -0.3112566 -0.8959125 0.3169543 -0.3112566 -0.8959125 0.3169543 -0.3112566 -0.8928744 0.3046576 -0.3316008 -0.8928744 0.3046576 -0.3316008 -0.8928744 0.3046576 -0.3316008 -0.892859 0.3384553 -0.2970702 -0.892859 0.3384553 -0.2970702 -0.892859 0.3384553 -0.2970702 0.9685568 -0.1420061 -0.2042839 0.9685568 -0.1420061 -0.2042839 0.9685568 -0.1420061 -0.2042839 0.9643908 -0.1302822 -0.2301671 0.9643908 -0.1302822 -0.2301671 0.9643908 -0.1302822 -0.2301671 0.6761148 -0.03907624 -0.7357593 0.6761148 -0.03907624 -0.7357593 0.6761148 -0.03907624 -0.7357593 0.9029905 -0.02278719 -0.4290558 0.9029905 -0.02278719 -0.4290558 0.9029905 -0.02278719 -0.4290558 0.9255304 -0.05488648 -0.3746745 0.9255304 -0.05488648 -0.3746745 0.9255304 -0.05488648 -0.3746745 0.9512042 -0.1000671 -0.2918855 0.9512042 -0.1000671 -0.2918855 0.9512042 -0.1000671 -0.2918855 0.9406664 -0.07995507 -0.3297786 0.9406664 -0.07995507 -0.3297786 0.9406664 -0.07995507 -0.3297786 -0.8470452 0.5315179 -0.001801779 -0.8470452 0.5315179 -0.001801779 -0.8470452 0.5315179 -0.001801779 -0.8456812 0.5332775 0.02093809 -0.8456812 0.5332775 0.02093809 -0.8456812 0.5332775 0.02093809 -0.8476235 0.5291835 -0.03871839 -0.8476235 0.5291835 -0.03871839 -0.8476235 0.5291835 -0.03871839 0 -0.2097978 0.9777448 0 -0.2097978 0.9777448 0 -0.2097978 0.9777448 0 -0.2097978 0.9777448 0 -0.009308501 -0.9999567 0 -0.009308501 -0.9999567 0 -0.009308501 -0.9999567 0 -0.009308501 -0.9999567 0 -0.138657 0.9903405 0 -0.138657 0.9903405 0 -0.138657 0.9903405 0 -0.138657 0.9903405 0 0.1286749 0.9916868 0 0.1286749 0.9916868 0 0.1286749 0.9916868 0 0.1286749 0.9916868 0 -0.9992266 -0.03932187 0 -0.9992266 -0.03932187 0 -0.9992266 -0.03932187 0 -0.9992266 -0.03932187 0 0.9654623 0.260543 0 0.9654623 0.260543 0 0.9654623 0.260543 0 0.9654623 0.260543 0 0.07523417 0.9971659 0 0.07523417 0.9971659 0 0.07523417 0.9971659 0 0.07523417 0.9971659 0 -0.03185943 0.9994924 0 -0.03185943 0.9994924 0 -0.03185943 0.9994924 0 -0.03185943 0.9994924 0 0.9301817 0.3670994 0 0.9301817 0.3670994 0 0.9301817 0.3670994 0 0.9301817 0.3670994 0 0.88325 0.4689024 0 0.88325 0.4689024 0 0.88325 0.4689024 0 0.88325 0.4689024 0 0.09787523 -0.9951987 0 0.09787523 -0.9951987 0 0.09787523 -0.9951987 0 0.09787523 -0.9951987 0 -0.4806044 0.8769375 0 -0.4806044 0.8769375 0 -0.4806044 0.8769375 0 -0.4806044 0.8769375 0 -0.2222597 0.9749875 0 -0.2222597 0.9749875 0 -0.2222597 0.9749875 0 -0.2222597 0.9749875 0 0.2929056 0.9561414 0 0.2929056 0.9561414 0 0.2929056 0.9561414 0 0.2929056 0.9561414 0 0.184153 0.9828976 0 0.184153 0.9828976 0 0.184153 0.9828976 0 0.184153 0.9828976 0 -0.9913348 -0.1313593 0 -0.9913348 -0.1313593 0 -0.9913348 -0.1313593 0 -0.9913348 -0.1313593 0 -0.9749875 -0.2222597 0 -0.9749875 -0.2222597 0 -0.9749875 -0.2222597 0 -0.9749875 -0.2222597 0 -0.9503175 -0.3112823 0 -0.9503175 -0.3112823 0 -0.9503175 -0.3112823 0 -0.9503175 -0.3112823 0 -0.9985926 0.05303534 0 -0.9985926 0.05303534 0 -0.9985926 0.05303534 0 -0.9985926 0.05303534 0 -0.3112823 0.9503175 0 -0.3112823 0.9503175 0 -0.3112823 0.9503175 0 -0.3112823 0.9503175 0 -0.3976272 0.917547 0 -0.3976272 0.917547 0 -0.3976272 0.917547 0 -0.3976272 0.917547 0 -0.917547 -0.3976272 0 -0.917547 -0.3976272 0 -0.917547 -0.3976272 0 -0.917547 -0.3976272 0 -0.773695 -0.6335583 0 -0.773695 -0.6335583 0 -0.773695 -0.6335583 0 -0.773695 -0.6335583 0 0.9916874 -0.1286703 0 0.9916874 -0.1286703 0 0.9916874 -0.1286703 0 0.9916874 -0.1286703 1 0 0 1 0 0 1 0 0 1 0 0 1 0 0 1 0 0 1 0 0 1 0 0 1 0 0 1 0 0 1 0 0 1 0 0 1 0 0 1 0 0 1 0 0 1 0 0 1 0 0 1 0 0 1 0 0 1 0 0 1 0 0 1 0 0 1 0 0 1 0 0 1 0 0 0 0.7568149 0.6536292 0 0.7568149 0.6536292 0 0.7568149 0.6536292 0 0.7568149 0.6536292 0 0.8251601 0.564899 0 0.8251601 0.564899 0 0.8251601 0.564899 0 0.8251601 0.564899 0 0.3981662 0.9173133 0 0.3981662 0.9173133 0 0.3981662 0.9173133 0 0.3981662 0.9173133 0 0.498476 0.8669035 0 0.498476 0.8669035 0 0.498476 0.8669035 0 0.498476 0.8669035 0 0.6787689 0.734352 0 0.6787689 0.734352 0 0.6787689 0.734352 0 0.6787689 0.734352 0 0.5922886 0.8057259 0 0.5922886 0.8057259 0 0.5922886 0.8057259 0 0.5922886 0.8057259 0 0.9219377 -0.3873381 0 0.9219377 -0.3873381 0 0.9219377 -0.3873381 0 0.9219377 -0.3873381 0 0.8750051 -0.4841136 0 0.8750051 -0.4841136 0 0.8750051 -0.4841136 0 0.8750051 -0.4841136 0 0.8181067 -0.5750665 0 0.8181067 -0.5750665 0 0.8181067 -0.5750665 0 0.8181067 -0.5750665 0 -0.8211019 0.5707816 0 -0.8211019 0.5707816 0 -0.8211019 0.5707816 0 -0.8211019 0.5707816 0 -0.8702586 0.4925951 0 -0.8702586 0.4925951 0 -0.8702586 0.4925951 0 -0.8702586 0.4925951 0 -0.9459538 0.3243013 0 -0.9459538 0.3243013 0 -0.9459538 0.3243013 0 -0.9459538 0.3243013 0 -0.9120054 0.4101782 0 -0.9120054 0.4101782 0 -0.9120054 0.4101782 0 -0.9120054 0.4101782 0 -0.7649267 0.6441174 0 -0.7649267 0.6441174 0 -0.7649267 0.6441174 0 -0.7649267 0.6441174 0 -0.7022399 0.7119404 0 -0.7022399 0.7119404 0 -0.7022399 0.7119404 0 -0.7022399 0.7119404 0 -0.8769375 -0.4806044 0 -0.8769375 -0.4806044 0 -0.8769375 -0.4806044 0 -0.8769375 -0.4806044 0 -0.8288606 -0.5594552 0 -0.8288606 -0.5594552 0 -0.8288606 -0.5594552 0 -0.8288606 -0.5594552 0 -0.7119404 -0.7022399 0 -0.7119404 -0.7022399 0 -0.7119404 -0.7022399 0 -0.7119404 -0.7022399 0 -0.6441174 -0.7649267 0 -0.6441174 -0.7649267 0 -0.6441174 -0.7649267 0 -0.6441174 -0.7649267 0 -0.9718442 0.2356243 0 -0.9718442 0.2356243 0 -0.9718442 0.2356243 0 -0.9718442 0.2356243 0 -0.9894398 0.1449442 0 -0.9894398 0.1449442 0 -0.9894398 0.1449442 0 -0.9894398 0.1449442 0 0.9581694 -0.2862015 0 0.9581694 -0.2862015 0 0.9581694 -0.2862015 0 0.9581694 -0.2862015 0 0.9833357 -0.1817989 0 0.9833357 -0.1817989 0 0.9833357 -0.1817989 0 0.9833357 -0.1817989 -1 0 0 -1 0 0 -1 0 0 -1 0 0 -1 0 0 -1 0 0 -1 0 0 -1 0 0 -1 0 0 -1 0 0 -1 0 0 -1 0 0 -1 0 0 -1 0 0 -1 0 0 -1 0 0 -1 0 0 -1 0 0 -1 0 0 -1 0 0 -1 0 0 -1 0 0 -1 0 0 -1 0 0 -1 0 0 0 0.2041204 -0.9789458 0 0.2041204 -0.9789458 0 0.2041204 -0.9789458 0 0.2041204 -0.9789458 0 -0.5594552 0.8288606 0 -0.5594552 0.8288606 0 -0.5594552 0.8288606 0 -0.5594552 0.8288606 0 -0.6335583 0.773695 0 -0.6335583 0.773695 0 -0.6335583 0.773695 0 -0.6335583 0.773695 0 -0.4101782 -0.9120054 0 -0.4101782 -0.9120054 0 -0.4101782 -0.9120054 0 -0.4101782 -0.9120054 0 0.9885339 0.1509993 0 0.9885339 0.1509993 0 0.9885339 0.1509993 0 0.9885339 0.1509993 0 0.4082565 -0.9128673 0 0.4082565 -0.9128673 0 0.4082565 -0.9128673 0 0.4082565 -0.9128673 0 0.3079874 -0.9513904 0 0.3079874 -0.9513904 0 0.3079874 -0.9513904 0 0.3079874 -0.9513904 0 0.5038931 -0.863766 0 0.5038931 -0.863766 0 0.5038931 -0.863766 0 0.5038931 -0.863766 0 0.5936083 -0.8047541 0 0.5936083 -0.8047541 0 0.5936083 -0.8047541 0 0.5936083 -0.8047541 0 0.7515613 -0.6596632 0 0.7515613 -0.6596632 0 0.7515613 -0.6596632 0 0.7515613 -0.6596632 0 0.676557 -0.7363902 0 0.676557 -0.7363902 0 0.676557 -0.7363902 0 0.676557 -0.7363902 0 -0.5707816 -0.8211019 0 -0.5707816 -0.8211019 0 -0.5707816 -0.8211019 0 -0.5707816 -0.8211019 0 -0.4925951 -0.8702586 0 -0.4925951 -0.8702586 0 -0.4925951 -0.8702586 0 -0.4925951 -0.8702586 0 -0.1449442 -0.9894398 0 -0.1449442 -0.9894398 0 -0.1449442 -0.9894398 0 -0.1449442 -0.9894398 0 -0.08168763 -0.996658 0 -0.08168763 -0.996658 0 -0.08168763 -0.996658 0 -0.08168763 -0.996658 0 -0.3243013 -0.9459538 0 -0.3243013 -0.9459538 0 -0.3243013 -0.9459538 0 -0.3243013 -0.9459538 0 -0.2356243 -0.9718442 0 -0.2356243 -0.9718442 0 -0.2356243 -0.9718442 0 -0.2356243 -0.9718442 0 0.997334 -0.07297122 0 0.997334 -0.07297122 0 0.997334 -0.07297122 0 0.997334 -0.07297122 0 0.9992301 0.0392328 0 0.9992301 0.0392328 0 0.9992301 0.0392328 0 0.9992301 0.0392328</float_array>
          <technique_common>
            <accessor count="1000" source="#normals-array-array" stride="3">
              <param type="float" name="X"/>
              <param type="float" name="Y"/>
              <param type="float" name="Z"/>
            </accessor>
          </technique_common>
        </source>
        <vertices id="verts-array-vertices">
          <input semantic="POSITION" source="#verts-array"/>
        </vertices>
        <triangles count="420" material="material0">
          <input offset="0" semantic="VERTEX" source="#verts-array-vertices"/>
          <input offset="1" semantic="NORMAL" source="#normals-array"/>
          <p>0 0 1 1 2 2 3 3 4 4 5 5 6 6 7 7 8 8 9 9 10 10 11 11 12 12 13 13 14 14 15 15 16 16 17 17 18 18 19 19 20 20 21 21 22 22 23 23 24 24 25 25 26 26 27 27 28 28 29 29 30 30 31 31 32 32 33 33 34 34 35 35 36 36 37 37 38 38 39 39 40 40 41 41 42 42 43 43 44 44 45 45 46 46 47 47 48 48 49 49 50 50 51 51 52 52 53 53 54 54 55 55 56 56 57 57 58 58 59 59 60 60 61 61 62 62 63 63 64 64 65 65 66 66 67 67 68 68 69 69 70 70 71 71 72 72 73 73 74 74 75 75 76 76 77 77 78 78 79 79 80 80 81 81 82 82 83 83 84 84 85 85 86 86 87 87 88 88 89 89 90 90 81 81 83 83 91 91 2 2 1 1 92 92 76 76 75 75 93 93 94 94 95 95 96 96 97 97 98 98 99 99 100 100 101 101 102 102 103 103 104 104 105 105 106 106 107 107 108 108 109 109 110 110 111 111 112 112 113 113 114 114 115 115 116 116 113 113 117 117 111 111 118 118 119 119 120 120 121 121 122 122 123 123 124 124 125 125 126 126 127 127 128 128 129 129 130 130 131 131 132 132 133 133 134 134 135 135 136 136 137 137 138 138 139 139 140 140 141 141 142 142 143 143 144 144 145 145 146 146 147 147 148 148 149 149 150 150 151 151 152 152 153 153 154 154 155 155 156 156 157 157 158 158 159 159 160 160 161 161 162 162 160 160 163 163 161 161 164 164 165 165 166 166 167 167 168 168 169 169 170 170 171 171 172 172 173 173 174 174 175 175 176 176 177 177 178 178 179 179 180 180 181 181 182 182 183 183 184 184 185 185 186 186 187 187 188 188 189 189 190 190 191 191 192 192 193 193 194 194 195 195 196 196 197 197 198 198 199 199 200 200 201 201 202 202 203 203 204 204 205 205 206 206 207 207 208 208 209 209 210 210 211 211 212 212 213 213 214 214 215 215 216 216 217 217 218 218 219 219 220 220 221 221 222 222 223 223 224 224 225 225 226 226 227 227 228 228 229 229 230 230 231 231 232 232 233 233 234 234 235 235 236 236 237 237 238 238 236 236 238 238 239 239 240 240 241 241 242 242 243 243 244 244 245 245 84 84 246 246 85 85 247 247 248 248 249 249 250 250 251 251 252 252 253 253 254 254 255 255 256 256 257 257 258 258 259 259 87 87 89 89 260 260 261 261 262 262 263 263 264 264 265 265 266 266 267 267 268 268 269 269 270 270 271 271 272 272 273 273 274 274 275 275 276 276 277 277 278 278 279 279 280 280 281 281 282 282 283 283 284 284 285 285 286 286 287 287 288 288 289 289 290 290 291 291 292 292 293 293 294 294 295 295 296 296 297 297 298 298 299 299 300 300 301 301 302 302 303 303 304 304 305 305 306 306 307 307 308 308 309 309 310 310 311 311 312 312 313 313 314 314 315 315 316 316 317 317 318 318 319 319 320 320 321 321 322 322 137 137 323 323 138 138 324 324 325 325 326 326 327 327 328 328 329 329 330 330 331 331 332 332 333 333 334 334 335 335 336 336 337 337 338 338 339 339 340 340 341 341 342 342 343 343 344 344 345 345 346 346 347 347 348 348 349 349 350 350 351 351 352 352 353 353 354 354 130 130 132 132 355 355 356 356 357 357 358 358 359 359 360 360 361 361 362 362 363 363 364 364 365 365 366 366 366 366 367 367 364 364 368 368 369 369 370 370 371 371 372 372 373 373 374 374 375 375 376 376 377 377 378 378 379 379 380 380 381 381 382 382 380 380 383 383 381 381 384 384 385 385 386 386 387 387 388 388 389 389 258 258 257 257 390 390 391 391 154 154 156 156 392 392 393 393 394 394 395 395 396 396 397 397 398 398 399 399 400 400 401 401 402 402 403 403 404 404 405 405 406 406 407 407 408 408 409 409 410 410 411 411 412 412 413 413 414 414 415 415 416 416 417 417 418 418 419 419 420 420 421 421 422 422 423 423 424 424 425 425 426 426 427 427 428 428 429 429 430 430 431 431 432 432 433 433 434 434 435 435 436 436 437 437 438 438 439 439 440 440 441 441 442 442 443 443 444 444 445 445 446 446 447 447 448 448 449 449 450 450 451 451 452 452 453 453 454 454 455 455 456 456 457 457 458 458 459 459 460 460 461 461 462 462 463 463 464 464 465 465 466 466 467 467 468 468 469 469 470 470 232 232 231 231 471 471 472 472 473 473 474 474 475 475 476 476 477 477 478 478 479 479 480 480 481 481 482 482 483 483 484 484 485 485 486 486 487 487 488 488 489 489 490 490 491 491 492 492 493 493 494 494 495 495 496 496 497 497 498 498 499 499 500 500 501 501 502 502 503 503 504 504 505 505 506 506 507 507 508 508 509 509 510 510 511 511 512 512 513 513 514 514 515 515 516 516 517 517 518 518 519 519 520 520 521 521 522 522 523 523 524 524 525 525 526 526 527 527 528 528 529 529 530 530 531 531 532 532 533 533 534 534 535 535 536 536 537 537 538 538 539 539 540 540 541 541 542 542 543 543 544 544 545 545 546 546 547 547 548 548 549 549 550 550 551 551 552 552 553 553 554 554 555 555 556 556 557 557 558 558 559 559 560 560 561 561 562 562 563 563 564 564 565 565 566 566 567 567 568 568 569 569 348 348 570 570 349 349 571 571 572 572 573 573 574 574 575 575 576 576 577 577 578 578 579 579 580 580 361 361 363 363 581 581 582 582 583 583 584 584 585 585 586 586 587 587 588 588 589 589 590 590 591 591 592 592 593 593 594 594 595 595 595 595 596 596 593 593 597 597 598 598 599 599 600 600 601 601 602 602 603 603 604 604 605 605 606 606 607 607 608 608 609 609 610 610 611 611 611 611 612 612 609 609 613 613 614 614 615 615 616 616 558 558 560 560 617 617 618 618 619 619 620 620 621 621 622 622 623 623 624 624 625 625 626 626 627 627 628 628 629 629 630 630 631 631 632 632 633 633 634 634 635 635 636 636 637 637 638 638 639 639 640 640 641 641 642 642 643 643 644 644 645 645 646 646 647 647 648 648 649 649 650 650 651 651 652 652 653 653 654 654 655 655 656 656 657 657 658 658 659 659 660 660 661 661 662 662 663 663 664 664 665 665 666 666 667 667 668 668 669 669 670 670 671 671 672 672 673 673 674 674 675 675 676 676 677 677 678 678 679 679 680 680 681 681 682 682 683 683 684 684 685 685 686 686 687 687 688 688 689 689 687 687 686 686 690 690 691 691 692 692 690 690 692 692 693 693 694 694 695 695 696 696 694 694 697 697 695 695 698 698 699 699 700 700 701 701 699 699 698 698 702 702 703 703 704 704 703 703 702 702 705 705 706 706 707 707 708 708 706 706 708 708 709 709 710 710 711 711 712 712 712 712 711 711 713 713 714 714 715 715 716 716 717 717 716 716 715 715 718 718 719 719 720 720 720 720 721 721 718 718 722 722 723 723 724 724 722 722 725 725 723 723 726 726 727 727 728 728 729 729 726 726 728 728 730 730 731 731 732 732 730 730 733 733 731 731 734 734 735 735 736 736 737 737 735 735 734 734 738 738 739 739 740 740 739 739 741 741 740 740 742 742 743 743 744 744 744 744 745 745 742 742 746 746 747 747 748 748 747 747 746 746 749 749 750 750 751 751 752 752 750 750 753 753 751 751 754 754 755 755 756 756 757 757 755 755 754 754 758 758 759 759 760 760 758 758 761 761 759 759 762 762 763 763 764 764 764 764 763 763 765 765 766 766 767 767 768 768 767 767 766 766 769 769 770 770 771 771 772 772 771 771 770 770 773 773 774 774 775 775 776 776 774 774 776 776 777 777 778 778 779 779 780 780 778 778 780 780 781 781 782 782 783 783 784 784 782 782 785 785 786 786 787 787 788 788 782 782 782 782 789 789 790 790 791 791 787 787 782 782 792 792 782 782 793 793 782 782 794 794 795 795 782 782 796 796 793 793 782 782 797 797 794 794 782 782 784 784 798 798 799 799 800 800 782 782 782 782 790 790 799 799 782 782 795 795 801 801 802 802 797 797 782 782 782 782 792 792 803 803 801 801 796 796 782 782 782 782 804 804 805 805 782 782 805 805 789 789 786 786 806 806 782 782 804 804 782 782 803 803 798 798 785 785 782 782 782 782 806 806 791 791 782 782 788 788 802 802 807 807 808 808 809 809 807 807 809 809 810 810 811 811 812 812 813 813 813 813 814 814 811 811 815 815 816 816 817 817 815 815 818 818 816 816 819 819 820 820 821 821 821 821 822 822 819 819 823 823 824 824 825 825 826 826 823 823 825 825 827 827 828 828 829 829 827 827 830 830 828 828 831 831 832 832 833 833 831 831 833 833 834 834 835 835 836 836 837 837 836 836 835 835 838 838 839 839 840 840 841 841 842 842 840 840 839 839 843 843 844 844 845 845 846 846 845 845 844 844 847 847 848 848 849 849 849 849 850 850 847 847 851 851 852 852 853 853 851 851 853 853 854 854 855 855 856 856 857 857 858 858 855 855 857 857 859 859 860 860 861 861 861 861 862 862 859 859 863 863 864 864 865 865 865 865 866 866 863 863 867 867 868 868 869 869 870 870 868 868 867 867 871 871 872 872 873 873 871 871 873 873 874 874 875 875 876 876 877 877 877 877 878 878 875 875 879 879 880 880 881 881 881 881 882 882 879 879 883 883 884 884 885 885 883 883 886 886 884 884 887 887 888 888 889 889 887 887 889 889 890 890 891 891 892 892 893 893 893 893 894 894 891 891 895 895 896 896 897 897 895 895 897 897 898 898 899 899 900 900 901 901 902 902 903 903 901 901 904 904 905 905 901 901 901 901 906 906 907 907 901 901 908 908 904 904 901 901 909 909 910 910 901 901 911 911 912 912 912 912 913 913 901 901 901 901 914 914 908 908 915 915 901 901 910 910 916 916 917 917 901 901 901 901 905 905 918 918 901 901 915 915 919 919 901 901 913 913 920 920 919 919 911 911 901 901 920 920 902 902 901 901 921 921 909 909 901 901 901 901 900 900 921 921 901 901 922 922 899 899 907 907 914 914 901 901 901 901 903 903 916 916 917 917 923 923 901 901 901 901 923 923 906 906 924 924 925 925 926 926 927 927 925 925 924 924 928 928 929 929 930 930 931 931 929 929 928 928 932 932 933 933 934 934 932 932 934 934 935 935 936 936 937 937 938 938 939 939 937 937 936 936 940 940 941 941 942 942 942 942 941 941 943 943 944 944 945 945 946 946 946 946 945 945 947 947 948 948 949 949 950 950 950 950 951 951 948 948 952 952 953 953 954 954 952 952 955 955 953 953 956 956 957 957 958 958 956 956 959 959 957 957 960 960 961 961 962 962 962 962 961 961 963 963 964 964 965 965 966 966 965 965 964 964 967 967 968 968 969 969 970 970 969 969 971 971 970 970 972 972 973 973 974 974 973 973 975 975 974 974 976 976 977 977 978 978 979 979 976 976 978 978 980 980 981 981 982 982 982 982 983 983 980 980 984 984 985 985 986 986 984 984 986 986 987 987 988 988 989 989 990 990 988 988 991 991 989 989 992 992 993 993 994 994 994 994 995 995 992 992 996 996 997 997 998 998 998 998 999 999 996 996</p>
        </triangles>
      </mesh>
    </geometry>
  </library_geometries>
  <library_materials>
    <material id="bd5a125d1ebf45d988862eb7f2bb9d16" name="defaultmaterial">
      <instance_effect url="#f28a2f7e51c84140a85207ee5ac66b43"/>
    </material>
  </library_materials>
  <library_visual_scenes>
    <visual_scene id="scene">
      <node id="node0" name="node0">
        <instance_geometry url="#84e5524856b1424da98ef07e50fb0ab5">
          <bind_material>
            <technique_common>
              <instance_material symbol="material0" target="#bd5a125d1ebf45d988862eb7f2bb9d16"/>
            </technique_common>
          </bind_material>
        </instance_geometry>
      </node>
    </visual_scene>
  </library_visual_scenes>
  <scene>
    <instance_visual_scene url="#scene"/>
  </scene>
</COLLADA>
