<COLLADA xmlns="http://www.collada.org/2005/11/COLLADASchema" version="1.4.1">
  <asset>
    <created>2026-09-03T15:32:12.429213</created>
    <modified>2026-09-03T15:32:12.429214</modified>
    <up_axis>Y_UP</up_axis>
  </asset>
  <library_effects>
    <effect id="69a18aace50746af9e47414f86e7decf" name="69a18aace50746af9e47414f86e7decf">
      <profile_COMMON>
        <technique sid="common">
          <phong>
            <emission>
              <color>0.0 0.0 0.0 1.0</color>
            </emission>
            <ambient>
              <color>0.0 0.0 0.0 1.0</color>
            </ambient>
            <diffuse>
              <color>0.0 0.0 0.0 1.0</color>
            </diffuse>
            <specular>
              <color>0.0 0.0 0.0 1.0</color>
            </specular>
            <shininess>
              <float>0.0</float>
            </shininess>
            <reflective>
              <color>0.0 0.0 0.0 1.0</color>
            </reflective>
            <reflectivity>
              <float>0.0</float>
            </reflectivity>
            <transparent>
              <color>0.0 0.0 0.0 1.0</color>
            </transparent>
            <transparency>
              <float>1.0</float>
            </transparency>
          </phong>
        </technique>
        <extra>
          <technique profile="GOOGLEEARTH">
            <double_sided>0</double_sided>
          </technique>
        </extra>
      </profile_COMMON>
    </effect>
  </library_effects>
  <library_geometries>
    <geometry id="f5e1946d561340abbcbe2653b147c177" name="c38d0e5eadec487d93f0e418801e1f3a">
      <mesh>
        <source id="verts-array">
          <float_array count="2274" id="verts-array-array">-0.007 -0.0139031 0.0445149 -0.0075 -0.0179899 0.0115139 -0.007 -0.0189031 0.0445146 0.0075 0.00446019 0.00225979 0.007 0.005563 0.00224789 0.007 -0.0139031 0.0445149 0.007 -0.0189031 0.0445146 0.0075 -0.0176284 0.0115072 0.007 -0.0139031 0.0445149 0.0075 -0.0228696 0.00707757 0.007 -0.0189031 0.0445146 0.007 -0.0239018 0.0135144 -0.0075 -0.0205747 0.00228931 -0.007 -0.0206251 0.00116853 -0.007 -0.0212564 0.00154031 -0.007 -0.00205187 -0.00563825 -0.0075 -0.0195282 0.00178671 -0.0075 -0.00162673 -0.00472797 -0.007 -0.0199533 0.00087644 0.0075 -0.0164844 0.0113097 0.0075 -0.0159373 0.0111128 0.007 -0.0139031 0.0445149 0.0075 0.00196414 0.00459806 0.0075 -0.0164844 0.0113097 0.007 -0.0139031 0.0445149 0.0075 -0.0170506 0.0114418 0.0075 -0.0176284 0.0115072 -0.007 -0.00145127 -0.00582184 -0.007 -0.00205187 -0.00563825 -0.0075 -0.00162673 -0.00472797 0.007 -0.00205187 -0.00563825 0.0075 -0.0198656 0.00191663 0.007 -0.0199533 0.00087644 0.0075 -0.0229014 0.00649699 0.0075 -0.0228696 0.00707757 0.007 -0.0239018 0.0135144 -0.007 -0.0239014 0.00651442 -0.007 -0.0239018 0.0135144 -0.0075 -0.0228973 0.00671708 -0.007 0.00598537 0.000418805 -0.0075 0.00498562 0.000378963 -0.007 0.0059088 0.00104215 -0.0075 0.00476383 0.00151851 -0.007 0.005563 0.00224789 -0.007 0.0057675 0.00165408 -0.007 0.005563 0.00224789 -0.0075 0.00455534 0.00206129 -0.007 -0.0139031 0.0445149 -0.0075 0.00476383 0.00151851 -0.0075 0.00455534 0.00206129 -0.007 0.005563 0.00224789 -0.0075 0.00162673 0.00472797 -0.0075 -0.0162747 0.0112427 -0.007 -0.0139031 0.0445149 -0.0075 -0.0211826 0.0102875 -0.0075 -0.0215984 0.00988103 -0.007 -0.0189031 0.0445146 -0.0075 -0.0185696 0.0114698 -0.0075 -0.0207224 0.0106429 -0.0075 -0.0211826 0.0102875 -0.007 -0.0189031 0.0445146 -0.007 -0.00145127 -0.00582184 -0.0075 -0.00106685 -0.00488486 -0.007 -0.000834774 -0.00594165 -0.007 -0.00145127 -0.00582184 -0.0075 -0.00162673 -0.00472797 -0.0075 -0.00106685 -0.00488486 -0.0075 -0.0210471 0.00262822 -0.0075 -0.0205747 0.00228931 -0.007 -0.0212564 0.00154031 -0.007 -0.0218376 0.00198625 -0.0075 -0.0210471 0.00262822 -0.007 -0.0212564 0.00154031 -0.007 -0.0206251 0.00116853 -0.0075 -0.020066 0.00200753 -0.007 -0.0199533 0.00087644 -0.0075 -0.020066 0.00200753 -0.0075 -0.0195282 0.00178671 -0.007 -0.0199533 0.00087644 -0.007 -0.0206251 0.00116853 -0.0075 -0.0205747 0.00228931 -0.0075 -0.020066 0.00200753 0.0075 0.00341832 0.00364899 0.0075 0.00381882 0.00322747 0.007 -0.0139031 0.0445149 0.0075 0.00196414 0.00459806 0.0075 0.00248466 0.00433895 0.007 -0.0139031 0.0445149 0.007 -0.0189031 0.0445146 0.0075 -0.0204167 0.0108359 0.0075 -0.0198981 0.0110987 0.0075 -0.0193524 0.0112995 0.0075 -0.0182098 0.0115052 0.007 -0.00145127 -0.00582184 0.0075 -0.00141706 -0.00479499 0.007 -0.00205187 -0.00563825 0.0075 -0.0198656 0.00191663 0.007 -0.0206251 0.00116853 0.007 -0.0199533 0.00087644 0.007 0.0057675 0.00165408 0.0075 0.00486111 0.00117029 0.007 0.0059088 0.00104215 0.0075 -0.0229014 0.00649699 0.007 -0.0239018 0.0135144 0.007 -0.0239014 0.00651442 0.0075 -0.0225938 0.00478797 0.0075 -0.0227626 0.0053444 0.007 -0.0237231 0.0050629 -0.007 0.00599635 -0.00020913 -0.0075 0.0049959 -0.000202394 -0.007 0.00598537 0.000418805 -0.0075 0.00498562 0.000378963 -0.007 0.00594165 -0.000834774 -0.0075 0.0049959 -0.000202394 -0.007 0.00599635 -0.00020913 -0.0075 0.00498562 0.000378963 -0.0075 0.00490791 0.000955196 -0.007 0.0059088 0.00104215 -0.007 0.0059088 0.00104215 -0.0075 0.00490791 0.000955196 -0.007 0.0057675 0.00165408 -0.007 0.0057675 0.00165408 -0.0075 0.00490791 0.000955196 -0.0075 0.00476383 0.00151851 -0.0075 0.00455534 0.00206129 -0.0075 0.00428523 0.0025762 -0.007 -0.0139031 0.0445149 -0.0075 -0.0174089 0.0114904 -0.0075 0.00357561 0.003495 -0.0075 0.00314569 0.00388647 -0.007 -0.0139031 0.0445149 -0.0075 0.00314569 0.00388647 -0.0075 0.00267323 0.00422538 -0.007 -0.0139031 0.0445149 -0.0075 0.00216462 0.00450715 -0.0075 0.00216462 0.00450715 -0.0075 -0.0222751 0.00893771 -0.0075 -0.0225268 0.00841357 -0.007 -0.0189031 0.0445146 -0.0075 -0.0225268 0.00841357 -0.0075 -0.022716 0.00786376 -0.007 -0.0189031 0.0445146 -0.007 -0.0189031 0.0445146 -0.0075 -0.0228401 0.0072957 -0.007 -0.0239018 0.0135144 -0.0075 -0.022716 0.00786376 -0.0075 -0.0228401 0.0072957 -0.007 -0.0189031 0.0445146 -0.007 -0.0239018 0.0135144 -0.0075 -0.0228401 0.0072957 -0.0075 -0.0228973 0.00671708 -0.0075 -0.0219642 0.00942908 -0.0075 -0.0222751 0.00893771 -0.007 -0.0189031 0.0445146 -0.0075 -0.0219642 0.00942908 -0.0075 -0.0196944 0.0111822 -0.0075 -0.0191404 0.0113588 -0.0075 -0.0196944 0.0111822 -0.0075 -0.0202241 0.0109425 -0.0075 -0.00106685 -0.00488486 -0.0075 -0.000492538 -0.00497568 -0.007 -0.000834774 -0.00594165 -0.007 -0.0223601 0.00249971 -0.0075 -0.0214771 0.00301969 -0.007 -0.0218376 0.00198625 -0.0075 -0.0214771 0.00301969 -0.0075 -0.0210471 0.00262822 -0.007 -0.0218376 0.00198625 0.0075 0.00416769 0.00276231 0.0075 0.00446019 0.00225979 0.007 -0.0139031 0.0445149 0.0075 0.00381882 0.00322747 0.0075 0.00416769 0.00276231 0.007 -0.0139031 0.0445149 0.0075 0.00297158 0.00402116 0.0075 0.00297158 0.00402116 0.0075 -0.0193524 0.0112995 0.0075 -0.0187871 0.0114356 0.0075 -0.00196414 -0.00459806 0.0075 -0.00141706 -0.00479499 0.007 -0.000834774 -0.00594165 0.0075 -0.000850809 -0.00492708 0.007 -0.00145127 -0.00582184 0.0075 -0.000850809 -0.00492708 0.0075 -0.00141706 -0.00479499 0.007 -0.00145127 -0.00582184 0.0075 0.00486111 0.00117029 0.0075 0.00496411 0.000598037 0.007 0.0059088 0.00104215 0.007 0.005563 0.00224789 0.0075 0.00469238 0.00172672 0.007 0.0057675 0.00165408 0.0075 0.00469238 0.00172672 0.0075 0.00486111 0.00117029 0.007 0.0057675 0.00165408 0.007 0.005563 0.00224789 0.0075 0.00446019 0.00225979 0.0075 0.00469238 0.00172672 0.0075 -0.0209014 0.0105147 0.0075 -0.0213455 0.0101394 0.0075 -0.0220886 0.00924743 0.0075 -0.021743 0.00971505 0.007 -0.0189031 0.0445146 0.0075 -0.0213455 0.0101394 0.0075 -0.0228696 0.00707757 0.0075 -0.0227707 0.00765054 0.007 -0.0189031 0.0445146 0.0075 -0.0227707 0.00765054 0.0075 -0.0226059 0.00820815 0.007 -0.0189031 0.0445146 0.0075 -0.0223775 0.00874286 0.0075 -0.0220886 0.00924743 0.007 -0.0189031 0.0445146 0.0075 -0.0226059 0.00820815 0.0075 -0.0223775 0.00874286 0.007 -0.0189031 0.0445146 0.0075 -0.0225938 0.00478797 0.007 -0.0237231 0.0050629 0.007 -0.0235028 0.00436423 -0.007 -0.023199 0.00369762 -0.007 -0.0235028 0.00436423 -0.0075 -0.0224568 0.0044534 0.0075 -0.0228655 0.00591665 0.007 -0.0238567 0.00578321 0.0075 -0.0227626 0.0053444 0.007 -0.0237231 0.0050629 0.0075 -0.0229014 0.00649699 0.007 -0.0238567 0.00578321 0.0075 -0.0228655 0.00591665 0.007 -0.0239014 0.00651442 -0.0075 0.00493862 -0.000781014 -0.0075 0.0049959 -0.000202394 -0.007 0.00594165 -0.000834774 -0.0075 0.00395718 0.00305626 -0.0075 0.00357561 0.003495 -0.007 -0.0139031 0.0445149 -0.0075 0.00428523 0.0025762 -0.0075 0.00395718 0.00305626 -0.007 -0.0139031 0.0445149 -0.0075 -0.0162747 0.0112427 -0.0075 -0.0168346 0.0113995 -0.007 -0.0139031 0.0445149 -0.0075 -0.0174089 0.0114904 -0.0075 0.00123895 -0.00484407 -0.0075 0.00179293 -0.00466748 -0.007 0.00165408 -0.0057675 -0.007 0.000418805 -0.00598537 -0.007 -0.00020913 -0.00599635 -0.0075 8.84342e-05 -0.00499922 -0.0075 8.84342e-05 -0.00499922 -0.007 -0.00020913 -0.00599635 -0.0075 -0.000492538 -0.00497568 -0.0075 -0.000492538 -0.00497568 -0.007 -0.00020913 -0.00599635 -0.007 -0.000834774 -0.00594165 -0.007 0.000418805 -0.00598537 -0.0075 8.84342e-05 -0.00499922 -0.0075 0.00066821 -0.00495515 -0.007 -0.0228162 0.00307301 -0.0075 -0.0218586 0.00345843 -0.007 -0.0223601 0.00249971 -0.0075 -0.0218586 0.00345843 -0.0075 -0.0214771 0.00301969 -0.007 -0.0223601 0.00249971 0.007 -0.0212564 0.00154031 0.0075 -0.020873 0.00249353 0.007 -0.0218376 0.00198625 0.0075 -0.020873 0.00249353 0.0075 -0.0213197 0.0028657 0.007 -0.0218376 0.00198625 0.0075 0.00499997 1.76953e-05 0.007 0.00598537 0.000418805 0.0075 0.00496411 0.000598037 0.007 0.00599635 -0.00020913 0.007 0.00598537 0.000418805 0.0075 0.00499997 1.76953e-05 0.0075 0.00496411 0.000598037 0.007 0.00598537 0.000418805 0.007 0.0059088 0.00104215 0.007 0.00539288 -0.00262999 0.0075 0.00470449 -0.00169346 0.0075 0.00447608 -0.00222817 0.007 0.00563825 -0.00205187 0.0075 0.00470449 -0.00169346 0.007 0.00539288 -0.00262999 0.007 0.00582184 -0.00145127 0.0075 0.00470449 -0.00169346 0.007 0.00563825 -0.00205187 0.0075 0.00486928 -0.00113585 0.007 0.00599635 -0.00020913 0.0075 0.00499997 1.76953e-05 0.0075 0.00496821 -0.000562885 -0.0075 0.00066821 -0.00495515 -0.007 0.00104215 -0.0059088 -0.007 0.000418805 -0.00598537 -0.0075 0.00123895 -0.00484407 -0.007 0.00104215 -0.0059088 -0.0075 0.00066821 -0.00495515 -0.0075 0.00123895 -0.00484407 -0.007 0.00165408 -0.0057675 -0.007 0.00104215 -0.0059088 0.0075 -0.0213197 0.0028657 0.007 -0.0223601 0.00249971 0.007 -0.0218376 0.00198625 0.007 -0.0228162 0.00307301 0.0075 -0.0220691 0.00375237 0.007 -0.023199 0.00369762 -0.007 -0.0239014 0.00651442 -0.0075 -0.0228973 0.00671708 -0.0075 -0.0228871 0.00613572 -0.007 -0.0237231 0.0050629 -0.0075 -0.0226653 0.00499618 -0.007 -0.0235028 0.00436423 -0.0075 -0.0228093 0.00555949 -0.0075 -0.0226653 0.00499618 -0.007 -0.0237231 0.0050629 -0.007 -0.0235028 0.00436423 -0.0075 -0.0226653 0.00499618 -0.0075 -0.0224568 0.0044534 -0.0075 -0.0228871 0.00613572 -0.007 -0.0238567 0.00578321 -0.007 -0.0239014 0.00651442 -0.0075 -0.0228093 0.00555949 -0.007 -0.0238567 0.00578321 -0.0075 -0.0228871 0.00613572 -0.0075 -0.0228093 0.00555949 -0.007 -0.0237231 0.0050629 -0.007 -0.0238567 0.00578321 -0.0075 0.00232267 -0.00442777 -0.007 0.00224789 -0.005563 -0.0075 0.00179293 -0.00466748 -0.0075 0.00179293 -0.00466748 -0.007 0.00224789 -0.005563 -0.007 0.00165408 -0.0057675 -0.007 0.00335538 -0.00497408 -0.0075 0.00232267 -0.00442777 -0.0075 0.002821 -0.00412819 -0.0075 0.002821 -0.00412819 -0.0075 0.00328118 -0.00377278 -0.007 0.00385693 -0.0045961 -0.007 0.00335538 -0.00497408 -0.0075 0.002821 -0.00412819 -0.007 0.00385693 -0.0045961 -0.007 0.00472823 -0.00369376 -0.0075 0.00369699 -0.00336635 -0.0075 0.0040628 -0.00291439 -0.007 0.00472823 -0.00369376 -0.007 0.00431622 -0.00416776 -0.0075 0.00369699 -0.00336635 -0.0075 0.00369699 -0.00336635 -0.007 0.00431622 -0.00416776 -0.0075 0.00328118 -0.00377278 -0.0075 0.00328118 -0.00377278 -0.007 0.00431622 -0.00416776 -0.007 0.00385693 -0.0045961 -0.0075 0.00462539 -0.00189889 -0.007 0.00539288 -0.00262999 -0.0075 0.00437367 -0.00242302 -0.007 -0.0228162 0.00307301 -0.007 -0.023199 0.00369762 -0.0075 -0.0221867 0.00393849 -0.0075 -0.0218586 0.00345843 -0.007 -0.0228162 0.00307301 -0.0075 -0.0221867 0.00393849 -0.0075 -0.0224568 0.0044534 -0.0075 -0.0221867 0.00393849 -0.007 -0.023199 0.00369762 0.0075 -0.000273057 -0.00499254 0.0075 -0.000850809 -0.00492708 0.007 -0.000834774 -0.00594165 0.0075 0.000308388 -0.00499048 0.007 0.000418805 -0.00598537 0.0075 0.000885662 -0.00492094 0.007 -0.0206251 0.00116853 0.0075 -0.0203861 0.00217574 0.007 -0.0212564 0.00154031 0.0075 -0.0203861 0.00217574 0.0075 -0.020873 0.00249353 0.007 -0.0212564 0.00154031 0.007 -0.0206251 0.00116853 0.0075 -0.0198656 0.00191663 0.0075 -0.0203861 0.00217574 0.0075 0.00496821 -0.000562885 0.007 0.00594165 -0.000834774 0.007 0.00599635 -0.00020913 0.0075 0.00486928 -0.00113585 0.007 0.00594165 -0.000834774 0.0075 0.00496821 -0.000562885 0.0075 0.00486928 -0.00113585 0.007 0.00582184 -0.00145127 0.007 0.00594165 -0.000834774 0.007 0.00508843 -0.00317929 0.007 0.00539288 -0.00262999 0.0075 0.00447608 -0.00222817 0.007 0.00335538 -0.00497408 0.007 0.00385693 -0.0045961 0.0075 0.00299997 -0.00400002 0.007 0.00165408 -0.0057675 0.0075 0.00145096 -0.00478484 0.0075 0.000885662 -0.00492094 0.0075 -0.0220691 0.00375237 0.0075 -0.0223616 0.00425489 0.007 -0.023199 0.00369762 0.007 -0.023199 0.00369762 0.0075 -0.0223616 0.00425489 0.007 -0.0235028 0.00436423 0.007 -0.0235028 0.00436423 0.0075 -0.0223616 0.00425489 0.0075 -0.0225938 0.00478797 0.007 -0.0223601 0.00249971 0.0075 -0.0217203 0.00328721 0.007 -0.0228162 0.00307301 0.0075 -0.0217203 0.00328721 0.0075 -0.0220691 0.00375237 0.007 -0.0228162 0.00307301 0.007 -0.0223601 0.00249971 0.0075 -0.0213197 0.0028657 0.0075 -0.0217203 0.00328721 -0.007 0.00539288 -0.00262999 -0.007 0.00508843 -0.00317929 -0.0075 0.00437367 -0.00242302 -0.0075 0.00437367 -0.00242302 -0.007 0.00508843 -0.00317929 -0.0075 0.0040628 -0.00291439 -0.0075 0.0040628 -0.00291439 -0.007 0.00508843 -0.00317929 -0.007 0.00472823 -0.00369376 -0.0075 0.00481456 -0.00134907 -0.007 0.00563825 -0.00205187 -0.0075 0.00462539 -0.00189889 -0.007 0.00563825 -0.00205187 -0.007 0.00539288 -0.00262999 -0.0075 0.00462539 -0.00189889 0.007 0.00165408 -0.0057675 0.0075 0.000885662 -0.00492094 0.007 0.00104215 -0.0059088 0.007 0.00104215 -0.0059088 0.0075 -0.000273057 -0.00499254 0.007 -0.00020913 -0.00599635 0.0075 0.000308388 -0.00499048 0.007 -0.00020913 -0.00599635 0.007 0.000418805 -0.00598537 0.0075 0.000308388 -0.00499048 0.0075 -0.000273057 -0.00499254 0.007 -0.000834774 -0.00594165 0.007 -0.00020913 -0.00599635 0.007 0.00508843 -0.00317929 0.0075 0.00447608 -0.00222817 0.0075 0.00418714 -0.00273274 0.007 0.00508843 -0.00317929 0.0075 0.00418714 -0.00273274 0.007 0.00472823 -0.00369376 0.0075 0.00418714 -0.00273274 0.0075 0.00384157 -0.00320036 0.007 0.00472823 -0.00369376 0.007 0.00385693 -0.0045961 0.0075 0.00344406 -0.0036247 0.0075 0.00299997 -0.00400002 0.0075 0.00199663 -0.00458404 0.007 0.00224789 -0.005563 0.007 0.00281707 -0.00529756 0.0075 0.00145096 -0.00478484 0.007 0.00224789 -0.005563 0.0075 0.00199663 -0.00458404 0.0075 0.00145096 -0.00478484 0.007 0.00165408 -0.0057675 0.007 0.00224789 -0.005563 0.007 0.00281707 -0.00529756 0.0075 0.00251531 -0.00432125 0.0075 0.00199663 -0.00458404 0.0075 0.00299997 -0.00400002 0.0075 0.00251531 -0.00432125 0.007 0.00335538 -0.00497408 0.007 0.00281707 -0.00529756 0.007 0.00335538 -0.00497408 0.0075 0.00251531 -0.00432125 -0.007 0.00281707 -0.00529756 -0.007 0.00281707 -0.00529756 -0.007 0.00224789 -0.005563 -0.0075 0.00232267 -0.00442777 -0.007 0.00582184 -0.00145127 -0.007 0.00563825 -0.00205187 -0.0075 0.00481456 -0.00134907 -0.0075 0.00493862 -0.000781014 -0.007 0.00582184 -0.00145127 -0.0075 0.00481456 -0.00134907 -0.0075 0.00493862 -0.000781014 -0.007 0.00594165 -0.000834774 -0.007 0.00582184 -0.00145127 0.0075 0.00344406 -0.0036247 0.007 0.00431622 -0.00416776 0.0075 0.00384157 -0.00320036 0.0075 0.00384157 -0.00320036 0.007 0.00431622 -0.00416776 0.007 0.00472823 -0.00369376 0.0075 0.00344406 -0.0036247 0.007 0.00385693 -0.0045961 0.007 0.00431622 -0.00416776 -0.007 -0.0189031 0.0445146 0.007 -0.0189031 0.0445146 -0.007 -0.0139031 0.0445149 0.007 -0.0139031 0.0445149 -0.007 -0.0239018 0.0135144 0.007 -0.0189031 0.0445146 -0.007 -0.0189031 0.0445146 0.007 -0.0239018 0.0135144 -0.007 0.005563 0.00224789 -0.007 -0.0139031 0.0445149 0.007 -0.0139031 0.0445149 0.007 0.005563 0.00224789 0.007 -0.000834774 -0.00594165 0.007 -0.00145127 -0.00582184 -0.007 -0.00145127 -0.00582184 -0.007 -0.000834774 -0.00594165 0.007 -0.00205187 -0.00563825 -0.007 -0.00145127 -0.00582184 0.007 -0.00145127 -0.00582184 -0.007 -0.00205187 -0.00563825 -0.007 -0.00205187 -0.00563825 0.007 -0.00205187 -0.00563825 -0.007 -0.0199533 0.00087644 0.007 -0.0199533 0.00087644 0.007 0.0057675 0.00165408 0.007 0.0059088 0.00104215 -0.007 0.0057675 0.00165408 -0.007 0.0059088 0.00104215 -0.007 0.005563 0.00224789 0.007 0.005563 0.00224789 -0.007 0.0057675 0.00165408 0.007 0.0057675 0.00165408 0.007 -0.0199533 0.00087644 0.007 -0.0206251 0.00116853 -0.007 -0.0199533 0.00087644 -0.007 -0.0206251 0.00116853 -0.007 -0.0239018 0.0135144 0.007 -0.0239014 0.00651442 0.007 -0.0239018 0.0135144 -0.007 -0.0239014 0.00651442 -0.007 -0.0218376 0.00198625 0.007 -0.0212564 0.00154031 0.007 -0.0218376 0.00198625 -0.007 -0.0212564 0.00154031 0.007 -0.0206251 0.00116853 0.007 -0.0212564 0.00154031 -0.007 -0.0206251 0.00116853 -0.007 -0.0212564 0.00154031 -0.007 -0.023199 0.00369762 0.007 -0.0228162 0.00307301 0.007 -0.023199 0.00369762 -0.007 -0.0228162 0.00307301 0.007 -0.023199 0.00369762 -0.007 -0.0235028 0.00436423 -0.007 -0.023199 0.00369762 0.007 -0.0235028 0.00436423 -0.007 -0.0237231 0.0050629 -0.007 -0.0235028 0.00436423 0.007 -0.0237231 0.0050629 0.007 -0.0235028 0.00436423 0.007 0.00598537 0.000418805 -0.007 0.0059088 0.00104215 0.007 0.0059088 0.00104215 -0.007 0.00598537 0.000418805 -0.007 0.00598537 0.000418805 0.007 0.00598537 0.000418805 -0.007 0.00599635 -0.00020913 0.007 0.00599635 -0.00020913 0.007 -0.0223601 0.00249971 -0.007 -0.0218376 0.00198625 0.007 -0.0218376 0.00198625 -0.007 -0.0223601 0.00249971 0.007 -0.0223601 0.00249971 0.007 -0.0228162 0.00307301 -0.007 -0.0228162 0.00307301 -0.007 -0.0223601 0.00249971 -0.007 -0.0238567 0.00578321 0.007 -0.0239014 0.00651442 -0.007 -0.0239014 0.00651442 0.007 -0.0238567 0.00578321 -0.007 -0.0237231 0.0050629 0.007 -0.0237231 0.0050629 -0.007 -0.0238567 0.00578321 0.007 -0.0238567 0.00578321 -0.0075 0.0049959 -0.000202394 -0.0075 -0.0221867 0.00393849 -0.0075 0.00498562 0.000378963 -0.0075 -0.0219642 0.00942908 -0.0075 -0.0215984 0.00988103 -0.0075 0.00216462 0.00450715 -0.0075 0.00267323 0.00422538 -0.0075 0.002821 -0.00412819 -0.0075 0.00328118 -0.00377278 -0.0075 -0.0162747 0.0112427 -0.0075 0.00162673 0.00472797 -0.0075 -0.000492538 -0.00497568 -0.0075 -0.00106685 -0.00488486 -0.0075 0.00066821 -0.00495515 -0.0075 0.00123895 -0.00484407 -0.0075 0.00462539 -0.00189889 -0.0075 0.00437367 -0.00242302 -0.0075 0.00455534 0.00206129 -0.0075 0.00476383 0.00151851 -0.0075 0.00314569 0.00388647 -0.0075 -0.0228401 0.0072957 -0.0075 -0.022716 0.00786376 -0.0075 -0.0185696 0.0114698 -0.0075 -0.0191404 0.0113588 -0.0075 -0.0202241 0.0109425 -0.0075 -0.0207224 0.0106429 -0.0075 -0.0214771 0.00301969 -0.0075 -0.0210471 0.00262822 -0.0075 -0.0195282 0.00178671 -0.0075 -0.00162673 -0.00472797 -0.0075 -0.020066 0.00200753 -0.0075 0.00490791 0.000955196 -0.0075 0.00428523 0.0025762 -0.0075 0.00395718 0.00305626 -0.0075 -0.0225268 0.00841357 -0.0075 -0.0211826 0.0102875 -0.0075 -0.0179899 0.0115139 -0.0075 0.00179293 -0.00466748 -0.0075 -0.0205747 0.00228931 -0.0075 -0.0228871 0.00613572 -0.0075 -0.0228093 0.00555949 -0.0075 0.00493862 -0.000781014 -0.0075 -0.0174089 0.0114904 -0.0075 0.00357561 0.003495 -0.0075 -0.0222751 0.00893771 -0.0075 -0.0228973 0.00671708 -0.0075 -0.0196944 0.0111822 -0.0075 8.84342e-05 -0.00499922 -0.0075 -0.0168346 0.0113995 -0.0075 0.00481456 -0.00134907 -0.0075 0.00369699 -0.00336635 -0.0075 -0.0218586 0.00345843 -0.0075 0.00232267 -0.00442777 -0.0075 -0.0226653 0.00499618 -0.0075 0.0040628 -0.00291439 -0.0075 -0.0224568 0.0044534 0.007 0.00599635 -0.00020913 0.007 0.00594165 -0.000834774 -0.007 0.00599635 -0.00020913 -0.007 0.00594165 -0.000834774 0.007 0.00385693 -0.0045961 -0.007 0.00335538 -0.00497408 -0.007 0.00385693 -0.0045961 0.007 0.00335538 -0.00497408 0.007 0.00508843 -0.00317929 0.007 0.00472823 -0.00369376 -0.007 0.00508843 -0.00317929 -0.007 0.00472823 -0.00369376 -0.007 0.00539288 -0.00262999 0.007 0.00539288 -0.00262999 -0.007 0.00508843 -0.00317929 0.007 0.00508843 -0.00317929 -0.007 0.00539288 -0.00262999 -0.007 0.00563825 -0.00205187 0.007 0.00539288 -0.00262999 0.007 0.00563825 -0.00205187 -0.007 0.00104215 -0.0059088 -0.007 0.00165408 -0.0057675 0.007 0.00104215 -0.0059088 0.007 0.00165408 -0.0057675 -0.007 0.00104215 -0.0059088 0.007 0.00104215 -0.0059088 -0.007 0.000418805 -0.00598537 0.007 0.000418805 -0.00598537 -0.007 -0.000834774 -0.00594165 0.007 -0.00020913 -0.00599635 0.007 -0.000834774 -0.00594165 -0.007 -0.00020913 -0.00599635 0.007 0.000418805 -0.00598537 0.007 -0.00020913 -0.00599635 -0.007 0.000418805 -0.00598537 -0.007 -0.00020913 -0.00599635 -0.007 0.00165408 -0.0057675 0.007 0.00224789 -0.005563 0.007 0.00165408 -0.0057675 -0.007 0.00224789 -0.005563 0.0075 -0.0198981 0.0110987 0.0075 0.00251531 -0.00432125 0.0075 -0.0193524 0.0112995 0.0075 -0.0159373 0.0111128 0.0075 0.00196414 0.00459806 0.0075 0.00381882 0.00322747 0.0075 0.00341832 0.00364899 0.0075 0.00470449 -0.00169346 0.0075 0.00486928 -0.00113585 0.0075 0.00469238 0.00172672 0.0075 0.00486111 0.00117029 0.0075 -0.0176284 0.0115072 0.0075 -0.0170506 0.0114418 0.0075 -0.0209014 0.0105147 0.0075 -0.0213455 0.0101394 0.0075 -0.0229014 0.00649699 0.0075 -0.0228696 0.00707757 0.0075 -0.0227626 0.0053444 0.0075 -0.0225938 0.00478797 0.0075 -0.0164844 0.0113097 0.0075 0.00416769 0.00276231 0.0075 0.00297158 0.00402116 0.0075 0.00248466 0.00433895 0.0075 -0.0187871 0.0114356 0.0075 -0.0182098 0.0115052 0.0075 -0.0228655 0.00591665 0.0075 -0.000850809 -0.00492708 0.0075 -0.00141706 -0.00479499 0.0075 -0.0227707 0.00765054 0.0075 -0.0226059 0.00820815 0.0075 0.00344406 -0.0036247 0.0075 0.00384157 -0.00320036 0.0075 -0.0204167 0.0108359 0.0075 -0.00196414 -0.00459806 0.0075 0.00496411 0.000598037 0.0075 -0.0203861 0.00217574 0.0075 -0.020873 0.00249353 0.0075 -0.021743 0.00971505 0.0075 -0.0223616 0.00425489 0.0075 -0.0220691 0.00375237 0.0075 0.00446019 0.00225979 0.0075 -0.0198656 0.00191663 0.0075 -0.0223775 0.00874286 0.0075 0.00499997 1.76953e-05 0.0075 -0.0213197 0.0028657 0.0075 0.00496821 -0.000562885 0.0075 -0.0220886 0.00924743 0.0075 0.000308388 -0.00499048 0.0075 0.000885662 -0.00492094 0.0075 -0.000273057 -0.00499254 0.0075 0.00447608 -0.00222817 0.0075 0.00418714 -0.00273274 0.0075 0.00145096 -0.00478484 0.0075 0.00199663 -0.00458404 0.0075 -0.0217203 0.00328721 0.0075 0.00299997 -0.00400002 -0.007 0.00281707 -0.00529756 -0.007 0.00335538 -0.00497408 0.007 0.00335538 -0.00497408 0.007 0.00281707 -0.00529756 -0.007 0.00224789 -0.005563 -0.007 0.00281707 -0.00529756 0.007 0.00224789 -0.005563 0.007 0.00281707 -0.00529756 0.007 0.00594165 -0.000834774 -0.007 0.00582184 -0.00145127 -0.007 0.00594165 -0.000834774 0.007 0.00582184 -0.00145127 -0.007 0.00563825 -0.00205187 -0.007 0.00582184 -0.00145127 0.007 0.00563825 -0.00205187 0.007 0.00582184 -0.00145127 0.007 0.00472823 -0.00369376 0.007 0.00431622 -0.00416776 -0.007 0.00472823 -0.00369376 -0.007 0.00431622 -0.00416776 -0.007 0.00385693 -0.0045961 0.007 0.00431622 -0.00416776 0.007 0.00385693 -0.0045961 -0.007 0.00431622 -0.00416776</float_array>
          <technique_common>
            <accessor count="758" source="#verts-array-array" stride="3">
              <param type="float" name="X"/>
              <param type="float" name="Y"/>
              <param type="float" name="Z"/>
            </accessor>
          </technique_common>
        </source>
        <source id="normals-array">
          <float_array count="2274" id="normals-array-array">-0.9998853 6.359125e-06 0.01514853 -0.999886 -0.0002931046 0.0150991 -0.9998853 -9.539656e-05 0.01514816 0.8938355 0.4072775 0.1875719 0.8938355 0.4072775 0.1875719 0.8938355 0.4072775 0.1875719 0.9998853 -6.064926e-05 0.0151454 0.9998853 -4.751137e-05 0.01514455 0.9998853 -9.12904e-07 0.01514635 0.9713526 -0.2346124 0.03783064 0.9713526 -0.2346124 0.03783064 0.9713526 -0.2346124 0.03783064 -0.8928597 -0.2285239 -0.3880443 -0.8928597 -0.2285239 -0.3880443 -0.8928597 -0.2285239 -0.3880443 -0.8945675 -0.152841 -0.4199865 -0.8945637 -0.152844 -0.4199934 -0.8945676 -0.1528409 -0.4199863 -0.8945636 -0.1528441 -0.4199937 0.9998788 0.005271174 0.01464629 0.9998787 0.005305256 0.01464421 0.9998786 0.005326718 0.0146429 0.9998786 0.005328837 0.01464277 0.9998847 0.003450172 0.01478794 0.9998861 0.00256633 0.01487207 0.9998861 0.002612494 0.01486768 0.9998867 0.001692752 0.01495522 -0.8934906 -0.1312779 -0.4294655 -0.8934906 -0.1312779 -0.4294655 -0.8934906 -0.1312779 -0.4294655 0.8957987 -0.1515942 -0.4178085 0.895751 -0.1520287 -0.4177529 0.8957509 -0.1520287 -0.417753 0.9404022 -0.3395553 0.01859801 0.9404022 -0.3395553 0.01859801 0.9404022 -0.3395553 0.01859801 -0.8951589 -0.4457472 -2.550593e-05 -0.8951589 -0.4457472 -2.550593e-05 -0.8951589 -0.4457472 -2.550593e-05 -0.8939155 0.4448916 0.05464929 -0.8939155 0.4448916 0.05464929 -0.8939155 0.4448916 0.05464929 -0.8931854 0.4251813 0.1464264 -0.8931854 0.4251813 0.1464264 -0.8931854 0.4251813 0.1464264 -0.893222 0.4083864 0.1880826 -0.893222 0.4083864 0.1880826 -0.893222 0.4083864 0.1880826 -0.8957678 0.4149623 0.1593936 -0.8957678 0.4149623 0.1593936 -0.8957678 0.4149623 0.1593936 -0.9998718 0.005925709 0.01487828 -0.9998785 0.005329942 0.01464582 -0.9998783 0.005347453 0.01465266 -0.9997613 -0.01527136 0.01562188 -0.999698 -0.01874428 0.01589124 -0.9997258 -0.01730379 0.01577954 -0.9998836 -0.002111117 0.01510791 -0.9998208 -0.011076 0.01535385 -0.9998107 -0.01189108 0.01539748 -0.9998417 -0.009145168 0.01526254 -0.893184 -0.08578819 -0.4414325 -0.893184 -0.08578819 -0.4414325 -0.893184 -0.08578819 -0.4414325 -0.8954845 -0.120098 -0.4285836 -0.8954845 -0.120098 -0.4285836 -0.8954845 -0.120098 -0.4285836 -0.895486 -0.2594533 -0.3616473 -0.895486 -0.2594533 -0.3616473 -0.895486 -0.2594533 -0.3616473 -0.8927132 -0.274311 -0.3575144 -0.8927132 -0.274311 -0.3575144 -0.8927132 -0.274311 -0.3575144 -0.8930461 -0.1794148 -0.4126489 -0.8930461 -0.1794148 -0.4126489 -0.8930461 -0.1794148 -0.4126489 -0.8950536 -0.1693873 -0.4125372 -0.8950536 -0.1693873 -0.4125372 -0.8950536 -0.1693873 -0.4125372 -0.8952877 -0.2158618 -0.3896969 -0.8952877 -0.2158618 -0.3896969 -0.8952877 -0.2158618 -0.3896969 0.9995211 0.02214454 0.02161546 0.9994862 0.0232367 0.02207795 0.9996148 0.01895897 0.02026637 0.9998479 0.007772359 0.01561371 0.9998078 0.01033718 0.0166594 0.9998252 0.009279748 0.01622829 0.9998446 -0.008826332 0.01525834 0.9998398 -0.009346606 0.01526386 0.999861 -0.006920006 0.01516691 0.9998701 -0.005566174 0.01512673 0.9998851 -0.0009588251 0.01512532 0.8929816 -0.1315736 -0.4304327 0.8929816 -0.1315736 -0.4304327 0.8929816 -0.1315736 -0.4304327 0.8924137 -0.1799143 -0.4137978 0.8924137 -0.1799143 -0.4137978 0.8924137 -0.1799143 -0.4137978 0.892982 0.4385526 0.1012658 0.892982 0.4385526 0.1012658 0.892982 0.4385526 0.1012658 0.894427 -0.447214 -2.558986e-05 0.894427 -0.447214 -2.558986e-05 0.894427 -0.447214 -2.558986e-05 0.8945803 -0.4276616 -0.1297368 0.8945803 -0.4276616 -0.1297368 0.8945803 -0.4276616 -0.1297368 -0.8944592 0.4470812 0.007817364 -0.8944736 0.4470514 0.007876532 -0.8944657 0.4470677 0.007844199 -0.8944805 0.447037 0.007904953 -0.8939308 0.4465017 -0.03903753 -0.8939308 0.4465017 -0.03903753 -0.8939308 0.4465017 -0.03903753 -0.8950564 0.4419522 0.05960119 -0.8950564 0.4419522 0.05960119 -0.8950564 0.4419522 0.05960119 -0.8934898 0.4375696 0.1010388 -0.8934898 0.4375696 0.1010388 -0.8934898 0.4375696 0.1010388 -0.895486 0.4312084 0.1102909 -0.895486 0.4312084 0.1102909 -0.895486 0.4312084 0.1102909 -0.9892065 0.1297584 0.0680682 -0.9892065 0.1297584 0.0680682 -0.9892065 0.1297584 0.0680682 -0.9998862 0.0006096842 0.01507383 -0.9996374 0.018129 0.01990961 -0.9996374 0.018129 0.01990961 -0.9996374 0.018129 0.01990961 -0.9997653 0.01262662 0.01760224 -0.9997803 0.01185565 0.01728522 -0.9998033 0.01059203 0.01676562 -0.9998692 0.006142745 0.01496296 -0.9998312 0.008903476 0.01607124 -0.9991829 -0.03643317 0.01749575 -0.9991829 -0.03643317 0.01749575 -0.9991829 -0.03643317 0.01749575 -0.9981993 -0.05672039 0.01951848 -0.9981993 -0.05672039 0.01951848 -0.9981993 -0.05672039 0.01951848 -0.9712017 -0.2352205 0.03792868 -0.9712017 -0.2352205 0.03792868 -0.9712017 -0.2352205 0.03792868 -0.9926363 -0.118342 0.02585328 -0.9926363 -0.118342 0.02585328 -0.9926363 -0.118342 0.02585328 -0.9579055 -0.2856911 0.02824293 -0.9579055 -0.2856911 0.02824293 -0.9579055 -0.2856911 0.02824293 -0.9995224 -0.02611309 0.01652237 -0.9995224 -0.02611309 0.01652237 -0.9995224 -0.02611309 0.01652237 -0.9996779 -0.01972811 0.01596752 -0.9998742 -0.004817557 0.0151129 -0.9998778 -0.004025593 0.01510729 -0.9998615 -0.006860776 0.01516122 -0.999849 -0.008385688 0.01522103 -0.8957691 -0.06943211 -0.4390637 -0.8957691 -0.06943211 -0.4390637 -0.8957691 -0.06943211 -0.4390637 -0.8925761 -0.3160382 -0.3216018 -0.8925761 -0.3160382 -0.3216018 -0.8925761 -0.3160382 -0.3216018 -0.8956472 -0.2994161 -0.3288861 -0.8956472 -0.2994161 -0.3288861 -0.8956472 -0.2994161 -0.3288861 0.9957187 0.07988774 0.04649996 0.9957187 0.07988774 0.04649996 0.9957187 0.07988774 0.04649996 0.9988883 0.03771199 0.02828399 0.9988883 0.03771199 0.02828399 0.9988883 0.03771199 0.02828399 0.9996971 0.01575191 0.01890803 0.999795 0.011067 0.01695693 0.9998794 -0.00363561 0.01510076 0.9998819 -0.00282571 0.01510364 0.8958237 -0.1513583 -0.4178403 0.8959193 -0.1504521 -0.4179627 0.8931421 -0.08580407 -0.4415142 0.8931421 -0.08580407 -0.4415142 0.8931421 -0.08580407 -0.4415142 0.895805 -0.1009661 -0.4328271 0.895805 -0.1009661 -0.4328271 0.895805 -0.1009661 -0.4328271 0.8959186 0.437193 0.07869027 0.8959186 0.437193 0.07869027 0.8959186 0.437193 0.07869027 0.8931416 0.4252635 0.1464547 0.8931416 0.4252635 0.1464547 0.8931416 0.4252635 0.1464547 0.8958056 0.4253213 0.1289732 0.8958056 0.4253213 0.1289732 0.8958056 0.4253213 0.1289732 0.8955475 0.4079471 0.1776902 0.8955475 0.4079471 0.1776902 0.8955475 0.4079471 0.1776902 0.9998062 -0.01223919 0.01542242 0.9997948 -0.0130745 0.01547135 0.999631 -0.02184592 0.01614549 0.9996545 -0.02080557 0.01606093 0.9996912 -0.01907939 0.01592058 0.9997351 -0.01679792 0.01573503 0.9799489 -0.1963454 0.03389101 0.9799489 -0.1963454 0.03389101 0.9799489 -0.1963454 0.03389101 0.9972591 -0.070954 0.02097033 0.9972591 -0.070954 0.02097033 0.9972591 -0.070954 0.02097033 0.9994267 -0.02938223 0.01682331 0.9994267 -0.02938223 0.01682331 0.9994267 -0.02938223 0.01682331 0.9989411 -0.0423088 0.01807204 0.9989411 -0.0423088 0.01807204 0.9989411 -0.0423088 0.01807204 0.89341 -0.4284481 -0.1350958 0.89341 -0.4284481 -0.1350958 0.89341 -0.4284481 -0.1350958 -0.8923952 -0.4106222 -0.1871367 -0.8923952 -0.4106222 -0.1871367 -0.8923952 -0.4106222 -0.1871367 0.8942788 -0.4404463 -0.0791992 0.8938512 -0.4409822 -0.08102252 0.8940543 -0.4407284 -0.08015834 0.8936594 -0.4412208 -0.08183591 0.8939562 -0.4473068 -0.02755099 0.8939283 -0.4473687 -0.02744854 0.8939875 -0.447237 -0.02766628 0.8939018 -0.4474276 -0.02735115 -0.8950413 0.443814 -0.04393504 -0.8950413 0.443814 -0.04393504 -0.8950413 0.443814 -0.04393504 -0.9993376 0.02746018 0.023882 -0.9993376 0.02746018 0.023882 -0.9993376 0.02746018 0.023882 -0.9983316 0.0476732 0.03257759 -0.9983316 0.0476732 0.03257759 -0.9983316 0.0476732 0.03257759 -0.999883 0.004125627 0.01473173 -0.9998849 0.003309897 0.01480397 -0.9998851 0.003232588 0.01481082 -0.9998864 0.002356545 0.01488839 -0.8954735 0.1351854 -0.4240898 -0.8954735 0.1351854 -0.4240898 -0.8954735 0.1351854 -0.4240898 -0.8929413 0.007870225 -0.4501044 -0.8929413 0.007870225 -0.4501044 -0.8929413 0.007870225 -0.4501044 -0.8959077 -0.01798511 -0.4438761 -0.8959077 -0.01798511 -0.4438761 -0.8959077 -0.01798511 -0.4438761 -0.8930018 -0.0391985 -0.4483428 -0.8930018 -0.0391985 -0.4483428 -0.8930018 -0.0391985 -0.4483428 -0.8959067 0.0336705 -0.4429645 -0.8959067 0.0336705 -0.4429645 -0.8959067 0.0336705 -0.4429645 -0.8924939 -0.3529797 -0.2808202 -0.8924939 -0.3529797 -0.2808202 -0.8924939 -0.3529797 -0.2808202 -0.8957602 -0.3354554 -0.2916905 -0.8957602 -0.3354554 -0.2916905 -0.8957602 -0.3354554 -0.2916905 0.8925523 -0.274505 -0.3577673 0.8925523 -0.274505 -0.3577673 0.8925523 -0.274505 -0.3577673 0.8957009 -0.284626 -0.3416255 0.8957009 -0.284626 -0.3416255 0.8957009 -0.284626 -0.3416255 0.8958907 0.4434289 0.02740004 0.8958907 0.4434289 0.02740004 0.8958907 0.4434289 0.02740004 0.89303 0.4499283 0.007867146 0.89303 0.4499283 0.007867146 0.89303 0.4499283 0.007867146 0.8929438 0.4468098 0.05488491 0.8929438 0.4468098 0.05488491 0.8929438 0.4468098 0.05488491 0.8945963 0.4109518 -0.1755449 0.8945963 0.4109518 -0.1755449 0.8945963 0.4109518 -0.1755449 0.8943509 0.4118097 -0.1747833 0.8943509 0.4118097 -0.1747833 0.8943509 0.4118097 -0.1747833 0.894305 0.4282803 -0.1295936 0.8946505 0.4280678 -0.1279003 0.8940226 0.4284518 -0.1309681 0.8949436 0.4278851 -0.1264523 0.8957185 0.4439578 -0.02428602 0.8957185 0.4439578 -0.02428602 0.8957185 0.4439578 -0.02428602 -0.8930054 0.05487003 -0.4466886 -0.8930054 0.05487003 -0.4466886 -0.8930054 0.05487003 -0.4466886 -0.895761 0.08492428 -0.4363487 -0.895761 0.08492428 -0.4363487 -0.895761 0.08492428 -0.4363487 -0.8931924 0.1011718 -0.4381456 -0.8931924 0.1011718 -0.4381456 -0.8931924 0.1011718 -0.4381456 0.8926659 -0.3159136 -0.321475 0.8926659 -0.3159136 -0.321475 0.8926659 -0.3159136 -0.321475 0.8929788 -0.3837619 -0.2351927 0.8929788 -0.3837619 -0.2351927 0.8929788 -0.3837619 -0.2351927 -0.8957568 -0.444476 -0.00779874 -0.8957568 -0.444476 -0.00779874 -0.8957568 -0.444476 -0.00779874 -0.8923916 -0.4303742 -0.1357032 -0.8923916 -0.4303742 -0.1357032 -0.8923916 -0.4303742 -0.1357032 -0.8959009 -0.4304134 -0.1100267 -0.8959009 -0.4304134 -0.1100267 -0.8959009 -0.4304134 -0.1100267 -0.8959169 -0.4146793 -0.1592922 -0.8959169 -0.4146793 -0.1592922 -0.8959169 -0.4146793 -0.1592922 -0.8924888 -0.4502291 -0.0275224 -0.8924888 -0.4502291 -0.0275224 -0.8924888 -0.4502291 -0.0275224 -0.8958532 -0.4403545 -0.05945531 -0.8958532 -0.4403545 -0.05945531 -0.8958532 -0.4403545 -0.05945531 -0.8924403 -0.4435999 -0.08227717 -0.8924403 -0.4435999 -0.08227717 -0.8924403 -0.4435999 -0.08227717 -0.89504 0.1838628 -0.4063223 -0.89504 0.1838628 -0.4063223 -0.89504 0.1838628 -0.4063223 -0.8935018 0.1462216 -0.4245866 -0.8935018 0.1462216 -0.4245866 -0.8935018 0.1462216 -0.4245866 -0.8944671 0.2303286 -0.3832457 -0.8944745 0.230347 -0.3832175 -0.8944809 0.2303632 -0.3831928 -0.8950566 0.2725885 -0.3529436 -0.8950566 0.2725885 -0.3529436 -0.8950566 0.2725885 -0.3529436 -0.893916 0.2697703 -0.3579639 -0.893916 0.2697703 -0.3579639 -0.893916 0.2697703 -0.3579639 -0.8957682 0.3455253 -0.2796633 -0.8957682 0.3455253 -0.2796633 -0.8957682 0.3455253 -0.2796633 -0.8931832 0.3393988 -0.2950122 -0.8931832 0.3393988 -0.2950122 -0.8931832 0.3393988 -0.2950122 -0.8954837 0.3111186 -0.318299 -0.8954837 0.3111186 -0.318299 -0.8954837 0.3111186 -0.318299 -0.8934896 0.3062918 -0.328423 -0.8934896 0.3062918 -0.328423 -0.8934896 0.3062918 -0.328423 -0.8959059 0.400455 -0.1923236 -0.8959059 0.400455 -0.1923236 -0.8959059 0.400455 -0.1923236 -0.892427 -0.3846939 -0.2357639 -0.892427 -0.3846939 -0.2357639 -0.892427 -0.3846939 -0.2357639 -0.8958567 -0.3668484 -0.250725 -0.8958567 -0.3668484 -0.250725 -0.8958567 -0.3668484 -0.250725 -0.8959045 -0.3934069 -0.2063643 -0.8959045 -0.3934069 -0.2063643 -0.8959045 -0.3934069 -0.2063643 0.8955483 -0.05009429 -0.4421356 0.8955483 -0.05009429 -0.4421356 0.8955483 -0.05009429 -0.4421356 0.8945978 0.05344508 -0.4436647 0.8944261 0.05420738 -0.4439184 0.8945178 0.05380055 -0.443783 0.8924649 -0.2289207 -0.3887181 0.8924649 -0.2289207 -0.3887181 0.8924649 -0.2289207 -0.3887181 0.8958087 -0.242916 -0.372181 0.8958087 -0.242916 -0.372181 0.8958087 -0.242916 -0.372181 0.895875 -0.1980025 -0.3977474 0.895875 -0.1980025 -0.3977474 0.895875 -0.1980025 -0.3977474 0.893241 0.4478697 -0.03915713 0.893241 0.4478697 -0.03915713 0.893241 0.4478697 -0.03915713 0.8954058 0.4387587 -0.07575779 0.8954058 0.4387587 -0.07575779 0.8954058 0.4387587 -0.07575779 0.8935706 0.440678 -0.08564157 0.8935706 0.440678 -0.08564157 0.8935706 0.440678 -0.08564157 0.8938276 0.3921985 -0.2173764 0.8938276 0.3921985 -0.2173764 0.8938276 0.3921985 -0.2173764 0.8929451 0.2709325 -0.359506 0.8929451 0.2709325 -0.359506 0.8929451 0.2709325 -0.359506 0.8949452 0.1044362 -0.4337813 0.8949452 0.1044362 -0.4337813 0.8949452 0.1044362 -0.4337813 0.8951505 -0.3852534 -0.2242442 0.8951505 -0.3852534 -0.2242442 0.8951505 -0.3852534 -0.2242442 0.8931822 -0.4092029 -0.1864899 0.8931822 -0.4092029 -0.1864899 0.8931822 -0.4092029 -0.1864899 0.8948892 -0.4091585 -0.178221 0.8948892 -0.4091585 -0.178221 0.8948892 -0.4091585 -0.178221 0.8927924 -0.3525171 -0.2804522 0.8927924 -0.3525171 -0.2804522 0.8927924 -0.3525171 -0.2804522 0.8953671 -0.3562893 -0.2671624 0.8953671 -0.3562893 -0.2671624 0.8953671 -0.3562893 -0.2671624 0.8955406 -0.3225467 -0.3065463 0.8955406 -0.3225467 -0.3065463 0.8955406 -0.3225467 -0.3065463 -0.8929414 0.3937398 -0.2182307 -0.8929414 0.3937398 -0.2182307 -0.8929414 0.3937398 -0.2182307 -0.8959084 0.3754158 -0.2375105 -0.8959084 0.3754158 -0.2375105 -0.8959084 0.3754158 -0.2375105 -0.8930013 0.3686747 -0.2581232 -0.8930013 0.3686747 -0.2581232 -0.8930013 0.3686747 -0.2581232 -0.8957617 0.4203505 -0.1446249 -0.8957617 0.4203505 -0.1446249 -0.8957617 0.4203505 -0.1446249 -0.8930054 0.4142766 -0.1758303 -0.8930054 0.4142766 -0.1758303 -0.8930054 0.4142766 -0.1758303 0.894022 0.1008002 -0.4365364 0.894022 0.1008002 -0.4365364 0.894022 0.1008002 -0.4365364 0.8943502 0.05454347 -0.4440301 0.8951446 0.001579279 -0.445773 0.8951446 0.001579279 -0.445773 0.8951446 0.001579279 -0.445773 0.8938289 0.00783937 -0.4483397 0.8938289 0.00783937 -0.4483397 0.8938289 0.00783937 -0.4483397 0.8934236 -0.03912551 -0.447508 0.8934236 -0.03912551 -0.447508 0.8934236 -0.03912551 -0.447508 0.8951455 0.3868373 -0.2215208 0.8951455 0.3868373 -0.2215208 0.8951455 0.3868373 -0.2215208 0.8934243 0.3679864 -0.2576413 0.8934243 0.3679864 -0.2576413 0.8934243 0.3679864 -0.2576413 0.8955483 0.3578525 -0.2644521 0.8955483 0.3578525 -0.2644521 0.8955483 0.3578525 -0.2644521 0.8959196 0.2867383 -0.3392776 0.8959196 0.2867383 -0.3392776 0.8959196 0.2867383 -0.3392776 0.8932406 0.1900162 -0.4074495 0.8932406 0.1900162 -0.4074495 0.8932406 0.1900162 -0.4074495 0.8954049 0.1537669 -0.4178587 0.8954049 0.1537669 -0.4178587 0.8954049 0.1537669 -0.4178587 0.8935719 0.1461762 -0.4244548 0.8935719 0.1461762 -0.4244548 0.8935719 0.1461762 -0.4244548 0.89572 0.2009472 -0.396618 0.89572 0.2009472 -0.396618 0.89572 0.2009472 -0.396618 0.8958914 0.2454448 -0.3703181 0.8958914 0.2454448 -0.3703181 0.8958914 0.2454448 -0.3703181 0.8930313 0.2317806 -0.3857109 0.8930313 0.2317806 -0.3857109 0.8930313 0.2317806 -0.3857109 -0.8944611 0.2303133 -0.3832691 -0.8939324 0.1894341 -0.4062014 -0.8939324 0.1894341 -0.4062014 -0.8939324 0.1894341 -0.4062014 -0.8931929 0.4300316 -0.131451 -0.8931929 0.4300316 -0.131451 -0.8931929 0.4300316 -0.131451 -0.8954735 0.4348649 -0.09497199 -0.8954735 0.4348649 -0.09497199 -0.8954735 0.4348649 -0.09497199 -0.8935028 0.4408104 -0.08566729 -0.8935028 0.4408104 -0.08566729 -0.8935028 0.4408104 -0.08566729 0.8958045 0.3243593 -0.3038507 0.8958045 0.3243593 -0.3038507 0.8958045 0.3243593 -0.3038507 0.8931423 0.3394602 -0.2950656 0.8931423 0.3394602 -0.2950656 0.8931423 0.3394602 -0.2950656 0.8929812 0.3069807 -0.3291616 0.8929812 0.3069807 -0.3291616 0.8929812 0.3069807 -0.3291616 0 -6.027223e-05 1 0 -6.027223e-05 1 0 -6.027223e-05 1 0 -6.027223e-05 1 0 -0.9872478 0.1591911 0 -0.9872478 0.1591911 0 -0.9872478 0.1591911 0 -0.9872478 0.1591911 0 0.9083005 0.4183184 0 0.9083005 0.4183184 0 0.9083005 0.4183184 0 0.9083005 0.4183184 0 -0.1907713 -0.9816345 0 -0.1907713 -0.9816345 0 -0.1907713 -0.9816345 0 -0.1907713 -0.9816345 0 -0.2923252 -0.956319 0 -0.2923252 -0.956319 0 -0.2923252 -0.956319 0 -0.2923252 -0.956319 0 -0.3419785 -0.9397078 0 -0.3419785 -0.9397078 0 -0.3419785 -0.9397078 0 -0.3419785 -0.9397078 0 0.9743613 0.2249889 0 0.9743613 0.2249889 0 0.9743613 0.2249889 0 0.9743613 0.2249889 0 0.9455016 0.3256173 0 0.9455016 0.3256173 0 0.9455016 0.3256173 0 0.9455016 0.3256173 0 -0.3987302 -0.9170683 0 -0.3987302 -0.9170683 0 -0.3987302 -0.9170683 0 -0.3987302 -0.9170683 0 -1 -5.722063e-05 0 -1 -5.722063e-05 0 -1 -5.722063e-05 0 -1 -5.722063e-05 0 -0.6087343 -0.7933742 0 -0.6087343 -0.7933742 0 -0.6087343 -0.7933742 0 -0.6087343 -0.7933742 0 -0.5074532 -0.8616793 0 -0.5074532 -0.8616793 0 -0.5074532 -0.8616793 0 -0.5074532 -0.8616793 0 -0.8526172 -0.522536 0 -0.8526172 -0.522536 0 -0.8526172 -0.522536 0 -0.8526172 -0.522536 0 -0.9099567 -0.4147032 0 -0.9099567 -0.4147032 0 -0.9099567 -0.4147032 0 -0.9099567 -0.4147032 0 -0.9537127 -0.3007193 0 -0.9537127 -0.3007193 0 -0.9537127 -0.3007193 0 -0.9537127 -0.3007193 0 0.9925398 0.1219209 0 0.9925398 0.1219209 0 0.9925398 0.1219209 0 0.9925398 0.1219209 0 0.9998472 0.01748266 0 0.9998472 0.01748266 0 0.9998472 0.01748266 0 0.9998472 0.01748266 0 -0.7009104 -0.7132493 0 -0.7009104 -0.7132493 0 -0.7009104 -0.7132493 0 -0.7009104 -0.7132493 0 -0.7825569 -0.6225791 0 -0.7825569 -0.6225791 0 -0.7825569 -0.6225791 0 -0.7825569 -0.6225791 0 -0.9981368 -0.06101588 0 -0.9981368 -0.06101588 0 -0.9981368 -0.06101588 0 -0.9981368 -0.06101588 0 -0.9832308 -0.1823658 0 -0.9832308 -0.1823658 0 -0.9832308 -0.1823658 0 -0.9832308 -0.1823658 -1 0 0 -1 0 0 -1 0 0 -1 0 0 -1 0 0 -1 0 0 -1 0 0 -1 0 0 -1 0 0 -1 0 0 -1 0 0 -1 0 0 -1 0 0 -1 0 0 -1 0 0 -1 0 0 -1 0 0 -1 0 0 -1 0 0 -1 0 0 -1 0 0 -1 0 0 -1 0 0 -1 0 0 -1 0 0 -1 0 0 -1 0 0 -1 0 0 -1 0 0 -1 0 0 -1 0 0 -1 0 0 -1 0 0 -1 0 0 -1 0 0 -1 0 0 -1 0 0 -1 0 0 -1 0 0 -1 0 0 -1 0 0 -1 0 0 -1 0 0 -1 0 0 -1 0 0 -1 0 0 -1 0 0 -1 0 0 -1 0 0 -1 0 0 -1 0 0 -1 0 0 -1 0 0 -1 0 0 -1 0 0 -1 0 0 0 0.9961998 -0.0870975 0 0.9961998 -0.0870975 0 0.9961998 -0.0870975 0 0.9961998 -0.0870975 0 0.6018508 -0.7986085 0 0.6018508 -0.7986085 0 0.6018508 -0.7986085 0 0.6018508 -0.7986085 0 0.8191788 -0.5735382 0 0.8191788 -0.5735382 0 0.8191788 -0.5735382 0 0.8191788 -0.5735382 0 0.8746412 -0.4847708 0 0.8746412 -0.4847708 0 0.8746412 -0.4847708 0 0.8746412 -0.4847708 0 0.9205206 -0.3906941 0 0.9205206 -0.3906941 0 0.9205206 -0.3906941 0 0.9205206 -0.3906941 0 0.2249889 -0.9743613 0 0.2249889 -0.9743613 0 0.2249889 -0.9743613 0 0.2249889 -0.9743613 0 0.1219209 -0.9925398 0 0.1219209 -0.9925398 0 0.1219209 -0.9925398 0 0.1219209 -0.9925398 0 -0.0870975 -0.9961998 0 -0.0870975 -0.9961998 0 -0.0870975 -0.9961998 0 -0.0870975 -0.9961998 0 0.01748266 -0.9998472 0 0.01748266 -0.9998472 0 0.01748266 -0.9998472 0 0.01748266 -0.9998472 0 0.3256173 -0.9455016 0 0.3256173 -0.9455016 0 0.3256173 -0.9455016 0 0.3256173 -0.9455016 1 0 0 1 0 0 1 0 0 1 0 0 1 0 0 1 0 0 1 0 0 1 0 0 1 0 0 1 0 0 1 0 0 1 0 0 1 0 0 1 0 0 1 0 0 1 0 0 1 0 0 1 0 0 1 0 0 1 0 0 1 0 0 1 0 0 1 0 0 1 0 0 1 0 0 1 0 0 1 0 0 1 0 0 1 0 0 1 0 0 1 0 0 1 0 0 1 0 0 1 0 0 1 0 0 1 0 0 1 0 0 1 0 0 1 0 0 1 0 0 1 0 0 1 0 0 1 0 0 1 0 0 1 0 0 1 0 0 1 0 0 1 0 0 1 0 0 1 0 0 1 0 0 1 0 0 1 0 0 1 0 0 1 0 0 1 0 0 0 0.5150741 -0.8571456 0 0.5150741 -0.8571456 0 0.5150741 -0.8571456 0 0.5150741 -0.8571456 0 0.4226536 -0.9062913 0 0.4226536 -0.9062913 0 0.4226536 -0.9062913 0 0.4226536 -0.9062913 0 0.9816345 -0.1907713 0 0.9816345 -0.1907713 0 0.9816345 -0.1907713 0 0.9816345 -0.1907713 0 0.956319 -0.2923252 0 0.956319 -0.2923252 0 0.956319 -0.2923252 0 0.956319 -0.2923252 0 0.7547346 -0.6560303 0 0.7547346 -0.6560303 0 0.7547346 -0.6560303 0 0.7547346 -0.6560303 0 0.6820369 -0.7313177 0 0.6820369 -0.7313177 0 0.6820369 -0.7313177 0 0.6820369 -0.7313177</float_array>
          <technique_common>
            <accessor count="758" source="#normals-array-array" stride="3">
              <param type="float" name="X"/>
              <param type="float" name="Y"/>
              <param type="float" name="Z"/>
            </accessor>
          </technique_common>
        </source>
        <vertices id="verts-array-vertices">
          <input semantic="POSITION" source="#verts-array"/>
        </vertices>
        <triangles count="368" material="material0">
          <input offset="0" semantic="VERTEX" source="#verts-array-vertices"/>
          <input offset="1" semantic="NORMAL" source="#normals-array"/>
          <p>0 0 1 1 2 2 3 3 4 4 5 5 6 6 7 7 8 8 9 9 10 10 11 11 12 12 13 13 14 14 15 15 16 16 17 17 18 18 16 16 15 15 19 19 20 20 21 21 20 20 22 22 21 21 23 23 24 24 25 25 26 26 25 25 24 24 27 27 28 28 29 29 30 30 31 31 32 32 33 33 34 34 35 35 36 36 37 37 38 38 39 39 40 40 41 41 42 42 43 43 44 44 45 45 46 46 47 47 48 48 49 49 50 50 51 51 52 52 53 53 54 54 55 55 56 56 1 1 57 57 2 2 58 58 59 59 60 60 61 61 62 62 63 63 64 64 65 65 66 66 67 67 68 68 69 69 70 70 71 71 72 72 73 73 74 74 75 75 76 76 77 77 78 78 79 79 80 80 81 81 82 82 83 83 84 84 85 85 86 86 87 87 88 88 89 89 90 90 90 90 91 91 88 88 6 6 92 92 7 7 93 93 94 94 95 95 96 96 97 97 98 98 99 99 100 100 101 101 102 102 103 103 104 104 105 105 106 106 107 107 108 108 109 109 110 110 109 109 111 111 110 110 112 112 113 113 114 114 115 115 116 116 117 117 118 118 119 119 120 120 121 121 122 122 123 123 124 124 125 125 126 126 0 0 127 127 1 1 128 128 129 129 130 130 131 131 132 132 133 133 134 134 51 51 53 53 132 132 135 135 133 133 136 136 137 137 138 138 139 139 140 140 141 141 142 142 143 143 144 144 145 145 146 146 147 147 148 148 149 149 150 150 151 151 152 152 153 153 55 55 154 154 56 56 155 155 2 2 156 156 57 57 156 156 2 2 157 157 158 158 60 60 158 158 58 58 60 60 159 159 160 160 161 161 162 162 163 163 164 164 165 165 166 166 167 167 168 168 169 169 170 170 171 171 172 172 173 173 174 174 82 82 84 84 86 86 175 175 87 87 176 176 177 177 6 6 177 177 92 92 6 6 178 178 31 31 30 30 179 179 178 178 30 30 180 180 181 181 182 182 183 183 184 184 185 185 186 186 187 187 188 188 189 189 190 190 191 191 192 192 193 193 194 194 195 195 196 196 197 197 88 88 198 198 89 89 199 199 198 198 88 88 200 200 201 201 202 202 201 201 203 203 202 202 204 204 205 205 206 206 207 207 208 208 209 209 210 210 211 211 212 212 213 213 214 214 215 215 216 216 217 217 218 218 219 219 220 220 221 221 222 222 223 223 224 224 224 224 223 223 225 225 226 226 227 227 228 228 229 229 227 227 226 226 230 230 231 231 232 232 233 233 234 234 235 235 236 236 237 237 238 238 239 239 240 240 241 241 240 240 242 242 241 241 243 243 244 244 245 245 246 246 247 247 248 248 249 249 250 250 251 251 252 252 253 253 254 254 255 255 256 256 257 257 258 258 259 259 260 260 261 261 262 262 263 263 264 264 265 265 266 266 267 267 268 268 269 269 270 270 271 271 272 272 273 273 274 274 275 275 276 276 277 277 278 278 279 279 280 280 281 281 282 282 283 283 284 284 285 285 286 286 287 287 288 288 286 286 285 285 289 289 290 290 291 291 292 292 293 293 294 294 295 295 296 296 297 297 298 298 299 299 300 300 301 301 302 302 303 303 304 304 305 305 306 306 307 307 308 308 309 309 310 310 311 311 312 312 313 313 314 314 315 315 316 316 317 317 318 318 319 319 320 320 321 321 322 322 323 323 324 324 325 325 326 326 327 327 328 328 329 329 330 330 331 331 332 332 333 333 334 334 335 335 336 336 337 337 338 338 339 339 340 340 341 341 342 342 343 343 344 344 345 345 346 346 347 347 348 348 349 349 350 350 351 351 352 352 353 353 354 354 355 355 356 356 357 357 358 358 359 359 360 360 361 361 362 362 363 363 364 364 365 365 366 366 367 367 368 368 369 369 370 370 371 371 372 372 373 373 374 374 375 375 376 376 377 377 378 378 379 379 380 380 381 381 382 382 383 383 384 384 385 385 386 386 387 387 388 388 389 389 390 390 391 391 392 392 393 393 394 394 395 395 396 396 397 397 398 398 399 399 400 400 401 401 402 402 403 403 404 404 405 405 406 406 407 407 408 408 409 409 410 410 411 411 412 412 413 413 414 414 415 415 416 416 417 417 418 418 419 419 420 420 421 421 422 422 423 423 424 424 425 425 426 426 427 427 428 428 429 429 430 430 431 431 432 432 433 433 434 434 435 435 371 371 436 436 372 372 437 437 438 438 439 439 440 440 441 441 442 442 443 443 444 444 445 445 446 446 447 447 448 448 449 449 450 450 451 451 452 452 453 453 454 454 455 455 456 456 457 457 458 458 459 459 460 460 461 461 462 462 463 463 464 464 465 465 466 466 467 467 468 468 469 469 470 470 471 471 472 472 473 473 474 474 475 475 334 334 476 476 335 335 477 477 478 478 479 479 480 480 481 481 482 482 483 483 484 484 485 485 486 486 487 487 488 488 489 489 490 490 491 491 492 492 493 493 494 494 495 495 496 496 497 497 498 498 499 499 500 500 500 500 499 499 501 501 502 502 503 503 504 504 503 503 502 502 505 505 506 506 507 507 508 508 509 509 506 506 508 508 510 510 511 511 512 512 510 510 512 512 513 513 514 514 515 515 516 516 515 515 514 514 517 517 518 518 519 519 520 520 520 520 519 519 521 521 522 522 523 523 524 524 525 525 524 524 523 523 526 526 527 527 528 528 529 529 528 528 527 527 530 530 531 531 532 532 531 531 533 533 532 532 534 534 535 535 536 536 537 537 535 535 534 534 538 538 539 539 540 540 539 539 538 538 541 541 542 542 543 543 544 544 544 544 543 543 545 545 546 546 547 547 548 548 549 549 547 547 546 546 550 550 551 551 552 552 553 553 551 551 550 550 554 554 555 555 556 556 557 557 556 556 555 555 558 558 559 559 560 560 558 558 561 561 559 559 562 562 563 563 564 564 565 565 564 564 563 563 566 566 567 567 568 568 567 567 566 566 569 569 570 570 571 571 572 572 570 570 572 572 573 573 574 574 575 575 576 576 575 575 574 574 577 577 578 578 579 579 580 580 581 581 580 580 579 579 582 582 583 583 584 584 585 585 586 586 583 583 587 587 588 588 583 583 589 589 583 583 590 590 591 591 592 592 583 583 593 593 594 594 583 583 595 595 583 583 596 596 597 597 598 598 583 583 599 599 600 600 583 583 601 601 583 583 588 588 602 602 603 603 583 583 604 604 583 583 605 605 606 606 583 583 607 607 608 608 583 583 609 609 610 610 583 583 611 611 612 612 583 583 610 610 613 613 584 584 583 583 614 614 599 599 583 583 615 615 614 614 583 583 616 616 583 583 603 603 586 586 617 617 583 583 618 618 583 583 604 604 607 607 583 583 617 617 594 594 611 611 583 583 619 619 596 596 583 583 609 609 583 583 620 620 612 612 620 620 583 583 621 621 583 583 622 622 613 613 583 583 600 600 623 623 583 583 582 582 624 624 583 583 618 618 601 601 625 625 583 583 587 587 583 583 592 592 616 616 626 626 583 583 602 602 583 583 627 627 585 585 583 583 626 626 605 605 583 583 628 628 606 606 628 628 583 583 593 593 583 583 629 629 630 630 583 583 624 624 597 597 583 583 631 631 590 590 583 583 632 632 633 633 583 583 608 608 623 623 631 631 583 583 615 615 583 583 625 625 630 630 591 591 583 583 619 619 583 583 634 634 595 595 629 629 583 583 635 635 622 622 583 583 636 636 583 583 598 598 621 621 627 627 583 583 635 635 583 583 637 637 589 589 634 634 583 583 636 636 632 632 583 583 638 638 639 639 640 640 640 640 639 639 641 641 642 642 643 643 644 644 643 643 642 642 645 645 646 646 647 647 648 648 649 649 648 648 647 647 650 650 651 651 652 652 653 653 652 652 651 651 654 654 655 655 656 656 657 657 656 656 655 655 658 658 659 659 660 660 661 661 660 660 659 659 662 662 663 663 664 664 664 664 663 663 665 665 666 666 667 667 668 668 669 669 667 667 666 666 670 670 671 671 672 672 671 671 673 673 672 672 674 674 675 675 676 676 677 677 675 675 674 674 678 678 679 679 680 680 681 681 679 679 682 682 683 683 684 684 679 679 685 685 686 686 679 679 687 687 679 679 688 688 689 689 679 679 690 690 691 691 692 692 679 679 693 693 679 679 694 694 695 695 696 696 679 679 681 681 697 697 679 679 690 690 679 679 697 697 698 698 683 683 679 679 699 699 700 700 679 679 701 701 679 679 702 702 693 693 703 703 679 679 704 704 679 679 705 705 706 706 679 679 707 707 708 708 709 709 679 679 700 700 682 682 679 679 678 678 710 710 679 679 702 702 679 679 689 689 711 711 705 705 679 679 712 712 688 688 679 679 713 713 679 679 714 714 715 715 679 679 692 692 695 695 679 679 703 703 716 716 717 717 679 679 698 698 679 679 718 718 699 699 679 679 684 684 701 701 680 680 679 679 711 711 679 679 719 719 720 720 707 707 679 679 712 712 679 679 721 721 687 687 718 718 679 679 714 714 679 679 722 722 723 723 679 679 686 686 691 691 679 679 710 710 715 715 724 724 679 679 706 706 694 694 679 679 720 720 679 679 724 724 725 725 726 726 679 679 727 727 725 725 679 679 685 685 679 679 728 728 723 723 721 721 679 679 729 729 679 679 709 709 730 730 731 731 679 679 727 727 679 679 704 704 713 713 719 719 679 679 732 732 679 679 717 717 730 730 679 679 726 726 716 716 679 679 696 696 732 732 722 722 679 679 729 729 728 728 679 679 708 708 679 679 733 733 734 734 735 735 736 736 737 737 734 734 736 736 738 738 739 739 740 740 740 740 739 739 741 741 742 742 743 743 744 744 742 742 745 745 743 743 746 746 747 747 748 748 748 748 747 747 749 749 750 750 751 751 752 752 751 751 753 753 752 752 754 754 755 755 756 756 757 757 755 755 754 754</p>
        </triangles>
      </mesh>
    </geometry>
  </library_geometries>
  <library_materials>
    <material id="3c66a84e167048b8a3d30b1e50c39806" name="defaultmaterial">
      <instance_effect url="#69a18aace50746af9e47414f86e7decf"/>
    </material>
  </library_materials>
  <library_visual_scenes>
    <visual_scene id="scene">
      <node id="node0" name="node0">
        <instance_geometry url="#f5e1946d561340abbcbe2653b147c177">
          <bind_material>
            <technique_common>
              <instance_material symbol="material0" target="#3c66a84e167048b8a3d30b1e50c39806"/>
            </technique_common>
          </bind_material>
        </instance_geometry>
      </node>
    </visual_scene>
  </library_visual_scenes>
  <scene>
    <instance_visual_scene url="#scene"/>
  </scene>
</COLLADA>
