<COLLADA xmlns="http://www.collada.org/2005/11/COLLADASchema" version="1.4.1">
  <asset>
    <created>2026-09-03T15:32:12.440594</created>
    <modified>2026-09-03T15:32:12.440595</modified>
    <up_axis>Y_UP</up_axis>
  </asset>
  <library_effects>
    <effect id="3dc3ae3529664f2b98bfe754ed32c79c" name="3dc3ae3529664f2b98bfe754ed32c79c">
      <profile_COMMON>
        <technique sid="common">
          <phong>
            <emission>
              <color>0.0 0.0 0.0 1.0</color>
            </emission>
            <ambient>
              <color>0.0 0.0 0.0 1.0</color>
            </ambient>
            <diffuse>
              <color>0.0 0.0 0.0 1.0</color>
            </diffuse>
            <specular>
              <color>0.0 0.0 0.0 1.0</color>
            </specular>
            <shininess>
              <float>0.0</float>
            </shininess>
            <reflective>
              <color>0.0 0.0 0.0 1.0</color>
            </reflective>
            <reflectivity>
              <float>0.0</float>
            </reflectivity>
            <transparent>
              <color>0.0 0.0 0.0 1.0</color>
            </transparent>
            <transparency>
              <float>1.0</float>
            </transparency>
          </phong>
        </technique>
        <extra>
          <technique profile="GOOGLEEARTH">
            <double_sided>0</double_sided>
          </technique>
        </extra>
      </profile_COMMON>
    </effect>
  </library_effects>
  <library_geometries>
    <geometry id="4fc0916160614139941944a60617e8c1" name="62039bfd063b4633a430c789e744db70">
      <mesh>
        <source id="verts-array">
          <float_array count="2280" id="verts-array-array">0.012 -0.00595012 0.000772068 0.0135 0.00366907 0.0476431 0.012 0.000164657 0.047897 0.012 0.000164657 0.047897 0.00707463 -0.00207595 0.0306293 0.012 -0.00595012 0.000772068 -0.012 0.0120649 0.0463529 -0.0135 0.00248029 -0.000313333 -0.0135 0.00860614 0.0469174 -0.012 0.0120649 0.0463529 -0.0135 0.00860614 0.0469174 -0.012 0.0121139 0.0470239 -0.0135 0.00248029 -0.000313333 -0.012 0.00595012 -0.000772068 -0.012 0.00582626 -0.00143342 -0.012 0.00595012 -0.000772068 0.0135 0.00248029 -0.000313333 0.012 0.0120649 0.0463529 0.0135 0.00860614 0.0469174 0.0135 0.00860614 0.0469174 0.012 0.0120649 0.0463529 0.012 0.0121139 0.0470239 0.0135 -0.0025 -5.55112e-18 0.0135 -0.00242146 0.000621725 0.012 0.00582626 -0.00143342 0.012 0.00595012 -0.000772068 0.0135 0.00248029 -0.000313333 0.012 0.00595012 -0.000772068 0.0135 0.00387478 0.0482351 0.012 0.00048564 0.0492017 0.0135 0.00366907 0.0476431 0.0135 0.00387478 0.0482351 0.0135 0.00422123 0.0487573 0.012 0.00108889 0.0504022 -0.0135 -0.000156976 -0.00249507 -0.0135 0.000468453 -0.00245572 -0.012 0.000571316 -0.00597274 -0.0135 -0.00242146 -0.000621725 -0.012 -0.00597274 -0.000571316 -0.0135 -0.0025 -6.66134e-18 -0.0135 -0.0025 -6.66134e-18 -0.012 -0.00597274 -0.000571316 -0.012 -0.00599915 0.000101011 -0.0135 -0.00242146 0.000621725 -0.0135 -0.0025 -6.66134e-18 -0.012 -0.00595012 0.000772068 -0.0135 -0.0025 -6.66134e-18 -0.012 -0.00599915 0.000101011 -0.012 -0.00595012 0.000772068 -0.012 -0.00595012 0.000772068 -0.00707463 -0.00207595 0.0306293 -0.012 0.000164657 0.047897 -0.0135 0.00647839 0.0495984 -0.012 0.00621579 0.0531241 -0.012 0.00688684 0.0530751 -0.012 0.0104282 0.0512956 -0.012 0.0108681 0.0507864 -0.0135 0.00807301 0.0486791 -0.012 0.00595012 -0.000772068 -0.012 0.0120649 0.0463529 -0.0075 0.0100286 0.0306594 0.012 0.0108681 0.0507864 0.012 0.0104282 0.0512956 0.0135 0.00807301 0.0486791 0.0135 0.00807301 0.0486791 0.012 0.0104282 0.0512956 0.0135 0.00762499 0.0491172 0.0135 0.00762499 0.0491172 0.012 0.0104282 0.0512956 0.012 0.00993416 0.0517523 0.0135 0.00585185 0.0496111 0.012 0.00621579 0.0531241 0.012 0.00554346 0.0530977 0.0135 0.00647839 0.0495984 0.012 0.00621579 0.0531241 0.0135 0.00585185 0.0496111 0.012 0.00688684 0.0530751 0.012 0.00621579 0.0531241 0.0135 0.00647839 0.0495984 0.0135 0.00762499 0.0491172 0.012 0.00993416 0.0517523 0.012 0.00939204 0.0521508 -0.012 0.000164657 0.047897 -0.0135 0.00366907 0.0476431 -0.012 0.00422872 0.0528208 -0.012 0.00487832 0.0529962 -0.0135 0.00524184 0.0494676 -0.012 0.00939204 0.0521508 -0.0135 0.00708208 0.0494302 -0.012 0.00880872 0.0524862 -0.012 0.00880872 0.0524862 -0.0135 0.00708208 0.0494302 -0.012 0.00819151 0.0527541 -0.012 0.00554346 0.0530977 -0.0135 0.00585185 0.0496111 -0.012 0.00487832 0.0529962 -0.012 0.00487832 0.0529962 -0.0135 0.00585185 0.0496111 -0.0135 0.00524184 0.0494676 -0.012 0.00621579 0.0531241 -0.0135 0.00585185 0.0496111 -0.012 0.00554346 0.0530977 -0.012 0.00621579 0.0531241 -0.0135 0.00647839 0.0495984 -0.0135 0.00585185 0.0496111 -0.0135 0.00422123 0.0487573 -0.012 0.00194416 0.0514384 -0.0135 0.00468667 0.0491769 0.012 0.00108889 0.0504022 0.012 0.000753556 0.0498189 0.0135 0.00387478 0.0482351 0.012 0.00048564 0.0492017 0.0135 0.00387478 0.0482351 0.012 0.000753556 0.0498189 0.0135 0.00366907 0.0476431 0.012 0.000288514 0.0485583 0.012 0.000164657 0.047897 0.012 0.00048564 0.0492017 0.012 0.000288514 0.0485583 0.0135 0.00366907 0.0476431 -0.0135 0.00202254 -0.00146946 -0.012 0.00462735 -0.00381938 -0.012 0.00417061 -0.00431347 -0.012 0.00462735 -0.00381938 -0.0135 0.00202254 -0.00146946 -0.012 0.00502588 -0.00327727 -0.012 0.00562914 -0.00207674 -0.0135 0.00232444 -0.000920311 -0.012 0.00582626 -0.00143342 -0.0135 0.00232444 -0.000920311 -0.0135 0.00248029 -0.000313333 -0.012 0.00582626 -0.00143342 -0.0135 0.00159356 -0.00192628 -0.012 -0.00381938 -0.00462735 -0.0135 -0.00182242 -0.00171137 -0.0135 -0.00133957 -0.00211082 -0.012 -0.00381938 -0.00462735 -0.012 -0.00431347 -0.00417061 -0.0135 -0.00182242 -0.00171137 0.012 0.00819151 0.0527541 0.0135 0.00708208 0.0494302 0.012 0.00880872 0.0524862 0.012 0.00939204 0.0521508 0.012 0.00880872 0.0524862 0.0135 0.00708208 0.0494302 0.0135 0.00762499 0.0491172 -0.0135 0.00647839 0.0495984 -0.012 0.00688684 0.0530751 -0.012 0.00754819 0.0529512 -0.0135 0.00647839 0.0495984 -0.012 0.00754819 0.0529512 -0.0135 0.00708208 0.0494302 -0.0135 0.00708208 0.0494302 -0.012 0.00754819 0.0529512 -0.012 0.00819151 0.0527541 0.0135 0.00839798 0.0481432 0.012 0.0115637 0.0496369 0.012 0.0112481 0.0502312 0.0135 0.00839798 0.0481432 0.012 0.0112481 0.0502312 0.0135 0.00807301 0.0486791 0.0135 0.00807301 0.0486791 0.012 0.0112481 0.0502312 0.012 0.0108681 0.0507864 0.012 -0.00595012 0.000772068 0.012 -0.00599915 0.000101011 0.0135 -0.0025 -5.55112e-18 0.012 0.00595012 -0.000772068 0.0075 0.0100286 0.0306594 0.012 0.0120649 0.0463529 0.0135 0.00585185 0.0496111 0.012 0.00554346 0.0530977 0.012 0.00487832 0.0529962 0.0135 0.00585185 0.0496111 0.012 0.00487832 0.0529962 0.0135 0.00524184 0.0494676 0.0135 0.00524184 0.0494676 0.012 0.00487832 0.0529962 0.012 0.00422872 0.0528208 0.0135 0.00524184 0.0494676 0.012 0.00422872 0.0528208 0.012 0.00360285 0.0525738 0.0135 0.00524184 0.0494676 0.012 0.00360285 0.0525738 0.0135 0.00468667 0.0491769 0.012 0.00300856 0.0522583 -0.0135 0.00524184 0.0494676 -0.012 0.00360285 0.0525738 -0.012 0.00422872 0.0528208 -0.0135 0.00468667 0.0491769 -0.012 0.00360285 0.0525738 -0.0135 0.00524184 0.0494676 -0.012 0.00300856 0.0522583 -0.012 0.00993416 0.0517523 -0.0135 0.00762499 0.0491172 -0.012 0.00939204 0.0521508 -0.0135 0.00762499 0.0491172 -0.012 0.0104282 0.0512956 -0.0135 0.00762499 0.0491172 -0.012 0.00993416 0.0517523 -0.012 0.0104282 0.0512956 -0.0135 0.00807301 0.0486791 -0.0135 0.00762499 0.0491172 0.0135 0.00468667 0.0491769 0.012 0.00194416 0.0514384 0.0135 0.00422123 0.0487573 -0.0135 0.00468667 0.0491769 -0.012 0.00245334 0.0518782 -0.012 0.00300856 0.0522583 -0.012 0.00194416 0.0514384 -0.012 0.00245334 0.0518782 -0.0135 0.00468667 0.0491769 -0.012 0.00562914 -0.00207674 -0.012 0.00536122 -0.00269394 -0.0135 0.00232444 -0.000920311 -0.0135 0.00232444 -0.000920311 -0.012 0.00536122 -0.00269394 -0.0135 0.00202254 -0.00146946 -0.0135 0.00202254 -0.00146946 -0.012 0.00536122 -0.00269394 -0.012 0.00502588 -0.00327727 -0.0135 0.00159356 -0.00192628 -0.012 0.00417061 -0.00431347 -0.012 0.00366143 -0.0047533 -0.0135 -0.00133957 -0.00211082 -0.0135 -0.000772542 -0.00237764 -0.012 -0.00269394 -0.00536122 -0.0135 -0.00133957 -0.00211082 -0.012 -0.00327727 -0.00502588 -0.012 -0.00381938 -0.00462735 -0.0135 -0.00133957 -0.00211082 -0.012 -0.00269394 -0.00536122 -0.012 -0.00327727 -0.00502588 -0.012 -0.00431347 -0.00417061 -0.012 -0.0047533 -0.00366143 -0.0135 -0.00182242 -0.00171137 -0.0135 -0.00182242 -0.00171137 -0.012 -0.0047533 -0.00366143 -0.0135 -0.00219077 -0.00120438 -0.0135 -0.00219077 -0.00120438 -0.012 -0.0047533 -0.00366143 -0.012 -0.00513337 -0.00310621 -0.012 -0.00587122 -0.00123646 -0.012 -0.00597274 -0.000571316 -0.0135 -0.00242146 -0.000621725 -0.012 -0.00569586 -0.00188605 -0.012 -0.00587122 -0.00123646 -0.0135 -0.00242146 -0.000621725 -0.0135 -0.00219077 -0.00120438 -0.012 -0.00544887 -0.00251193 -0.0135 -0.00242146 -0.000621725 -0.012 -0.00569586 -0.00188605 -0.0135 -0.00219077 -0.00120438 -0.012 -0.00513337 -0.00310621 -0.012 -0.00544887 -0.00251193 0.0135 0.00647839 0.0495984 0.012 0.00754819 0.0529512 0.012 0.00688684 0.0530751 0.0135 0.00708208 0.0494302 0.012 0.00754819 0.0529512 0.0135 0.00647839 0.0495984 0.0135 0.00708208 0.0494302 0.012 0.00819151 0.0527541 0.012 0.00754819 0.0529512 -0.0135 0.00839798 0.0481432 -0.012 0.0112481 0.0502312 -0.012 0.0115637 0.0496369 -0.0135 0.00807301 0.0486791 -0.012 0.0112481 0.0502312 -0.0135 0.00839798 0.0481432 -0.012 0.0108681 0.0507864 -0.012 0.0112481 0.0502312 -0.0135 0.00807301 0.0486791 0.012 0.00582626 -0.00143342 0.0135 0.00232444 -0.000920311 0.012 0.00562914 -0.00207674 0.012 0.00582626 -0.00143342 0.0135 0.00248029 -0.000313333 0.0135 0.00232444 -0.000920311 0.0135 0.00159356 -0.00192628 0.0135 0.00106445 -0.00226207 0.012 0.00310621 -0.00513337 -0.0135 0.000468453 -0.00245572 -0.012 0.00123646 -0.00587122 -0.012 0.000571316 -0.00597274 0.0135 -0.00242146 -0.000621725 0.012 -0.00544887 -0.00251193 0.0135 -0.00219077 -0.00120438 0.0135 -0.00219077 -0.00120438 0.012 -0.00544887 -0.00251193 0.012 -0.00513337 -0.00310621 0.012 -0.00599915 0.000101011 0.012 -0.00597274 -0.000571316 0.0135 -0.0025 -5.55112e-18 0.0135 -0.0025 -5.55112e-18 0.012 -0.00597274 -0.000571316 0.0135 -0.00242146 -0.000621725 0.0135 -0.00242146 -0.000621725 0.012 -0.00597274 -0.000571316 0.012 -0.00587122 -0.00123646 0.012 -0.00143342 -0.00582626 0.0135 -0.000156976 -0.00249507 0.0135 -0.000772542 -0.00237764 0.012 -0.00207674 -0.00562914 0.012 -0.00143342 -0.00582626 0.0135 -0.000772542 -0.00237764 -0.012 0.011986 0.0483614 -0.012 0.0120875 0.0476963 -0.0135 0.0085795 0.0475434 -0.0135 0.0085795 0.0475434 -0.012 0.0120875 0.0476963 -0.0135 0.00860614 0.0469174 -0.012 0.0121139 0.0470239 0.0135 0.0085795 0.0475434 0.012 0.0120875 0.0476963 0.012 0.011986 0.0483614 0.0135 0.00860614 0.0469174 0.012 0.0120875 0.0476963 0.0135 0.0085795 0.0475434 0.012 0.0121139 0.0470239 -0.0135 0.00366907 0.0476431 -0.012 0.000164657 0.047897 -0.012 0.000288514 0.0485583 -0.012 0.00048564 0.0492017 -0.0135 0.00366907 0.0476431 -0.012 0.000288514 0.0485583 -0.012 0.00048564 0.0492017 -0.0135 0.00387478 0.0482351 -0.0135 0.00366907 0.0476431 -0.0135 0.00387478 0.0482351 -0.012 0.00108889 0.0504022 -0.0135 0.00422123 0.0487573 0.012 0.00300856 0.0522583 0.012 0.00245334 0.0518782 0.0135 0.00468667 0.0491769 0.012 0.00194416 0.0514384 0.0135 0.00468667 0.0491769 0.012 0.00245334 0.0518782 -0.0135 0.00159356 -0.00192628 -0.012 0.00310621 -0.00513337 -0.0135 0.00106445 -0.00226207 -0.012 0.00366143 -0.0047533 -0.012 0.00310621 -0.00513337 -0.0135 0.00159356 -0.00192628 -0.012 0.00310621 -0.00513337 -0.012 0.00251193 -0.00544887 -0.0135 0.00106445 -0.00226207 -0.0135 -0.000156976 -0.00249507 -0.012 -0.00143342 -0.00582626 -0.0135 -0.000772542 -0.00237764 -0.012 -0.000772068 -0.00595012 0.012 0.00462735 -0.00381938 0.012 0.00502588 -0.00327727 0.0135 0.00202254 -0.00146946 0.0135 0.00159356 -0.00192628 0.012 0.00417061 -0.00431347 0.0135 0.00202254 -0.00146946 0.012 0.00462735 -0.00381938 -0.0135 0.00106445 -0.00226207 -0.012 0.00188605 -0.00569586 -0.0135 0.000468453 -0.00245572 -0.012 0.00188605 -0.00569586 -0.012 0.00123646 -0.00587122 -0.0135 0.000468453 -0.00245572 -0.012 0.00251193 -0.00544887 -0.012 0.00188605 -0.00569586 -0.0135 0.00106445 -0.00226207 0.0135 -0.00242146 -0.000621725 0.012 -0.00587122 -0.00123646 0.012 -0.00569586 -0.00188605 0.012 -0.00569586 -0.00188605 0.012 0.000571316 -0.00597274 0.0135 0.000468453 -0.00245572 0.0135 -0.000156976 -0.00249507 0.012 0.00188605 -0.00569586 0.0135 0.00106445 -0.00226207 0.0135 0.000468453 -0.00245572 0.012 -0.000772068 -0.00595012 0.0135 0.00106445 -0.00226207 0.012 0.00251193 -0.00544887 0.012 0.00310621 -0.00513337 0.012 0.00188605 -0.00569586 0.012 0.00251193 -0.00544887 0.0135 0.00106445 -0.00226207 0.0135 -0.00133957 -0.00211082 0.012 -0.00269394 -0.00536122 0.0135 -0.000772542 -0.00237764 0.012 -0.00269394 -0.00536122 0.012 -0.00207674 -0.00562914 0.0135 -0.000772542 -0.00237764 0.0135 -0.00133957 -0.00211082 0.012 -0.00327727 -0.00502588 0.012 -0.00269394 -0.00536122 0.0135 -0.00182242 -0.00171137 0.012 -0.0047533 -0.00366143 0.012 -0.00431347 -0.00417061 0.0135 -0.00219077 -0.00120438 0.012 -0.0047533 -0.00366143 0.0135 -0.00182242 -0.00171137 0.0135 -0.00219077 -0.00120438 0.012 -0.00513337 -0.00310621 0.012 -0.0047533 -0.00366143 0.0135 -0.00182242 -0.00171137 0.012 -0.00381938 -0.00462735 0.0135 -0.00133957 -0.00211082 0.012 -0.00431347 -0.00417061 0.012 -0.00381938 -0.00462735 0.0135 -0.00182242 -0.00171137 0.0135 -0.00133957 -0.00211082 0.012 -0.00381938 -0.00462735 0.012 -0.00327727 -0.00502588 -0.0135 0.00839798 0.0481432 -0.012 0.0115637 0.0496369 -0.012 0.0118106 0.049011 -0.0135 0.00839798 0.0481432 -0.012 0.0118106 0.049011 -0.0135 0.0085795 0.0475434 -0.012 0.0118106 0.049011 -0.012 0.011986 0.0483614 -0.0135 0.0085795 0.0475434 0.0135 0.00839798 0.0481432 0.012 0.0118106 0.049011 0.012 0.0115637 0.0496369 0.0135 0.0085795 0.0475434 0.012 0.0118106 0.049011 0.0135 0.00839798 0.0481432 0.012 0.011986 0.0483614 0.012 0.0118106 0.049011 0.0135 0.0085795 0.0475434 -0.0135 0.00387478 0.0482351 -0.012 0.000753556 0.0498189 -0.012 0.00108889 0.0504022 -0.0135 0.00387478 0.0482351 -0.012 0.00048564 0.0492017 -0.012 0.000753556 0.0498189 -0.012 0.00108889 0.0504022 -0.012 0.00148743 0.0509443 -0.0135 0.00422123 0.0487573 -0.0135 0.00422123 0.0487573 -0.012 0.00148743 0.0509443 -0.012 0.00194416 0.0514384 0.0135 0.00422123 0.0487573 0.012 0.00148743 0.0509443 0.012 0.00108889 0.0504022 0.012 0.00194416 0.0514384 0.012 0.00148743 0.0509443 0.0135 0.00422123 0.0487573 -0.0135 -0.000772542 -0.00237764 -0.012 -0.00207674 -0.00562914 -0.012 -0.00269394 -0.00536122 -0.012 -0.00143342 -0.00582626 -0.012 -0.00207674 -0.00562914 -0.0135 -0.000772542 -0.00237764 0.0135 0.00232444 -0.000920311 0.012 0.00536122 -0.00269394 0.012 0.00562914 -0.00207674 0.0135 0.00202254 -0.00146946 0.012 0.00536122 -0.00269394 0.0135 0.00232444 -0.000920311 0.012 0.00502588 -0.00327727 0.012 0.00536122 -0.00269394 0.0135 0.00202254 -0.00146946 0.0135 0.00159356 -0.00192628 0.012 0.00310621 -0.00513337 0.012 0.00366143 -0.0047533 0.012 0.00366143 -0.0047533 0.012 0.00417061 -0.00431347 0.0135 0.00159356 -0.00192628 0.012 0.00123646 -0.00587122 0.0135 0.000468453 -0.00245572 0.012 0.000571316 -0.00597274 0.0135 0.000468453 -0.00245572 0.012 0.00123646 -0.00587122 0.012 0.00188605 -0.00569586 0.012 -0.000101011 -0.00599915 0.012 -0.000772068 -0.00595012 0.012 -0.000101011 -0.00599915 0.0135 -0.000156976 -0.00249507 -0.012 -0.000101011 -0.00599915 -0.012 -0.000772068 -0.00595012 -0.0135 -0.000156976 -0.00249507 -0.012 -0.000101011 -0.00599915 -0.012 0.0121139 0.0470239 0.012 0.0120649 0.0463529 -0.012 0.0120649 0.0463529 0.012 0.0121139 0.0470239 0.012 0.00582626 -0.00143342 -0.012 0.00582626 -0.00143342 0.012 0.00595012 -0.000772068 -0.012 0.00595012 -0.000772068 0.012 0.00582626 -0.00143342 -0.012 0.00562914 -0.00207674 -0.012 0.00582626 -0.00143342 0.012 0.00562914 -0.00207674 -0.012 0.00880872 0.0524862 -0.012 0.00819151 0.0527541 0.012 0.00819151 0.0527541 0.012 0.00880872 0.0524862 -0.012 0.0108681 0.0507864 0.012 0.0104282 0.0512956 0.012 0.0108681 0.0507864 -0.012 0.0104282 0.0512956 -0.012 0.00993416 0.0517523 0.012 0.0104282 0.0512956 -0.012 0.0104282 0.0512956 0.012 0.00993416 0.0517523 0.012 0.00554346 0.0530977 0.012 0.00621579 0.0531241 -0.012 0.00554346 0.0530977 -0.012 0.00621579 0.0531241 0.012 0.00688684 0.0530751 -0.012 0.00688684 0.0530751 0.012 0.00621579 0.0531241 -0.012 0.00621579 0.0531241 -0.012 0.00880872 0.0524862 0.012 0.00880872 0.0524862 0.012 0.00939204 0.0521508 -0.012 0.00939204 0.0521508 -0.012 0.00993416 0.0517523 0.012 0.00939204 0.0521508 0.012 0.00993416 0.0517523 -0.012 0.00939204 0.0521508 -0.012 -0.00595012 0.000772068 -0.012 -0.00599915 0.000101011 0.012 -0.00599915 0.000101011 0.012 -0.00595012 0.000772068 -0.012 0.00554346 0.0530977 0.012 0.00487832 0.0529962 0.012 0.00554346 0.0530977 -0.012 0.00487832 0.0529962 -0.012 0.00422872 0.0528208 0.012 0.00422872 0.0528208 0.012 0.00487832 0.0529962 -0.012 0.00487832 0.0529962 0.012 0.00300856 0.0522583 -0.012 0.00360285 0.0525738 -0.012 0.00300856 0.0522583 0.012 0.00360285 0.0525738 -0.012 0.00422872 0.0528208 -0.012 0.00360285 0.0525738 0.012 0.00422872 0.0528208 0.012 0.00360285 0.0525738 0.012 0.00688684 0.0530751 0.012 0.00754819 0.0529512 -0.012 0.00688684 0.0530751 -0.012 0.00754819 0.0529512 0.012 0.00819151 0.0527541 -0.012 0.00819151 0.0527541 0.012 0.00754819 0.0529512 -0.012 0.00754819 0.0529512 -0.012 0.0112481 0.0502312 0.012 0.0115637 0.0496369 -0.012 0.0115637 0.0496369 0.012 0.0112481 0.0502312 0.012 0.0108681 0.0507864 -0.012 0.0112481 0.0502312 -0.012 0.0108681 0.0507864 0.012 0.0112481 0.0502312 0.012 -0.00513337 -0.00310621 0.012 -0.00544887 -0.00251193 -0.012 -0.00513337 -0.00310621 -0.012 -0.00544887 -0.00251193 0.012 -0.00587122 -0.00123646 0.012 -0.00597274 -0.000571316 -0.012 -0.00587122 -0.00123646 -0.012 -0.00597274 -0.000571316 0.012 -0.00597274 -0.000571316 0.012 -0.00599915 0.000101011 -0.012 -0.00599915 0.000101011 -0.012 -0.00597274 -0.000571316 0.012 0.011986 0.0483614 0.012 0.0120875 0.0476963 -0.012 0.011986 0.0483614 -0.012 0.0120875 0.0476963 -0.012 0.0121139 0.0470239 0.012 0.0120875 0.0476963 0.012 0.0121139 0.0470239 -0.012 0.0120875 0.0476963 -0.012 0.000288514 0.0485583 0.012 0.000288514 0.0485583 0.012 0.00048564 0.0492017 -0.012 0.00048564 0.0492017 -0.012 0.000164657 0.047897 0.012 0.000164657 0.047897 -0.012 0.000288514 0.0485583 0.012 0.000288514 0.0485583 -0.0135 -0.00242146 -0.000621725 -0.0135 -0.0025 -6.66134e-18 -0.0135 0.00387478 0.0482351 -0.0135 0.00860614 0.0469174 -0.0135 0.00248029 -0.000313333 -0.0135 0.00708208 0.0494302 -0.0135 0.00647839 0.0495984 -0.0135 -0.00242146 0.000621725 -0.0135 0.00232444 -0.000920311 -0.0135 0.00202254 -0.00146946 -0.0135 0.000468453 -0.00245572 -0.0135 -0.000156976 -0.00249507 -0.0135 0.0085795 0.0475434 -0.0135 0.00159356 -0.00192628 -0.0135 0.00762499 0.0491172 -0.0135 -0.000772542 -0.00237764 -0.0135 -0.00133957 -0.00211082 -0.0135 0.00468667 0.0491769 -0.0135 0.00422123 0.0487573 -0.0135 0.00366907 0.0476431 -0.0135 0.00585185 0.0496111 -0.0135 0.00106445 -0.00226207 -0.0135 -0.00219077 -0.00120438 -0.0135 0.00524184 0.0494676 -0.0135 0.00839798 0.0481432 -0.0135 -0.00182242 -0.00171137 -0.0135 0.00807301 0.0486791 -0.012 0.00300856 0.0522583 0.012 0.00245334 0.0518782 0.012 0.00300856 0.0522583 -0.012 0.00245334 0.0518782 0.012 0.00194416 0.0514384 0.012 0.00245334 0.0518782 -0.012 0.00194416 0.0514384 -0.012 0.00245334 0.0518782 -0.012 0.00462735 -0.00381938 -0.012 0.00502588 -0.00327727 0.012 0.00502588 -0.00327727 0.012 0.00462735 -0.00381938 0.012 0.00462735 -0.00381938 0.012 0.00417061 -0.00431347 -0.012 0.00462735 -0.00381938 -0.012 0.00417061 -0.00431347 -0.012 -0.00587122 -0.00123646 0.012 -0.00569586 -0.00188605 0.012 -0.00587122 -0.00123646 -0.012 -0.00569586 -0.00188605 0.012 -0.00544887 -0.00251193 0.012 -0.00569586 -0.00188605 -0.012 -0.00544887 -0.00251193 -0.012 -0.00569586 -0.00188605 0.0135 -0.00242146 0.000621725 0.0135 0.000468453 -0.00245572 0.0135 0.00366907 0.0476431 0.0135 0.00422123 0.0487573 0.0135 0.00387478 0.0482351 0.0135 0.00585185 0.0496111 0.0135 0.00647839 0.0495984 0.0135 0.00860614 0.0469174 0.0135 0.00248029 -0.000313333 0.0135 -0.00219077 -0.00120438 0.0135 -0.00242146 -0.000621725 0.0135 -0.0025 -5.55112e-18 0.0135 0.00524184 0.0494676 0.0135 0.0085795 0.0475434 0.0135 -0.00133957 -0.00211082 0.0135 -0.00182242 -0.00171137 0.0135 0.00839798 0.0481432 0.0135 0.00762499 0.0491172 0.0135 0.00807301 0.0486791 0.0135 0.00468667 0.0491769 0.0135 0.00708208 0.0494302 0.0135 0.00232444 -0.000920311 0.0135 0.00202254 -0.00146946 0.0135 0.00159356 -0.00192628 0.0135 0.00106445 -0.00226207 0.0135 -0.000156976 -0.00249507 0.0135 -0.000772542 -0.00237764 -0.012 -0.00143342 -0.00582626 0.012 -0.000772068 -0.00595012 0.012 -0.00143342 -0.00582626 -0.012 -0.000772068 -0.00595012 -0.012 0.00188605 -0.00569586 0.012 0.00251193 -0.00544887 0.012 0.00188605 -0.00569586 -0.012 0.00251193 -0.00544887 0.012 0.00310621 -0.00513337 0.012 0.00251193 -0.00544887 -0.012 0.00310621 -0.00513337 -0.012 0.00251193 -0.00544887 -0.012 -0.00327727 -0.00502588 0.012 -0.00269394 -0.00536122 0.012 -0.00327727 -0.00502588 -0.012 -0.00269394 -0.00536122 0.012 -0.00431347 -0.00417061 0.012 -0.0047533 -0.00366143 -0.012 -0.00431347 -0.00417061 -0.012 -0.0047533 -0.00366143 -0.012 -0.00513337 -0.00310621 0.012 -0.0047533 -0.00366143 0.012 -0.00513337 -0.00310621 -0.012 -0.0047533 -0.00366143 -0.012 -0.00327727 -0.00502588 0.012 -0.00381938 -0.00462735 -0.012 -0.00381938 -0.00462735 0.012 -0.00327727 -0.00502588 -0.012 -0.00431347 -0.00417061 -0.012 -0.00381938 -0.00462735 0.012 -0.00381938 -0.00462735 0.012 -0.00431347 -0.00417061 0.012 0.0115637 0.0496369 0.012 0.0118106 0.049011 -0.012 0.0115637 0.0496369 -0.012 0.0118106 0.049011 0.012 0.011986 0.0483614 -0.012 0.011986 0.0483614 0.012 0.0118106 0.049011 -0.012 0.0118106 0.049011 0.012 0.00048564 0.0492017 -0.012 0.000753556 0.0498189 -0.012 0.00048564 0.0492017 0.012 0.000753556 0.0498189 -0.012 0.00108889 0.0504022 -0.012 0.000753556 0.0498189 0.012 0.00108889 0.0504022 0.012 0.000753556 0.0498189 0.012 0.00108889 0.0504022 0.012 0.00148743 0.0509443 -0.012 0.00108889 0.0504022 -0.012 0.00148743 0.0509443 -0.012 0.00194416 0.0514384 0.012 0.00148743 0.0509443 0.012 0.00194416 0.0514384 -0.012 0.00148743 0.0509443 0.012 -0.00269394 -0.00536122 -0.012 -0.00269394 -0.00536122 -0.012 -0.00207674 -0.00562914 0.012 -0.00207674 -0.00562914 -0.012 -0.00207674 -0.00562914 -0.012 -0.00143342 -0.00582626 0.012 -0.00143342 -0.00582626 0.012 -0.00207674 -0.00562914 0.012 0.00536122 -0.00269394 -0.012 0.00562914 -0.00207674 0.012 0.00562914 -0.00207674 -0.012 0.00536122 -0.00269394 0.012 0.00502588 -0.00327727 -0.012 0.00502588 -0.00327727 0.012 0.00536122 -0.00269394 -0.012 0.00536122 -0.00269394 -0.012 0.00310621 -0.00513337 -0.012 0.00366143 -0.0047533 0.012 0.00366143 -0.0047533 0.012 0.00310621 -0.00513337 0.012 0.00417061 -0.00431347 0.012 0.00366143 -0.0047533 -0.012 0.00417061 -0.00431347 -0.012 0.00366143 -0.0047533 0.012 0.000571316 -0.00597274 -0.012 0.000571316 -0.00597274 0.012 0.00123646 -0.00587122 -0.012 0.00123646 -0.00587122 -0.012 0.00188605 -0.00569586 0.012 0.00188605 -0.00569586 0.012 0.00123646 -0.00587122 -0.012 0.00123646 -0.00587122 0.012 0.000571316 -0.00597274 -0.012 -0.000101011 -0.00599915 -0.012 0.000571316 -0.00597274 0.012 -0.000101011 -0.00599915 0.012 -0.000772068 -0.00595012 -0.012 -0.000772068 -0.00595012 -0.012 -0.000101011 -0.00599915 0.012 -0.000101011 -0.00599915</float_array>
          <technique_common>
            <accessor count="760" source="#verts-array-array" stride="3">
              <param type="float" name="X"/>
              <param type="float" name="Y"/>
              <param type="float" name="Z"/>
            </accessor>
          </technique_common>
        </source>
        <source id="normals-array">
          <float_array count="2280" id="normals-array-array">0.9198863 -0.3889511 0.05026097 0.919491 -0.3898434 0.0505801 0.9194681 -0.3898961 0.05059164 2.332176e-07 -0.9916864 0.1286783 5.718641e-07 -0.9916864 0.128678 1.37188e-07 -0.9916865 0.1286778 -0.9192471 0.3904109 -0.05063758 -0.919151 0.3906308 -0.05068585 -0.9192524 0.3903986 -0.0506349 -0.9187643 0.393758 -0.02875429 -0.9187643 0.393758 -0.02875429 -0.9187643 0.393758 -0.02875429 -0.91894 0.3876574 -0.07260158 -0.91894 0.3876574 -0.07260158 -0.91894 0.3876574 -0.07260158 -0.9191455 0.3906432 -0.05068858 0.919151 0.3906308 -0.05068585 0.9192471 0.3904109 -0.05063758 0.9192524 0.3903986 -0.0506349 0.9187643 0.393758 -0.02875429 0.9187643 0.393758 -0.02875429 0.9187643 0.393758 -0.02875429 0.9199413 -0.3889648 0.0491364 0.9199216 -0.3889288 0.04978507 0.91894 0.3876574 -0.07260158 0.91894 0.3876574 -0.07260158 0.91894 0.3876574 -0.07260158 0.9191455 0.3906432 -0.05068858 0.9198995 -0.3704276 0.1287175 0.9198995 -0.3704276 0.1287175 0.9198995 -0.3704276 0.1287175 0.9199343 -0.3267096 0.2167527 0.9199343 -0.3267096 0.2167527 0.9199343 -0.3267096 0.2167527 -0.9197619 0.02363882 -0.3917643 -0.919815 0.02463687 -0.3915781 -0.9193484 0.016397 -0.3931025 -0.919832 -0.3892192 -0.04916854 -0.919832 -0.3892192 -0.04916854 -0.919832 -0.3892192 -0.04916854 -0.9188381 -0.3943306 -0.01548967 -0.9188381 -0.3943306 -0.01548967 -0.9188381 -0.3943306 -0.01548967 -0.9199216 -0.3889288 0.04978507 -0.9199413 -0.3889648 0.0491364 -0.9198863 -0.3889511 0.05026097 -0.9190311 -0.393137 0.028724 -0.9190311 -0.393137 0.028724 -0.9190311 -0.393137 0.028724 -1.37188e-07 -0.9916865 0.1286778 -5.718641e-07 -0.9916864 0.128678 -2.332176e-07 -0.9916864 0.1286783 -0.9190314 0.02870675 0.3931377 -0.9190314 0.02870675 0.3931377 -0.9190314 0.02870675 0.3931377 -0.9188478 0.2986121 0.2579719 -0.9188478 0.2986121 0.2579719 -0.9188478 0.2986121 0.2579719 -7.152014e-07 0.9916863 -0.128679 -1.40492e-06 0.9916867 -0.1286761 -3.452775e-06 0.9916865 -0.1286776 0.9188478 0.2986121 0.2579719 0.9188478 0.2986121 0.2579719 0.9188478 0.2986121 0.2579719 0.9198482 0.274257 0.2804681 0.9198482 0.274257 0.2804681 0.9198482 0.274257 0.2804681 0.919246 0.2672372 0.2890867 0.919246 0.2672372 0.2890867 0.919246 0.2672372 0.2890867 0.9189824 -0.01547167 0.3939949 0.9189824 -0.01547167 0.3939949 0.9189824 -0.01547167 0.3939949 0.9199403 0.007944867 0.391978 0.9199403 0.007944867 0.391978 0.9199403 0.007944867 0.391978 0.9190314 0.02870675 0.3931377 0.9190314 0.02870675 0.3931377 0.9190314 0.02870675 0.3931377 0.9187713 0.2338245 0.3180964 0.9187713 0.2338245 0.3180964 0.9187713 0.2338245 0.3180964 -0.9194681 -0.3898961 0.05059164 -0.919491 -0.3898434 0.0505801 -0.9192005 -0.1026518 0.3801749 -0.9192005 -0.1026518 0.3801749 -0.9192005 -0.1026518 0.3801749 -0.919552 0.19592 0.3406457 -0.9195757 0.1962015 0.3404197 -0.9195489 0.1958828 0.3406755 -0.9187688 0.1571936 0.362152 -0.9187688 0.1571936 0.362152 -0.9187688 0.1571936 0.362152 -0.9188681 -0.05952002 0.3900497 -0.9188681 -0.05952002 0.3900497 -0.9188681 -0.05952002 0.3900497 -0.9198771 -0.08981039 0.3817855 -0.9198771 -0.08981039 0.3817855 -0.9198771 -0.08981039 0.3817855 -0.9189824 -0.01547167 0.3939949 -0.9189824 -0.01547167 0.3939949 -0.9189824 -0.01547167 0.3939949 -0.9199403 0.007944867 0.391978 -0.9199403 0.007944867 0.391978 -0.9199403 0.007944867 0.391978 -0.9197949 -0.2627442 0.2914497 -0.9197949 -0.2627442 0.2914497 -0.9197949 -0.2627442 0.2914497 0.9189533 -0.3418945 0.1965528 0.9189533 -0.3418945 0.1965528 0.9189533 -0.3418945 0.1965528 0.9188902 -0.3618892 0.1570892 0.9188902 -0.3618892 0.1570892 0.9188902 -0.3618892 0.1570892 0.9187877 -0.3880052 0.07267067 0.9187877 -0.3880052 0.07267067 0.9187877 -0.3880052 0.07267067 0.9191594 -0.3766062 0.1153856 0.9191594 -0.3766062 0.1153856 0.9191594 -0.3766062 0.1153856 -0.9196404 0.2865437 -0.2686154 -0.9194659 0.288711 -0.2668864 -0.9194866 0.2884586 -0.2670879 -0.9187608 0.3181052 -0.2338538 -0.9187608 0.3181052 -0.2338538 -0.9187608 0.3181052 -0.2338538 -0.9190836 0.3767722 -0.1154471 -0.9190836 0.3767722 -0.1154471 -0.9190836 0.3767722 -0.1154471 -0.9199303 0.3797632 -0.09750943 -0.9199303 0.3797632 -0.09750943 -0.9199303 0.3797632 -0.09750943 -0.9196615 0.2862755 -0.2688291 -0.9199425 -0.2499048 -0.3020816 -0.9199425 -0.2499048 -0.3020816 -0.9199425 -0.2499048 -0.3020816 -0.9190146 -0.2676017 -0.2894849 -0.9190146 -0.2676017 -0.2894849 -0.9190146 -0.2676017 -0.2894849 0.9187688 0.1571936 0.362152 0.9187688 0.1571936 0.362152 0.9187688 0.1571936 0.362152 0.919552 0.19592 0.3406457 0.9195489 0.1958828 0.3406755 0.9195757 0.1962015 0.3404197 0.919579 0.1962411 0.3403878 -0.9188369 0.07266947 0.387889 -0.9188369 0.07266947 0.387889 -0.9188369 0.07266947 0.387889 -0.9198299 0.1052976 0.3779224 -0.9198299 0.1052976 0.3779224 -0.9198299 0.1052976 0.3779224 -0.9192705 0.1153073 0.3763589 -0.9192705 0.1153073 0.3763589 -0.9192705 0.1153073 0.3763589 0.9190023 0.3481999 0.1849097 0.9190023 0.3481999 0.1849097 0.9190023 0.3481999 0.1849097 0.9199424 0.335233 0.2032849 0.9199424 0.335233 0.2032849 0.9199424 0.335233 0.2032849 0.9190141 0.3253217 0.2226631 0.9190141 0.3253217 0.2226631 0.9190141 0.3253217 0.2226631 0.9190311 -0.393137 0.028724 0.9190311 -0.393137 0.028724 0.9190311 -0.393137 0.028724 7.152014e-07 0.9916863 -0.128679 3.452775e-06 0.9916865 -0.1286776 1.40492e-06 0.9916867 -0.1286761 0.9188681 -0.05952002 0.3900497 0.9188681 -0.05952002 0.3900497 0.9188681 -0.05952002 0.3900497 0.9198771 -0.08981039 0.3817855 0.9198771 -0.08981039 0.3817855 0.9198771 -0.08981039 0.3817855 0.9192005 -0.1026518 0.3801749 0.9192005 -0.1026518 0.3801749 0.9192005 -0.1026518 0.3801749 0.9187771 -0.1449222 0.3672141 0.9187771 -0.1449222 0.3672141 0.9187771 -0.1449222 0.3672141 0.9196347 -0.1822008 0.3479582 0.9195062 -0.1841097 0.3472924 0.9196191 -0.1824356 0.3478764 0.9194911 -0.1843306 0.3472152 -0.9187771 -0.1449222 0.3672141 -0.9187771 -0.1449222 0.3672141 -0.9187771 -0.1449222 0.3672141 -0.9196191 -0.1824356 0.3478764 -0.9195062 -0.1841097 0.3472924 -0.9196347 -0.1822008 0.3479582 -0.9194911 -0.1843306 0.3472152 -0.9187713 0.2338245 0.3180964 -0.9187713 0.2338245 0.3180964 -0.9187713 0.2338245 0.3180964 -0.919579 0.1962411 0.3403878 -0.919246 0.2672372 0.2890867 -0.919246 0.2672372 0.2890867 -0.919246 0.2672372 0.2890867 -0.9198482 0.274257 0.2804681 -0.9198482 0.274257 0.2804681 -0.9198482 0.274257 0.2804681 0.9197949 -0.2627442 0.2914497 0.9197949 -0.2627442 0.2914497 0.9197949 -0.2627442 0.2914497 -0.9187612 -0.2230301 0.3257844 -0.9187612 -0.2230301 0.3257844 -0.9187612 -0.2230301 0.3257844 -0.9193139 -0.2572338 0.2978131 -0.9193139 -0.2572338 0.2978131 -0.9193139 -0.2572338 0.2978131 -0.9188135 0.3620518 -0.1571629 -0.9188135 0.3620518 -0.1571629 -0.9188135 0.3620518 -0.1571629 -0.9197773 0.3438977 -0.1890611 -0.9197773 0.3438977 -0.1890611 -0.9197773 0.3438977 -0.1890611 -0.9193382 0.341119 -0.1960997 -0.9193382 0.341119 -0.1960997 -0.9193382 0.341119 -0.1960997 -0.9187823 0.2580541 -0.2987425 -0.9187823 0.2580541 -0.2987425 -0.9187823 0.2580541 -0.2987425 -0.9198622 -0.1670067 -0.3549116 -0.9198622 -0.1670067 -0.3549116 -0.9198622 -0.1670067 -0.3549116 -0.9189986 -0.2335258 -0.317659 -0.9189986 -0.2335258 -0.317659 -0.9189986 -0.2335258 -0.317659 -0.918857 -0.1966591 -0.3420922 -0.918857 -0.1966591 -0.3420922 -0.918857 -0.1966591 -0.3420922 -0.9188473 -0.298628 -0.2579552 -0.9188473 -0.298628 -0.2579552 -0.9188473 -0.298628 -0.2579552 -0.9198476 -0.3173579 -0.2305741 -0.9198476 -0.3173579 -0.2305741 -0.9198476 -0.3173579 -0.2305741 -0.9192452 -0.3248617 -0.2223805 -0.9192452 -0.3248617 -0.2223805 -0.9192452 -0.3248617 -0.2223805 -0.9192679 -0.3891261 -0.05939181 -0.9192679 -0.3891261 -0.05939181 -0.9192679 -0.3891261 -0.05939181 -0.9187669 -0.3811561 -0.1028951 -0.9187669 -0.3811561 -0.1028951 -0.9187669 -0.3811561 -0.1028951 -0.9195772 -0.3653178 -0.1446399 -0.9195509 -0.3655207 -0.144294 -0.919574 -0.3653428 -0.1445972 -0.9195478 -0.3655442 -0.1442539 -0.91877 -0.3486994 -0.1851228 -0.91877 -0.3486994 -0.1851228 -0.91877 -0.3486994 -0.1851228 0.9188369 0.07266947 0.387889 0.9188369 0.07266947 0.387889 0.9188369 0.07266947 0.387889 0.9198299 0.1052976 0.3779224 0.9198299 0.1052976 0.3779224 0.9198299 0.1052976 0.3779224 0.9192705 0.1153073 0.3763589 0.9192705 0.1153073 0.3763589 0.9192705 0.1153073 0.3763589 -0.9190023 0.3481999 0.1849097 -0.9190023 0.3481999 0.1849097 -0.9190023 0.3481999 0.1849097 -0.9199424 0.335233 0.2032849 -0.9199424 0.335233 0.2032849 -0.9199424 0.335233 0.2032849 -0.9190141 0.3253217 0.2226631 -0.9190141 0.3253217 0.2226631 -0.9190141 0.3253217 0.2226631 0.9190836 0.3767722 -0.1154471 0.9190836 0.3767722 -0.1154471 0.9190836 0.3767722 -0.1154471 0.9199303 0.3797632 -0.09750943 0.9199303 0.3797632 -0.09750943 0.9199303 0.3797632 -0.09750943 0.9198879 0.2101443 -0.3311279 0.9198879 0.2101443 -0.3311279 0.9198879 0.2101443 -0.3311279 -0.9188294 0.05954608 -0.3901368 -0.9188294 0.05954608 -0.3901368 -0.9188294 0.05954608 -0.3901368 0.919574 -0.3653428 -0.1445972 0.9195509 -0.3655207 -0.144294 0.9195772 -0.3653178 -0.1446399 0.91877 -0.3486994 -0.1851228 0.91877 -0.3486994 -0.1851228 0.91877 -0.3486994 -0.1851228 0.9188381 -0.3943306 -0.01548967 0.9188381 -0.3943306 -0.01548967 0.9188381 -0.3943306 -0.01548967 0.919832 -0.3892192 -0.04916854 0.919832 -0.3892192 -0.04916854 0.919832 -0.3892192 -0.04916854 0.9192679 -0.3891261 -0.05939181 0.9192679 -0.3891261 -0.05939181 0.9192679 -0.3891261 -0.05939181 0.9195291 -0.07248324 -0.3862802 0.9195971 -0.0734744 -0.385931 0.9196065 -0.07361372 -0.3858819 0.9187738 -0.1156585 -0.3774624 0.9187738 -0.1156585 -0.3774624 0.9187738 -0.1156585 -0.3774624 -0.9187737 0.3902663 0.05955774 -0.9187737 0.3902663 0.05955774 -0.9187737 0.3902663 0.05955774 -0.9196048 0.3924896 0.01670273 -0.9195291 0.3927141 0.01555331 -0.9195955 0.3925173 0.01656105 -0.9195202 0.3927401 0.0154202 0.9187737 0.3902663 0.05955774 0.9187737 0.3902663 0.05955774 0.9187737 0.3902663 0.05955774 0.9195955 0.3925173 0.01656105 0.9195291 0.3927141 0.01555331 0.9196048 0.3924896 0.01670273 0.9195202 0.3927401 0.0154202 -0.9187877 -0.3880052 0.07267067 -0.9187877 -0.3880052 0.07267067 -0.9187877 -0.3880052 0.07267067 -0.9191594 -0.3766062 0.1153856 -0.9191594 -0.3766062 0.1153856 -0.9191594 -0.3766062 0.1153856 -0.9198995 -0.3704276 0.1287175 -0.9198995 -0.3704276 0.1287175 -0.9198995 -0.3704276 0.1287175 -0.9199343 -0.3267096 0.2167527 -0.9199343 -0.3267096 0.2167527 -0.9199343 -0.3267096 0.2167527 0.9187612 -0.2230301 0.3257844 0.9187612 -0.2230301 0.3257844 0.9187612 -0.2230301 0.3257844 0.9193139 -0.2572338 0.2978131 0.9193139 -0.2572338 0.2978131 0.9193139 -0.2572338 0.2978131 -0.9198879 0.2101443 -0.3311279 -0.9198879 0.2101443 -0.3311279 -0.9198879 0.2101443 -0.3311279 -0.9191808 0.2224655 -0.3249858 -0.9191808 0.2224655 -0.3249858 -0.9191808 0.2224655 -0.3249858 -0.9188781 0.1850047 -0.348477 -0.9188781 0.1850047 -0.348477 -0.9188781 0.1850047 -0.348477 -0.9195971 -0.0734744 -0.385931 -0.9195291 -0.07248324 -0.3862802 -0.9196065 -0.07361372 -0.3858819 -0.91952 -0.0723523 -0.3863263 0.9187608 0.3181052 -0.2338538 0.9187608 0.3181052 -0.2338538 0.9187608 0.3181052 -0.2338538 0.9196615 0.2862755 -0.2688291 0.9194866 0.2884586 -0.2670879 0.9196404 0.2865437 -0.2686154 0.9194659 0.288711 -0.2668864 -0.9199388 0.1211532 -0.3728733 -0.9199388 0.1211532 -0.3728733 -0.9199388 0.1211532 -0.3728733 -0.9190481 0.1027244 -0.3805238 -0.9190481 0.1027244 -0.3805238 -0.9190481 0.1027244 -0.3805238 -0.9189682 0.1447508 -0.3668032 -0.9189682 0.1447508 -0.3668032 -0.9189682 0.1447508 -0.3668032 0.9187669 -0.3811561 -0.1028951 0.9187669 -0.3811561 -0.1028951 0.9187669 -0.3811561 -0.1028951 0.9195478 -0.3655442 -0.1442539 0.9193484 0.016397 -0.3931025 0.919815 0.02463687 -0.3915781 0.9197619 0.02363882 -0.3917643 0.9199388 0.1211532 -0.3728733 0.9199388 0.1211532 -0.3728733 0.9199388 0.1211532 -0.3728733 0.91952 -0.0723523 -0.3863263 0.9188781 0.1850047 -0.348477 0.9188781 0.1850047 -0.348477 0.9188781 0.1850047 -0.348477 0.9189682 0.1447508 -0.3668032 0.9189682 0.1447508 -0.3668032 0.9189682 0.1447508 -0.3668032 0.9198622 -0.1670067 -0.3549116 0.9198622 -0.1670067 -0.3549116 0.9198622 -0.1670067 -0.3549116 0.9192236 -0.1567823 -0.3611749 0.9192236 -0.1567823 -0.3611749 0.9192236 -0.1567823 -0.3611749 0.918857 -0.1966591 -0.3420922 0.918857 -0.1966591 -0.3420922 0.918857 -0.1966591 -0.3420922 0.9188473 -0.298628 -0.2579552 0.9188473 -0.298628 -0.2579552 0.9188473 -0.298628 -0.2579552 0.9198476 -0.3173579 -0.2305741 0.9198476 -0.3173579 -0.2305741 0.9198476 -0.3173579 -0.2305741 0.9192452 -0.3248617 -0.2223805 0.9192452 -0.3248617 -0.2223805 0.9192452 -0.3248617 -0.2223805 0.9199425 -0.2499048 -0.3020816 0.9199425 -0.2499048 -0.3020816 0.9199425 -0.2499048 -0.3020816 0.9190146 -0.2676017 -0.2894849 0.9190146 -0.2676017 -0.2894849 0.9190146 -0.2676017 -0.2894849 0.9189986 -0.2335258 -0.317659 0.9189986 -0.2335258 -0.317659 0.9189986 -0.2335258 -0.317659 -0.9188589 0.3670596 0.144795 -0.9188589 0.3670596 0.144795 -0.9188589 0.3670596 0.144795 -0.9198612 0.3754283 0.1136177 -0.9198612 0.3754283 0.1136177 -0.9198612 0.3754283 0.1136177 -0.9192248 0.3801204 0.1026369 -0.9192248 0.3801204 0.1026369 -0.9192248 0.3801204 0.1026369 0.9188589 0.3670596 0.144795 0.9188589 0.3670596 0.144795 0.9188589 0.3670596 0.144795 0.9198612 0.3754283 0.1136177 0.9198612 0.3754283 0.1136177 0.9198612 0.3754283 0.1136177 0.9192248 0.3801204 0.1026369 0.9192248 0.3801204 0.1026369 0.9192248 0.3801204 0.1026369 -0.9189533 -0.3418945 0.1965528 -0.9189533 -0.3418945 0.1965528 -0.9189533 -0.3418945 0.1965528 -0.9188902 -0.3618892 0.1570892 -0.9188902 -0.3618892 0.1570892 -0.9188902 -0.3618892 0.1570892 -0.9190649 -0.3175302 0.23344 -0.9190649 -0.3175302 0.23344 -0.9190649 -0.3175302 0.23344 -0.9188194 -0.2898241 0.2679048 -0.9188194 -0.2898241 0.2679048 -0.9188194 -0.2898241 0.2679048 0.9190649 -0.3175302 0.23344 0.9190649 -0.3175302 0.23344 0.9190649 -0.3175302 0.23344 0.9188194 -0.2898241 0.2679048 0.9188194 -0.2898241 0.2679048 0.9188194 -0.2898241 0.2679048 -0.9192236 -0.1567823 -0.3611749 -0.9192236 -0.1567823 -0.3611749 -0.9192236 -0.1567823 -0.3611749 -0.9187738 -0.1156585 -0.3774624 -0.9187738 -0.1156585 -0.3774624 -0.9187738 -0.1156585 -0.3774624 0.9188135 0.3620518 -0.1571629 0.9188135 0.3620518 -0.1571629 0.9188135 0.3620518 -0.1571629 0.9197773 0.3438977 -0.1890611 0.9197773 0.3438977 -0.1890611 0.9197773 0.3438977 -0.1890611 0.9193382 0.341119 -0.1960997 0.9193382 0.341119 -0.1960997 0.9193382 0.341119 -0.1960997 0.9191808 0.2224655 -0.3249858 0.9191808 0.2224655 -0.3249858 0.9191808 0.2224655 -0.3249858 0.9187823 0.2580541 -0.2987425 0.9187823 0.2580541 -0.2987425 0.9187823 0.2580541 -0.2987425 0.9188294 0.05954608 -0.3901368 0.9188294 0.05954608 -0.3901368 0.9188294 0.05954608 -0.3901368 0.9190481 0.1027244 -0.3805238 0.9190481 0.1027244 -0.3805238 0.9190481 0.1027244 -0.3805238 0.9192906 0.01544825 -0.3932762 0.9187642 -0.0287693 -0.3937571 0.9187642 -0.0287693 -0.3937571 0.9187642 -0.0287693 -0.3937571 -0.9192906 0.01544825 -0.3932762 -0.9187642 -0.0287693 -0.3937571 -0.9187642 -0.0287693 -0.3937571 -0.9187642 -0.0287693 -0.3937571 0 0.9973443 -0.07283134 0 0.9973443 -0.07283134 0 0.9973443 -0.07283134 0 0.9973443 -0.07283134 0 0.9829108 -0.1840824 0 0.9829108 -0.1840824 0 0.9829108 -0.1840824 0 0.9829108 -0.1840824 0 0.9561228 -0.2929663 0 0.9561228 -0.2929663 0 0.9561228 -0.2929663 0 0.9561228 -0.2929663 0 0.3981641 0.9173142 0 0.3981641 0.9173142 0 0.3981641 0.9173142 0 0.3981641 0.9173142 0 0.7567231 0.6537355 0 0.7567231 0.6537355 0 0.7567231 0.6537355 0 0.7567231 0.6537355 0 0.6788119 0.7343122 0 0.6788119 0.7343122 0 0.6788119 0.7343122 0 0.6788119 0.7343122 0 -0.03923846 0.9992299 0 -0.03923846 0.9992299 0 -0.03923846 0.9992299 0 -0.03923846 0.9992299 0 0.07282568 0.9973447 0 0.07282568 0.9973447 0 0.07282568 0.9973447 0 0.07282568 0.9973447 0 0.4984603 0.8669126 0 0.4984603 0.8669126 0 0.4984603 0.8669126 0 0.4984603 0.8669126 0 0.5922756 0.8057355 0 0.5922756 0.8057355 0 0.5922756 0.8057355 0 0.5922756 0.8057355 0 -0.9973415 0.07286934 0 -0.9973415 0.07286934 0 -0.9973415 0.07286934 0 -0.9973415 0.07286934 0 -0.1508498 0.9885567 0 -0.1508498 0.9885567 0 -0.1508498 0.9885567 0 -0.1508498 0.9885567 0 -0.2606766 0.9654262 0 -0.2606766 0.9654262 0 -0.2606766 0.9654262 0 -0.2606766 0.9654262 0 -0.4689023 0.8832501 0 -0.4689023 0.8832501 0 -0.4689023 0.8832501 0 -0.4689023 0.8832501 0 -0.3670992 0.9301818 0 -0.3670992 0.9301818 0 -0.3670992 0.9301818 0 -0.3670992 0.9301818 0 0.1841424 0.9828996 0 0.1841424 0.9828996 0 0.1841424 0.9828996 0 0.1841424 0.9828996 0 0.2929358 0.9561321 0 0.2929358 0.9561321 0 0.2929358 0.9561321 0 0.2929358 0.9561321 0 0.8831909 0.4690137 0 0.8831909 0.4690137 0 0.8831909 0.4690137 0 0.8831909 0.4690137 0 0.825219 0.5648128 0 0.825219 0.5648128 0 0.825219 0.5648128 0 0.825219 0.5648128 0 -0.8832456 -0.4689106 0 -0.8832456 -0.4689106 0 -0.8832456 -0.4689106 0 -0.8832456 -0.4689106 0 -0.9885519 -0.1508814 0 -0.9885519 -0.1508814 0 -0.9885519 -0.1508814 0 -0.9885519 -0.1508814 0 -0.9992294 -0.03925065 0 -0.9992294 -0.03925065 0 -0.9992294 -0.03925065 0 -0.9992294 -0.03925065 0 0.9885549 0.1508613 0 0.9885549 0.1508613 0 0.9885549 0.1508613 0 0.9885549 0.1508613 0 0.9992301 0.03923287 0 0.9992301 0.03923287 0 0.9992301 0.03923287 0 0.9992301 0.03923287 0 -0.9561303 0.2929416 0 -0.9561303 0.2929416 0 -0.9561303 0.2929416 0 -0.9561303 0.2929416 0 -0.982909 0.184092 0 -0.982909 0.184092 0 -0.982909 0.184092 0 -0.982909 0.184092 -1 0 0 -1 0 0 -1 0 0 -1 0 0 -1 0 0 -1 0 0 -1 0 0 -1 0 0 -1 0 0 -1 0 0 -1 0 0 -1 0 0 -1 0 0 -1 0 0 -1 0 0 -1 0 0 -1 0 0 -1 0 0 -1 0 0 -1 0 0 -1 0 0 -1 0 0 -1 0 0 -1 0 0 -1 0 0 -1 0 0 -1 0 0 0 -0.5648995 0.8251597 0 -0.5648995 0.8251597 0 -0.5648995 0.8251597 0 -0.5648995 0.8251597 0 -0.6536657 0.7567834 0 -0.6536657 0.7567834 0 -0.6536657 0.7567834 0 -0.6536657 0.7567834 0 0.8057079 -0.592313 0 0.8057079 -0.592313 0 0.8057079 -0.592313 0 0.8057079 -0.592313 0 0.7343166 -0.6788071 0 0.7343166 -0.6788071 0 0.7343166 -0.6788071 0 0.7343166 -0.6788071 0 -0.96544 -0.2606255 0 -0.96544 -0.2606255 0 -0.96544 -0.2606255 0 -0.96544 -0.2606255 0 -0.9301898 -0.3670789 0 -0.9301898 -0.3670789 0 -0.9301898 -0.3670789 0 -0.9301898 -0.3670789 1 0 0 1 0 0 1 0 0 1 0 0 1 0 0 1 0 0 1 0 0 1 0 0 1 0 0 1 0 0 1 0 0 1 0 0 1 0 0 1 0 0 1 0 0 1 0 0 1 0 0 1 0 0 1 0 0 1 0 0 1 0 0 1 0 0 1 0 0 1 0 0 1 0 0 1 0 0 1 0 0 0 -0.1840824 -0.9829108 0 -0.1840824 -0.9829108 0 -0.1840824 -0.9829108 0 -0.1840824 -0.9829108 0 0.3670789 -0.9301898 0 0.3670789 -0.9301898 0 0.3670789 -0.9301898 0 0.3670789 -0.9301898 0 0.4689106 -0.8832456 0 0.4689106 -0.8832456 0 0.4689106 -0.8832456 0 0.4689106 -0.8832456 0 -0.4983876 -0.8669543 0 -0.4983876 -0.8669543 0 -0.4983876 -0.8669543 0 -0.4983876 -0.8669543 0 -0.7567613 -0.6536913 0 -0.7567613 -0.6536913 0 -0.7567613 -0.6536913 0 -0.7567613 -0.6536913 0 -0.8251809 -0.5648686 0 -0.8251809 -0.5648686 0 -0.8251809 -0.5648686 0 -0.8251809 -0.5648686 0 -0.592313 -0.8057079 0 -0.592313 -0.8057079 0 -0.592313 -0.8057079 0 -0.592313 -0.8057079 0 -0.6788071 -0.7343166 0 -0.6788071 -0.7343166 0 -0.6788071 -0.7343166 0 -0.6788071 -0.7343166 0 0.9302391 0.3669539 0 0.9302391 0.3669539 0 0.9302391 0.3669539 0 0.9302391 0.3669539 0 0.9654263 0.2606763 0 0.9654263 0.2606763 0 0.9654263 0.2606763 0 0.9654263 0.2606763 0 -0.9173052 0.3981848 0 -0.9173052 0.3981848 0 -0.9173052 0.3981848 0 -0.9173052 0.3981848 0 -0.8669463 0.4984016 0 -0.8669463 0.4984016 0 -0.8669463 0.4984016 0 -0.8669463 0.4984016 0 -0.8056971 0.5923278 0 -0.8056971 0.5923278 0 -0.8056971 0.5923278 0 -0.8056971 0.5923278 0 -0.73433 0.6787927 0 -0.73433 0.6787927 0 -0.73433 0.6787927 0 -0.73433 0.6787927 0 -0.3981914 -0.9173024 0 -0.3981914 -0.9173024 0 -0.3981914 -0.9173024 0 -0.3981914 -0.9173024 0 -0.2929663 -0.9561228 0 -0.2929663 -0.9561228 0 -0.2929663 -0.9561228 0 -0.2929663 -0.9561228 0 0.9173024 -0.3981914 0 0.9173024 -0.3981914 0 0.9173024 -0.3981914 0 0.9173024 -0.3981914 0 0.8669543 -0.4983876 0 0.8669543 -0.4983876 0 0.8669543 -0.4983876 0 0.8669543 -0.4983876 0 0.5648686 -0.8251809 0 0.5648686 -0.8251809 0 0.5648686 -0.8251809 0 0.5648686 -0.8251809 0 0.6536913 -0.7567613 0 0.6536913 -0.7567613 0 0.6536913 -0.7567613 0 0.6536913 -0.7567613 0 0.1508814 -0.9885519 0 0.1508814 -0.9885519 0 0.1508814 -0.9885519 0 0.1508814 -0.9885519 0 0.2606255 -0.96544 0 0.2606255 -0.96544 0 0.2606255 -0.96544 0 0.2606255 -0.96544 0 0.03925065 -0.9992294 0 0.03925065 -0.9992294 0 0.03925065 -0.9992294 0 0.03925065 -0.9992294 0 -0.07286934 -0.9973415 0 -0.07286934 -0.9973415 0 -0.07286934 -0.9973415 0 -0.07286934 -0.9973415</float_array>
          <technique_common>
            <accessor count="760" source="#normals-array-array" stride="3">
              <param type="float" name="X"/>
              <param type="float" name="Y"/>
              <param type="float" name="Z"/>
            </accessor>
          </technique_common>
        </source>
        <vertices id="verts-array-vertices">
          <input semantic="POSITION" source="#verts-array"/>
        </vertices>
        <triangles count="344" material="material0">
          <input offset="0" semantic="VERTEX" source="#verts-array-vertices"/>
          <input offset="1" semantic="NORMAL" source="#normals-array"/>
          <p>0 0 1 1 2 2 3 3 4 4 5 5 6 6 7 7 8 8 9 9 10 10 11 11 12 12 13 13 14 14 6 6 15 15 7 7 16 16 17 17 18 18 19 19 20 20 21 21 0 0 22 22 23 23 0 0 23 23 1 1 24 24 25 25 26 26 17 17 16 16 27 27 28 28 29 29 30 30 31 31 32 32 33 33 34 34 35 35 36 36 37 37 38 38 39 39 40 40 41 41 42 42 43 43 44 44 45 45 46 46 47 47 48 48 49 49 50 50 51 51 52 52 53 53 54 54 55 55 56 56 57 57 58 58 59 59 60 60 61 61 62 62 63 63 64 64 65 65 66 66 67 67 68 68 69 69 70 70 71 71 72 72 73 73 74 74 75 75 76 76 77 77 78 78 79 79 80 80 81 81 45 45 82 82 83 83 45 45 83 83 43 43 84 84 85 85 86 86 87 87 88 88 89 89 90 90 91 91 92 92 93 93 94 94 95 95 96 96 97 97 98 98 99 99 100 100 101 101 102 102 103 103 104 104 105 105 106 106 107 107 108 108 109 109 110 110 111 111 112 112 113 113 114 114 115 115 116 116 117 117 118 118 119 119 120 120 121 121 122 122 123 123 124 124 125 125 126 126 127 127 128 128 129 129 130 130 131 131 132 132 120 120 122 122 133 133 134 134 135 135 136 136 137 137 138 138 139 139 140 140 141 141 142 142 143 143 144 144 142 142 144 144 145 145 146 146 147 147 148 148 149 149 150 150 151 151 152 152 153 153 154 154 155 155 156 156 157 157 158 158 159 159 160 160 161 161 162 162 163 163 164 164 165 165 166 166 167 167 168 168 169 169 170 170 171 171 172 172 173 173 174 174 175 175 176 176 177 177 178 178 179 179 180 180 181 181 182 182 183 183 184 184 184 184 183 183 185 185 186 186 187 187 188 188 189 189 190 190 191 191 192 192 190 190 189 189 193 193 194 194 195 195 196 196 88 88 87 87 197 197 198 198 199 199 200 200 201 201 202 202 203 203 204 204 205 205 206 206 207 207 208 208 209 209 210 210 211 211 212 212 213 213 214 214 215 215 216 216 217 217 218 218 219 219 220 220 221 221 222 222 223 223 224 224 225 225 226 226 227 227 228 228 229 229 230 230 231 231 232 232 233 233 234 234 235 235 236 236 237 237 238 238 239 239 240 240 241 241 242 242 243 243 244 244 245 245 246 246 247 247 248 248 249 249 250 250 249 249 251 251 250 250 252 252 253 253 254 254 255 255 256 256 257 257 258 258 259 259 260 260 261 261 262 262 263 263 264 264 265 265 266 266 267 267 268 268 269 269 270 270 271 271 272 272 273 273 274 274 275 275 276 276 277 277 278 278 279 279 280 280 281 281 282 282 283 283 284 284 285 285 286 286 287 287 288 288 289 289 290 290 291 291 292 292 293 293 294 294 295 295 296 296 297 297 298 298 299 299 300 300 301 301 302 302 303 303 304 304 305 305 306 306 307 307 308 308 309 309 310 310 311 311 311 311 310 310 312 312 313 313 314 314 315 315 316 316 317 317 318 318 316 316 319 319 317 317 320 320 321 321 322 322 323 323 324 324 325 325 326 326 327 327 328 328 329 329 330 330 331 331 332 332 333 333 334 334 335 335 336 336 337 337 338 338 339 339 340 340 341 341 342 342 343 343 344 344 345 345 346 346 347 347 348 348 349 349 350 350 348 348 347 347 351 351 352 352 353 353 354 354 355 355 356 356 356 356 355 355 357 357 358 358 359 359 360 360 361 361 362 362 363 363 364 364 365 365 366 366 367 367 368 368 369 369 370 370 286 286 285 285 371 371 372 372 373 373 374 374 375 375 376 376 377 377 301 301 300 300 378 378 379 379 380 380 381 381 382 382 383 383 384 384 385 385 386 386 387 387 388 388 389 389 390 390 391 391 392 392 393 393 394 394 395 395 396 396 397 397 398 398 399 399 400 400 401 401 402 402 403 403 404 404 405 405 406 406 407 407 408 408 409 409 410 410 411 411 412 412 413 413 414 414 415 415 416 416 417 417 418 418 419 419 420 420 421 421 422 422 423 423 424 424 425 425 426 426 427 427 428 428 429 429 430 430 431 431 432 432 433 433 434 434 435 435 436 436 437 437 438 438 439 439 440 440 441 441 442 442 443 443 444 444 445 445 446 446 447 447 448 448 449 449 450 450 451 451 452 452 453 453 454 454 455 455 456 456 457 457 458 458 459 459 460 460 461 461 462 462 463 463 464 464 465 465 466 466 467 467 468 468 469 469 470 470 471 471 472 472 473 473 373 373 474 474 371 371 475 475 476 476 477 477 34 34 36 36 478 478 479 479 480 480 481 481 482 482 483 483 484 484 485 485 483 483 482 482 50 50 4 4 3 3 51 51 50 50 3 3 486 486 487 487 488 488 489 489 488 488 487 487 490 490 491 491 492 492 491 491 490 490 493 493 50 50 49 49 4 4 4 4 49 49 5 5 494 494 495 495 496 496 494 494 496 496 497 497 498 498 499 499 500 500 498 498 501 501 499 499 502 502 503 503 504 504 503 503 502 502 505 505 506 506 507 507 508 508 509 509 508 508 507 507 510 510 511 511 512 512 513 513 512 512 511 511 514 514 515 515 516 516 514 514 516 516 517 517 518 518 519 519 520 520 518 518 521 521 519 519 522 522 523 523 524 524 522 522 524 524 525 525 169 169 168 168 59 59 60 60 59 59 168 168 167 167 58 58 168 168 60 60 168 168 58 58 526 526 527 527 528 528 529 529 527 527 526 526 530 530 531 531 532 532 533 533 530 530 532 532 534 534 535 535 536 536 537 537 535 535 534 534 538 538 539 539 540 540 539 539 541 541 540 540 542 542 543 543 544 544 545 545 544 544 543 543 546 546 547 547 548 548 549 549 548 548 547 547 550 550 551 551 552 552 550 550 553 553 551 551 554 554 555 555 556 556 557 557 555 555 554 554 558 558 559 559 560 560 561 561 560 560 559 559 562 562 563 563 564 564 564 564 563 563 565 565 566 566 567 567 568 568 569 569 566 566 568 568 570 570 571 571 572 572 573 573 572 572 571 571 574 574 575 575 576 576 577 577 575 575 574 574 578 578 579 579 580 580 581 581 578 578 580 580 582 582 583 583 584 584 585 585 584 584 583 583 586 586 587 587 588 588 589 589 590 590 588 588 591 591 588 588 592 592 593 593 588 588 587 587 594 594 595 595 588 588 596 596 597 597 588 588 598 598 589 589 588 588 599 599 588 588 595 595 600 600 588 588 591 591 601 601 602 602 588 588 603 603 588 588 604 604 605 605 588 588 593 593 606 606 592 592 588 588 596 596 588 588 607 607 608 608 586 586 588 588 603 603 609 609 588 588 610 610 598 598 588 588 606 606 588 588 609 609 594 594 588 588 590 590 599 599 607 607 588 588 602 602 611 611 588 588 608 608 588 588 611 611 610 610 588 588 612 612 600 600 612 612 588 588 601 601 588 588 597 597 613 613 614 614 615 615 616 616 614 614 613 613 617 617 618 618 619 619 619 619 618 618 620 620 621 621 622 622 623 623 623 623 624 624 621 621 625 625 626 626 627 627 627 627 626 626 628 628 629 629 630 630 631 631 629 629 632 632 630 630 633 633 634 634 635 635 635 635 634 634 636 636 637 637 638 638 639 639 640 640 641 641 638 638 639 639 638 638 641 641 642 642 638 638 643 643 644 644 638 638 645 645 646 646 638 638 647 647 637 637 648 648 638 638 649 649 638 638 642 642 650 650 638 638 644 644 651 651 638 638 652 652 653 653 638 638 650 650 654 654 638 638 655 655 640 640 638 638 656 656 657 657 638 638 654 654 658 658 638 638 659 659 653 653 655 655 638 638 649 649 656 656 638 638 657 657 643 643 638 638 660 660 659 659 638 638 647 647 638 638 648 648 658 658 645 645 638 638 660 660 638 638 661 661 646 646 652 652 638 638 662 662 638 638 663 663 651 651 663 663 638 638 664 664 665 665 666 666 664 664 667 667 665 665 668 668 669 669 670 670 668 668 671 671 669 669 672 672 673 673 674 674 674 674 673 673 675 675 676 676 677 677 678 678 676 676 679 679 677 677 680 680 681 681 682 682 683 683 682 682 681 681 684 684 685 685 686 686 687 687 685 685 684 684 688 688 689 689 690 690 691 691 689 689 688 688 692 692 693 693 694 694 695 695 692 692 694 694 696 696 697 697 698 698 699 699 698 698 697 697 700 700 701 701 702 702 703 703 702 702 701 701 704 704 705 705 706 706 707 707 705 705 704 704 708 708 709 709 710 710 711 711 710 710 709 709 712 712 713 713 714 714 713 713 715 715 714 714 716 716 717 717 718 718 719 719 717 717 716 716 720 720 721 721 722 722 720 720 722 722 723 723 724 724 725 725 726 726 727 727 724 724 726 726 728 728 729 729 730 730 729 729 728 728 731 731 732 732 733 733 734 734 735 735 734 734 733 733 736 736 737 737 738 738 736 736 738 738 739 739 740 740 741 741 742 742 743 743 742 742 741 741 744 744 745 745 746 746 747 747 746 746 745 745 748 748 749 749 750 750 748 748 750 750 751 751 752 752 753 753 754 754 755 755 753 753 752 752 756 756 757 757 758 758 759 759 756 756 758 758</p>
        </triangles>
      </mesh>
    </geometry>
  </library_geometries>
  <library_materials>
    <material id="6940e34342704da099c15196a4806dbb" name="defaultmaterial">
      <instance_effect url="#3dc3ae3529664f2b98bfe754ed32c79c"/>
    </material>
  </library_materials>
  <library_visual_scenes>
    <visual_scene id="scene">
      <node id="node0" name="node0">
        <instance_geometry url="#4fc0916160614139941944a60617e8c1">
          <bind_material>
            <technique_common>
              <instance_material symbol="material0" target="#6940e34342704da099c15196a4806dbb"/>
            </technique_common>
          </bind_material>
        </instance_geometry>
      </node>
    </visual_scene>
  </library_visual_scenes>
  <scene>
    <instance_visual_scene url="#scene"/>
  </scene>
</COLLADA>
