<COLLADA xmlns="http://www.collada.org/2005/11/COLLADASchema" version="1.4.1">
  <asset>
    <created>2026-09-03T15:32:12.435510</created>
    <modified>2026-09-03T15:32:12.435511</modified>
    <up_axis>Y_UP</up_axis>
  </asset>
  <library_effects>
    <effect id="9f5b7302d0ac40bb93270284ed5dceff" name="9f5b7302d0ac40bb93270284ed5dceff">
      <profile_COMMON>
        <technique sid="common">
          <phong>
            <emission>
              <color>0.0 0.0 0.0 1.0</color>
            </emission>
            <ambient>
              <color>0.0 0.0 0.0 1.0</color>
            </ambient>
            <diffuse>
              <color>0.0 0.0 0.0 1.0</color>
            </diffuse>
            <specular>
              <color>0.0 0.0 0.0 1.0</color>
            </specular>
            <shininess>
              <float>0.0</float>
            </shininess>
            <reflective>
              <color>0.0 0.0 0.0 1.0</color>
            </reflective>
            <reflectivity>
              <float>0.0</float>
            </reflectivity>
            <transparent>
              <color>0.0 0.0 0.0 1.0</color>
            </transparent>
            <transparency>
              <float>1.0</float>
            </transparency>
          </phong>
        </technique>
        <extra>
          <technique profile="GOOGLEEARTH">
            <double_sided>0</double_sided>
          </technique>
        </extra>
      </profile_COMMON>
    </effect>
  </library_effects>
  <library_geometries>
    <geometry id="c669c005d9c34dbe9bb3148ffbccf414" name="d935abb72cfb495fabdf85ef29693b1b">
      <mesh>
        <source id="verts-array">
          <float_array count="1680" id="verts-array-array">0.012 0.0325535 0.0473539 0.0167877 0.0189747 0.0314552 0.012 0.0331012 0.0479161 0.0169466 0.0185116 0.030913 0.0167877 0.0189747 0.0314552 0.012 0.0325535 0.0473539 -0.012 0.0430155 0.0423638 -0.0135 0.039564 0.0429502 -0.012 0.0431077 0.0431432 -0.0167877 0.0189747 0.0314552 -0.012 0.0325535 0.0473539 -0.012 0.0331012 0.0479161 -0.012 0.0325535 0.0473539 -0.0167877 0.0189747 0.0314552 -0.0169466 0.0185116 0.030913 0.0151957 0.0205359 0.0332831 0.00739096 0.0224038 0.0354701 -0.0135 0.0365323 0.0458881 -0.012 0.0351131 0.049113 -0.012 0.0358685 0.0493261 -0.0169466 0.0185116 0.030913 -0.012 0.0351131 0.049113 -0.0135 0.0365323 0.0458881 -0.012 0.034392 0.0488032 -0.012 0.0351131 0.049113 -0.0169466 0.0185116 0.030913 -0.012 0.0337175 0.048402 -0.012 0.034392 0.0488032 -0.0169466 0.0185116 0.030913 -0.0167877 0.0189747 0.0314552 -0.012 0.0337175 0.048402 -0.0169466 0.0185116 0.030913 -0.0167877 0.0189747 0.0314552 -0.012 0.0331012 0.0479161 -0.012 0.0337175 0.048402 0.0169466 0.0276365 0.0231196 0.0167877 0.0280996 0.0236618 0.012 0.0425315 0.0408741 0.0169466 0.0276365 0.0231196 0.012 0.0416784 0.0395605 0.0167877 0.0280996 0.0236618 0.0167877 0.0280996 0.0236618 0.012 0.042148 0.0401894 0.012 0.0425315 0.0408741 0.0167877 0.0280996 0.0236618 0.012 0.0416784 0.0395605 0.012 0.042148 0.0401894 -0.0167877 0.0280996 0.0236618 -0.012 0.042148 0.0401894 -0.012 0.0416784 0.0395605 -0.012 0.042148 0.0401894 -0.0167877 0.0280996 0.0236618 -0.012 0.0425315 0.0408741 -0.0195 0.00925638 0.00159921 -0.0195 0.000131506 0.00939259 -0.0169466 0.0185116 0.030913 -0.0151957 0.0205359 0.0332831 -0.0179756 0.00246592 0.0121258 -0.0082941 0.0161092 0.0281001 0.0195 0.000131506 0.00939259 0.0193223 0.000989514 0.0103972 0.0195 -0.00456244 0.00389669 -0.0135 0.0365323 0.0458881 -0.0135 0.0371552 0.0459569 -0.0169466 0.0185116 0.030913 -0.0169466 0.0185116 0.030913 -0.0135 0.0371552 0.0459569 -0.0135 0.0377756 0.0458686 -0.0135 0.0383546 0.0456288 -0.0135 0.0388557 0.0452525 -0.0169466 0.0185116 0.030913 -0.0135 0.0377756 0.0458686 -0.0135 0.0383546 0.0456288 -0.0169466 0.0185116 0.030913 -0.0135 0.0371552 0.0459569 -0.012 0.0382094 0.0493567 -0.0135 0.0377756 0.0458686 -0.0135 0.0383546 0.0456288 -0.012 0.0410126 0.0480196 -0.0135 0.0388557 0.0452525 -0.0135 0.0383546 0.0456288 -0.012 0.0403838 0.0484892 -0.012 0.0410126 0.0480196 -0.00739096 0.0224038 0.0354701 0.0193223 0.0101144 0.00260381 0.0195 0.00925638 0.00159921 0.0195 0.00456244 -0.00389669 0.0195 0.000131506 0.00939259 0.0195 0.00925638 0.00159921 0.0169466 0.0185116 0.030913 0.0169466 0.0276365 0.0231196 0.0169466 0.0276365 0.0231196 0.0135 0.0388557 0.0452525 0.0169466 0.0185116 0.030913 0.0135 0.0392476 0.0447635 0.0135 0.0388557 0.0452525 0.0169466 0.0276365 0.0231196 0.0135 0.0392476 0.0447635 0.012 0.042462 0.0461811 0.012 0.0420607 0.0468556 -0.012 0.0427718 0.04546 -0.0135 0.0395054 0.0441923 -0.012 0.042462 0.0461811 -0.0193223 0.000989514 0.0103972 -0.0195 0.000131506 0.00939259 -0.0195 -0.00456244 0.00389669 0.0082941 0.0161092 0.0281001 0.017 0.0180385 0.0303589 0.012 0.0428223 0.0416031 0.0169466 0.0276365 0.0231196 0.012 0.0425315 0.0408741 0.012 0.0428223 0.0416031 0.012 0.0430155 0.0423638 0.0169466 0.0276365 0.0231196 -0.012 0.0382094 0.0493567 -0.012 0.0389701 0.0491635 -0.0135 0.0377756 0.0458686 -0.0135 0.0371552 0.0459569 -0.012 0.03743 0.049449 -0.012 0.0382094 0.0493567 0.0135 0.0377756 0.0458686 0.012 0.0389701 0.0491635 0.012 0.0382094 0.0493567 0.0167877 0.0189747 0.0314552 0.012 0.0337175 0.048402 0.012 0.0331012 0.0479161 0.012 0.0337175 0.048402 0.0167877 0.0189747 0.0314552 0.0169466 0.0185116 0.030913 0.012 0.0358685 0.0493261 0.0135 0.0365323 0.0458881 0.012 0.0366452 0.0494387 0.012 0.034392 0.0488032 0.012 0.0337175 0.048402 0.0169466 0.0185116 0.030913 -0.0195 0.00925638 0.00159921 -0.0193223 0.0101144 0.00260381 -0.0195 0.00456244 -0.00389669 0.0082941 0.0252341 0.0203067 0.0131548 0.0304682 0.0264351 -0.012 0.0416784 0.0395605 -0.00656274 0.030597 0.0265859 -0.0082941 0.0252341 0.0203067 0.0135 0.0395054 0.0441923 0.0135 0.0392476 0.0447635 0.0169466 0.0276365 0.0231196 0.0135 0.0396132 0.043575 0.0135 0.0395054 0.0441923 0.0169466 0.0276365 0.0231196 0.012 0.0429848 0.0447047 0.0135 0.0395054 0.0441923 0.0135 0.0396132 0.043575 0.0135 0.0392476 0.0447635 0.0135 0.0395054 0.0441923 0.012 0.042462 0.0461811 0.012 0.0430155 0.0423638 0.0135 0.039564 0.0429502 0.0169466 0.0276365 0.0231196 0.0169466 0.0276365 0.0231196 0.0135 0.039564 0.0429502 0.0135 0.0396132 0.043575 0.012 0.0430155 0.0423638 0.012 0.0431077 0.0431432 0.0135 0.039564 0.0429502 0.0135 0.0396132 0.043575 0.0135 0.039564 0.0429502 0.012 0.0431077 0.0431432 0.0135 0.0396132 0.043575 0.012 0.0430975 0.043928 0.012 0.0429848 0.0447047 0.012 0.0430975 0.043928 0.0135 0.0396132 0.043575 0.012 0.0431077 0.0431432 0.0135 0.0383546 0.0456288 0.0135 0.0377756 0.0458686 0.0169466 0.0185116 0.030913 0.0135 0.0388557 0.0452525 0.0135 0.0383546 0.0456288 0.0169466 0.0185116 0.030913 0.0135 0.0383546 0.0456288 0.012 0.0410126 0.0480196 0.012 0.0403838 0.0484892 0.0135 0.0388557 0.0452525 0.012 0.0410126 0.0480196 0.0135 0.0383546 0.0456288 0.0135 0.0392476 0.0447635 0.012 0.0420607 0.0468556 0.012 0.0415748 0.047472 0.012 0.0415748 0.047472 0.0135 0.0388557 0.0452525 0.0135 0.0392476 0.0447635 0.012 0.0415748 0.047472 0.012 0.0410126 0.0480196 0.0135 0.0388557 0.0452525 0.012 0.0427718 0.04546 0.0135 0.0395054 0.0441923 0.012 0.0429848 0.0447047 0.012 0.0427718 0.04546 -0.012 0.0431077 0.0431432 -0.0135 0.0396132 0.043575 -0.012 0.0430975 0.043928 -0.0135 0.039564 0.0429502 -0.0135 0.0396132 0.043575 -0.012 0.0431077 0.0431432 -0.0135 0.0392476 0.0447635 -0.012 0.0420607 0.0468556 -0.012 0.042462 0.0461811 -0.0135 0.0392476 0.0447635 -0.017 0.0180385 0.0303589 0.0179756 0.00246592 0.0121258 -0.0135 0.0395054 0.0441923 -0.012 0.0427718 0.04546 -0.012 0.0429848 0.0447047 -0.0135 0.0395054 0.0441923 -0.012 0.0429848 0.0447047 -0.0135 0.0396132 0.043575 -0.0135 0.0396132 0.043575 -0.012 0.0429848 0.0447047 -0.012 0.0430975 0.043928 -0.0135 0.0383546 0.0456288 -0.012 0.039699 0.0488727 -0.012 0.0403838 0.0484892 -0.0135 0.0377756 0.0458686 -0.012 0.039699 0.0488727 -0.0135 0.0383546 0.0456288 -0.012 0.0389701 0.0491635 -0.012 0.039699 0.0488727 -0.0135 0.0377756 0.0458686 -0.0135 0.0371552 0.0459569 -0.012 0.0366452 0.0494387 -0.012 0.03743 0.049449 -0.012 0.0366452 0.0494387 -0.0135 0.0365323 0.0458881 -0.012 0.0358685 0.0493261 -0.012 0.0366452 0.0494387 -0.0135 0.0371552 0.0459569 -0.0135 0.0365323 0.0458881 -0.012 0.0410126 0.0480196 -0.012 0.0415748 0.047472 -0.0135 0.0388557 0.0452525 -0.0135 0.0388557 0.0452525 -0.012 0.0415748 0.047472 -0.0135 0.0392476 0.0447635 -0.0135 0.0392476 0.0447635 -0.012 0.0415748 0.047472 -0.012 0.0420607 0.0468556 0.0135 0.0383546 0.0456288 0.012 0.0403838 0.0484892 0.012 0.039699 0.0488727 0.0135 0.0377756 0.0458686 0.012 0.039699 0.0488727 0.012 0.0389701 0.0491635 0.0135 0.0383546 0.0456288 0.012 0.039699 0.0488727 0.0135 0.0377756 0.0458686 0.012 0.03743 0.049449 0.012 0.0366452 0.0494387 0.0135 0.0371552 0.0459569 0.0135 0.0365323 0.0458881 0.0135 0.0371552 0.0459569 0.012 0.0366452 0.0494387 0.012 0.03743 0.049449 0.0135 0.0371552 0.0459569 0.012 0.0382094 0.0493567 0.012 0.0382094 0.0493567 0.0135 0.0371552 0.0459569 0.0135 0.0377756 0.0458686 0.0135 0.0377756 0.0458686 0.0135 0.0371552 0.0459569 0.0169466 0.0185116 0.030913 0.0169466 0.0185116 0.030913 0.0135 0.0371552 0.0459569 0.0135 0.0365323 0.0458881 0.0135 0.0365323 0.0458881 0.012 0.0358685 0.0493261 0.012 0.0351131 0.049113 0.0135 0.0365323 0.0458881 0.012 0.0351131 0.049113 0.0169466 0.0185116 0.030913 0.012 0.0351131 0.049113 0.012 0.034392 0.0488032 0.0169466 0.0185116 0.030913 -0.0169466 0.0276365 0.0231196 -0.0169466 0.0276365 0.0231196 -0.0135 0.0388557 0.0452525 -0.0169466 0.0276365 0.0231196 -0.0169466 0.0185116 0.030913 -0.0167877 0.0280996 0.0236618 -0.0135 0.0392476 0.0447635 -0.0169466 0.0276365 0.0231196 -0.0135 0.0388557 0.0452525 -0.0135 0.0392476 0.0447635 -0.0135 0.0395054 0.0441923 -0.0169466 0.0276365 0.0231196 -0.0135 0.0396132 0.043575 -0.0169466 0.0276365 0.0231196 -0.0135 0.0395054 0.0441923 -0.0135 0.0396132 0.043575 -0.0135 0.039564 0.0429502 -0.0169466 0.0276365 0.0231196 -0.0135 0.039564 0.0429502 -0.012 0.0430155 0.0423638 -0.0169466 0.0276365 0.0231196 -0.012 0.0428223 0.0416031 -0.0169466 0.0276365 0.0231196 -0.012 0.0430155 0.0423638 -0.012 0.0428223 0.0416031 -0.012 0.0425315 0.0408741 -0.0169466 0.0276365 0.0231196 -0.0167877 0.0280996 0.0236618 -0.0169466 0.0276365 0.0231196 -0.012 0.0425315 0.0408741 0.00656274 0.030597 0.0265859 -0.0131548 0.0304682 0.0264351 0.0195 -0.000314016 -0.00599178 -0.0195 -0.000314016 -0.00599178 0.0195 0.000470755 -0.0059815 -0.0195 0.000470755 -0.0059815 0.0195 0.000470755 -0.0059815 -0.0195 0.00124747 -0.00586889 0.0195 0.00124747 -0.00586889 -0.0195 0.000470755 -0.0059815 0.012 0.0331012 0.0479161 -0.012 0.0325535 0.0473539 0.012 0.0325535 0.0473539 -0.012 0.0331012 0.0479161 -0.0195 0.00456244 -0.00389669 0.0195 0.00401478 -0.00445887 -0.0195 0.00401478 -0.00445887 0.0195 0.00456244 -0.00389669 0.0195 0.00272394 -0.00534604 -0.0195 0.00339844 -0.00494476 0.0195 0.00339844 -0.00494476 -0.0195 0.00272394 -0.00534604 0.0195 0.00401478 -0.00445887 -0.0195 0.00339844 -0.00494476 -0.0195 0.00401478 -0.00445887 0.0195 0.00339844 -0.00494476 0.0195 0.00124747 -0.00586889 -0.0195 0.00200284 -0.00565585 0.0195 0.00200284 -0.00565585 -0.0195 0.00124747 -0.00586889 0.0195 0.00200284 -0.00565585 -0.0195 0.00200284 -0.00565585 0.0195 0.00272394 -0.00534604 -0.0195 0.00272394 -0.00534604 0.0195 -0.00534604 -0.00272394 0.0195 -0.00565585 -0.00200284 -0.0195 -0.00565585 -0.00200284 -0.0195 -0.00534604 -0.00272394 -0.012 0.0425315 0.0408741 0.012 0.0425315 0.0408741 0.012 0.042148 0.0401894 -0.012 0.042148 0.0401894 -0.012 0.0416784 0.0395605 0.012 0.042148 0.0401894 0.012 0.0416784 0.0395605 -0.012 0.042148 0.0401894 -0.0195 -0.0018541 -0.00570634 0.0195 -0.0018541 -0.00570634 -0.0195 -0.00258307 -0.00541551 0.0195 -0.00258307 -0.00541551 -0.0195 -0.00389669 -0.00456244 0.0195 -0.00389669 -0.00456244 -0.0195 -0.00445887 -0.00401478 0.0195 -0.00445887 -0.00401478 0.0195 -0.00589953 0.00109341 -0.0195 -0.00599178 0.000314016 0.0195 -0.00599178 0.000314016 -0.0195 -0.00589953 0.00109341 0.0195 -0.0059815 -0.000470755 -0.0195 -0.00599178 0.000314016 -0.0195 -0.0059815 -0.000470755 0.0195 -0.00599178 0.000314016 0.0195 -0.00565585 -0.00200284 -0.0195 -0.00586889 -0.00124747 -0.0195 -0.00565585 -0.00200284 0.0195 -0.00586889 -0.00124747 0.0195 -0.0059815 -0.000470755 -0.0195 -0.0059815 -0.000470755 -0.0195 -0.00586889 -0.00124747 0.0195 -0.00586889 -0.00124747 -0.012 0.0430155 0.0423638 -0.012 0.0431077 0.0431432 0.012 0.0430155 0.0423638 0.012 0.0431077 0.0431432 0.0195 -0.00456244 0.00389669 -0.0195 -0.00503202 0.00326783 0.0195 -0.00503202 0.00326783 -0.0195 -0.00456244 0.00389669 0.0195 -0.00503202 0.00326783 -0.0195 -0.00503202 0.00326783 0.0195 -0.00541551 0.00258307 -0.0195 -0.00541551 0.00258307 0.0195 -0.00541551 0.00258307 -0.0195 -0.00570634 0.0018541 0.0195 -0.00570634 0.0018541 -0.0195 -0.00541551 0.00258307 0.0195 -0.00570634 0.0018541 -0.0195 -0.00570634 0.0018541 0.0195 -0.00589953 0.00109341 -0.0195 -0.00589953 0.00109341 0.012 0.0420607 0.0468556 0.012 0.042462 0.0461811 -0.012 0.0420607 0.0468556 -0.012 0.042462 0.0461811 -0.0195 -0.000314016 -0.00599178 0.0195 -0.00109341 -0.00589953 -0.0195 -0.00109341 -0.00589953 0.0195 -0.000314016 -0.00599178 -0.0195 -0.0018541 -0.00570634 -0.0195 -0.00109341 -0.00589953 0.0195 -0.00109341 -0.00589953 0.0195 -0.0018541 -0.00570634 0.0195 -0.00258307 -0.00541551 0.0195 -0.00326783 -0.00503202 -0.0195 -0.00258307 -0.00541551 -0.0195 -0.00326783 -0.00503202 -0.0195 -0.00326783 -0.00503202 0.0195 -0.00326783 -0.00503202 -0.0195 -0.00389669 -0.00456244 0.0195 -0.00389669 -0.00456244 -0.0195 0.00339844 -0.00494476 -0.0195 -0.00494476 -0.00339844 -0.0195 0.00401478 -0.00445887 -0.0195 -0.0018541 -0.00570634 -0.0195 -0.00109341 -0.00589953 -0.0195 -0.000314016 -0.00599178 -0.0195 -0.00326783 -0.00503202 -0.0195 -0.00389669 -0.00456244 -0.0195 -0.00503202 0.00326783 -0.0195 -0.00541551 0.00258307 -0.0195 0.00925638 0.00159921 -0.0195 0.000131506 0.00939259 -0.0195 0.000470755 -0.0059815 -0.0195 -0.00445887 -0.00401478 -0.0195 0.00200284 -0.00565585 -0.0195 0.00124747 -0.00586889 -0.0195 0.00456244 -0.00389669 -0.0195 -0.00258307 -0.00541551 -0.0195 -0.00534604 -0.00272394 -0.0195 -0.00565585 -0.00200284 -0.0195 0.00272394 -0.00534604 -0.0195 -0.00570634 0.0018541 -0.0195 -0.00599178 0.000314016 -0.0195 -0.0059815 -0.000470755 -0.0195 -0.00586889 -0.00124747 -0.0195 -0.00456244 0.00389669 -0.0195 -0.00589953 0.00109341 0.0195 0.00272394 -0.00534604 0.0195 0.00339844 -0.00494476 0.0195 -0.00494476 -0.00339844 0.0195 0.000470755 -0.0059815 0.0195 0.00124747 -0.00586889 0.0195 0.00200284 -0.00565585 0.0195 -0.00589953 0.00109341 0.0195 -0.00570634 0.0018541 0.0195 -0.00456244 0.00389669 0.0195 -0.00503202 0.00326783 0.0195 -0.00586889 -0.00124747 0.0195 -0.00565585 -0.00200284 0.0195 -0.00541551 0.00258307 0.0195 -0.000314016 -0.00599178 0.0195 0.000131506 0.00939259 0.0195 0.00401478 -0.00445887 0.0195 -0.00599178 0.000314016 0.0195 -0.0018541 -0.00570634 0.0195 -0.00258307 -0.00541551 0.0195 -0.0059815 -0.000470755 0.0195 0.00456244 -0.00389669 0.0195 -0.00534604 -0.00272394 0.0195 -0.00109341 -0.00589953 0.0195 -0.00326783 -0.00503202 0.0195 -0.00389669 -0.00456244 0.0195 0.00925638 0.00159921 0.0195 -0.00445887 -0.00401478 0.0195 -0.00445887 -0.00401478 0.0195 -0.00494476 -0.00339844 -0.0195 -0.00445887 -0.00401478 -0.0195 -0.00494476 -0.00339844 0.0195 -0.00534604 -0.00272394 -0.0195 -0.00534604 -0.00272394 0.0195 -0.00494476 -0.00339844 -0.0195 -0.00494476 -0.00339844 -0.012 0.0425315 0.0408741 0.012 0.0428223 0.0416031 0.012 0.0425315 0.0408741 -0.012 0.0428223 0.0416031 -0.012 0.0430155 0.0423638 0.012 0.0428223 0.0416031 -0.012 0.0428223 0.0416031 0.012 0.0430155 0.0423638 -0.012 0.03743 0.049449 0.012 0.03743 0.049449 -0.012 0.0382094 0.0493567 0.012 0.0382094 0.0493567 0.012 0.0382094 0.0493567 0.012 0.0389701 0.0491635 -0.012 0.0382094 0.0493567 -0.012 0.0389701 0.0491635 -0.012 0.0331012 0.0479161 0.012 0.0331012 0.0479161 0.012 0.0337175 0.048402 -0.012 0.0337175 0.048402 0.012 0.0337175 0.048402 0.012 0.034392 0.0488032 -0.012 0.0337175 0.048402 -0.012 0.034392 0.0488032 -0.012 0.0431077 0.0431432 0.012 0.0430975 0.043928 0.012 0.0431077 0.0431432 -0.012 0.0430975 0.043928 0.012 0.0403838 0.0484892 0.012 0.0410126 0.0480196 -0.012 0.0403838 0.0484892 -0.012 0.0410126 0.0480196 0.012 0.042462 0.0461811 0.012 0.0427718 0.04546 -0.012 0.042462 0.0461811 -0.012 0.0427718 0.04546 -0.012 0.0429848 0.0447047 0.012 0.0427718 0.04546 0.012 0.0429848 0.0447047 -0.012 0.0427718 0.04546 -0.012 0.0429848 0.0447047 0.012 0.0430975 0.043928 -0.012 0.0430975 0.043928 0.012 0.0429848 0.0447047 0.012 0.0358685 0.0493261 -0.012 0.0366452 0.0494387 -0.012 0.0358685 0.0493261 0.012 0.0366452 0.0494387 -0.012 0.03743 0.049449 -0.012 0.0366452 0.0494387 0.012 0.03743 0.049449 0.012 0.0366452 0.0494387 0.012 0.0410126 0.0480196 -0.012 0.0415748 0.047472 -0.012 0.0410126 0.0480196 0.012 0.0415748 0.047472 0.012 0.0420607 0.0468556 -0.012 0.0420607 0.0468556 -0.012 0.0415748 0.047472 0.012 0.0415748 0.047472 -0.012 0.0403838 0.0484892 0.012 0.039699 0.0488727 0.012 0.0403838 0.0484892 -0.012 0.039699 0.0488727 0.012 0.0389701 0.0491635 0.012 0.039699 0.0488727 -0.012 0.0389701 0.0491635 -0.012 0.039699 0.0488727 0.012 0.0358685 0.0493261 -0.012 0.0358685 0.0493261 0.012 0.0351131 0.049113 -0.012 0.0351131 0.049113 -0.012 0.0351131 0.049113 -0.012 0.034392 0.0488032 0.012 0.0351131 0.049113 0.012 0.034392 0.0488032</float_array>
          <technique_common>
            <accessor count="560" source="#verts-array-array" stride="3">
              <param type="float" name="X"/>
              <param type="float" name="Y"/>
              <param type="float" name="Z"/>
            </accessor>
          </technique_common>
        </source>
        <source id="normals-array">
          <float_array count="1680" id="normals-array-array">0.2747368 -0.6887203 0.6709575 0.2747368 -0.6887203 0.6709575 0.2747368 -0.6887203 0.6709575 -0.001023134 -0.7605521 0.6492761 0.002932011 -0.7599659 0.6499564 -1.095132e-06 -0.7604067 0.6494472 -0.9190018 0.3915233 -0.04631632 -0.9190018 0.3915233 -0.04631632 -0.9190018 0.3915233 -0.04631632 -0.2747368 -0.6887203 0.6709575 -0.2747368 -0.6887203 0.6709575 -0.2747368 -0.6887203 0.6709575 1.095132e-06 -0.7604067 0.6494472 -0.002932011 -0.7599659 0.6499564 0.001023134 -0.7605521 0.6492761 3.355319e-05 -0.7604022 0.6494525 -9.580493e-07 -0.7604057 0.6494484 -0.9186984 -0.1072338 0.3801239 -0.9186984 -0.1072338 0.3801239 -0.9186984 -0.1072338 0.3801239 -0.9197117 -0.1314972 0.3699174 -0.9197117 -0.1314972 0.3699174 -0.9197117 -0.1314972 0.3699174 -0.8992504 -0.1726699 0.4019127 -0.8992504 -0.1726699 0.4019127 -0.8992504 -0.1726699 0.4019127 -0.8263191 -0.287916 0.4840466 -0.8263191 -0.287916 0.4840466 -0.8263191 -0.287916 0.4840466 -0.6761206 -0.4505577 0.582974 -0.6761206 -0.4505577 0.582974 -0.6761206 -0.4505577 0.582974 -0.6577099 -0.4663754 0.5915333 -0.6577099 -0.4663754 0.5915333 -0.6577099 -0.4663754 0.5915333 0.6775036 0.6454292 -0.3527179 0.6775036 0.6454292 -0.3527179 0.6775036 0.6454292 -0.3527179 -5.36968e-06 0.7604056 -0.6494485 -4.423309e-07 0.7604049 -0.6494492 -0.002943297 0.7599642 -0.6499583 0.6576982 0.6572136 -0.3681077 0.6576982 0.6572136 -0.3681077 0.6576982 0.6572136 -0.3681077 0.2747204 0.7704368 -0.5752877 0.2747204 0.7704368 -0.5752877 0.2747204 0.7704368 -0.5752877 -0.2747204 0.7704368 -0.5752877 -0.2747204 0.7704368 -0.5752877 -0.2747204 0.7704368 -0.5752877 -0.6576982 0.6572136 -0.3681077 -0.6576982 0.6572136 -0.3681077 -0.6576982 0.6572136 -0.3681077 -0.9959546 0.05835775 0.06832814 -0.9959546 0.05835775 0.06832814 -0.9959546 0.05835775 0.06832814 -3.355319e-05 -0.7604022 0.6494525 1.357478e-05 -0.7604046 0.6494497 -2.134267e-07 -0.7604063 0.6494477 4.683744e-05 -0.7604056 0.6494485 8.694769e-05 -0.7603989 0.6494563 6.12138e-07 -0.7604063 0.6494477 -0.9661425 -0.02832583 0.2564496 -0.9661425 -0.02832583 0.2564496 -0.9661425 -0.02832583 0.2564496 -0.9811959 0.02719802 0.1910888 -0.9811959 0.02719802 0.1910888 -0.9811959 0.02719802 0.1910888 -0.9895755 0.08647888 0.1151599 -0.9895755 0.08647888 0.1151599 -0.9895755 0.08647888 0.1151599 -0.9870273 0.06143425 0.1483337 -0.9870273 0.06143425 0.1483337 -0.9870273 0.06143425 0.1483337 -0.9197298 0.05531516 0.3886352 -0.9197298 0.05531516 0.3886352 -0.9197298 0.05531516 0.3886352 -0.9194644 0.2360943 0.3143959 -0.9194644 0.2360943 0.3143959 -0.9194644 0.2360943 0.3143959 -0.91939 0.2353667 0.3151581 -0.91939 0.2353667 0.3151581 -0.91939 0.2353667 0.3151581 9.580493e-07 -0.7604057 0.6494484 7.623753e-05 0.7604106 -0.6494427 4.715421e-05 0.7604062 -0.6494477 6.036137e-07 0.7604055 -0.6494486 0.9959546 0.05835775 0.06832814 0.9959546 0.05835775 0.06832814 0.9959546 0.05835775 0.06832814 0.9959546 0.05835775 0.06832814 0.9899413 0.09188286 0.107581 0.9899413 0.09188286 0.107581 0.9899413 0.09188286 0.107581 0.9885662 0.117663 0.09429889 0.9885662 0.117663 0.09429889 0.9885662 0.117663 0.09429889 0.9186242 0.3395755 0.2020349 0.9186242 0.3395755 0.2020349 0.9186242 0.3395755 0.2020349 -0.9192085 0.3617954 0.1554347 -0.9196159 0.3584118 0.160772 -0.919259 0.3613926 0.1560716 -8.694769e-05 -0.7603989 0.6494563 -4.683744e-05 -0.7604056 0.6494485 -6.12138e-07 -0.7604063 0.6494477 2.134267e-07 -0.7604063 0.6494477 -0.004396028 -0.760658 0.6491379 0.8262879 0.5231609 -0.2086889 0.8262879 0.5231609 -0.2086889 0.8262879 0.5231609 -0.2086889 0.8992453 0.4239841 -0.1076816 0.8992453 0.4239841 -0.1076816 0.8992453 0.4239841 -0.1076816 -0.9186356 0.09725942 0.3829482 -0.9186356 0.09725942 0.3829482 -0.9186356 0.09725942 0.3829482 -0.9191525 0.04632411 0.3911684 -0.9191525 0.04632411 0.3911684 -0.9191525 0.04632411 0.3911684 0.9186356 0.09725942 0.3829482 0.9186356 0.09725942 0.3829482 0.9186356 0.09725942 0.3829482 0.6577099 -0.4663754 0.5915333 0.6577099 -0.4663754 0.5915333 0.6577099 -0.4663754 0.5915333 0.6761206 -0.4505577 0.582974 0.6761206 -0.4505577 0.582974 0.6761206 -0.4505577 0.582974 0.9190499 -0.05654956 0.3900633 0.9190499 -0.05654956 0.3900633 0.9190499 -0.05654956 0.3900633 0.8263191 -0.287916 0.4840466 0.8263191 -0.287916 0.4840466 0.8263191 -0.287916 0.4840466 -4.715421e-05 0.7604062 -0.6494477 -7.623753e-05 0.7604106 -0.6494427 -6.036137e-07 0.7604055 -0.6494486 1.506571e-06 0.7604069 -0.6494469 3.239445e-06 0.7604052 -0.6494489 4.423309e-07 0.7604049 -0.6494492 4.61077e-06 0.7604068 -0.6494471 -1.506571e-06 0.7604069 -0.6494469 0.9847165 0.1587454 0.07164676 0.9847165 0.1587454 0.07164676 0.9847165 0.1587454 0.07164676 0.9756062 0.2162554 0.03776495 0.9756062 0.2162554 0.03776495 0.9756062 0.2162554 0.03776495 0.9197801 0.3865837 0.06750959 0.9197801 0.3865837 0.06750959 0.9197801 0.3865837 0.06750959 0.9196716 0.3579224 0.1615416 0.9196159 0.3584118 0.160772 0.919259 0.3613926 0.1560716 0.9191604 0.3870508 -0.07304721 0.9191604 0.3870508 -0.07304721 0.9191604 0.3870508 -0.07304721 0.948629 0.3154142 -0.02483828 0.948629 0.3154142 -0.02483828 0.948629 0.3154142 -0.02483828 0.9190018 0.3915233 -0.04631632 0.9190018 0.3915233 -0.04631632 0.9190018 0.3915233 -0.04631632 0.9198582 0.3910405 -0.03079371 0.9198582 0.3910405 -0.03079371 0.9198582 0.3910405 -0.03079371 0.9190993 0.3899423 0.05658183 0.9190993 0.3899423 0.05658183 0.9190993 0.3899423 0.05658183 0.9186782 0.3949734 0.005133688 0.9186782 0.3949734 0.005133688 0.9186782 0.3949734 0.005133688 0.9870273 0.06143425 0.1483337 0.9870273 0.06143425 0.1483337 0.9870273 0.06143425 0.1483337 0.9895755 0.08647888 0.1151599 0.9895755 0.08647888 0.1151599 0.9895755 0.08647888 0.1151599 0.91939 0.2353667 0.3151581 0.91939 0.2353667 0.3151581 0.91939 0.2353667 0.3151581 0.9194644 0.2360943 0.3143959 0.9194644 0.2360943 0.3143959 0.9194644 0.2360943 0.3143959 0.9193233 0.3090321 0.2436057 0.9193233 0.3090321 0.2436057 0.9193233 0.3090321 0.2436057 0.9195429 0.306659 0.2457664 0.9195429 0.306659 0.2457664 0.9195429 0.306659 0.2457664 0.9186197 0.2757089 0.2830592 0.9186197 0.2757089 0.2830592 0.9186197 0.2757089 0.2830592 0.9186482 0.3802461 0.107231 0.9186482 0.3802461 0.107231 0.9186482 0.3802461 0.107231 0.9192085 0.3617954 0.1554347 -0.9186782 0.3949734 0.005133688 -0.9186782 0.3949734 0.005133688 -0.9186782 0.3949734 0.005133688 -0.9198582 0.3910405 -0.03079371 -0.9198582 0.3910405 -0.03079371 -0.9198582 0.3910405 -0.03079371 -0.9186242 0.3395755 0.2020349 -0.9186242 0.3395755 0.2020349 -0.9186242 0.3395755 0.2020349 -0.9196716 0.3579224 0.1615416 0.004396028 -0.760658 0.6491379 -1.357478e-05 -0.7604046 0.6494497 -0.9186482 0.3802461 0.107231 -0.9186482 0.3802461 0.107231 -0.9186482 0.3802461 0.107231 -0.9197801 0.3865837 0.06750959 -0.9197801 0.3865837 0.06750959 -0.9197801 0.3865837 0.06750959 -0.9190993 0.3899423 0.05658183 -0.9190993 0.3899423 0.05658183 -0.9190993 0.3899423 0.05658183 -0.9186209 0.1930712 0.3447596 -0.9186209 0.1930712 0.3447596 -0.9186209 0.1930712 0.3447596 -0.9196098 0.1503149 0.3629369 -0.9196098 0.1503149 0.3629369 -0.9196098 0.1503149 0.3629369 -0.9192658 0.1458652 0.3656141 -0.9192658 0.1458652 0.3656141 -0.9192658 0.1458652 0.3656141 -0.9186618 -0.005184096 0.3950109 -0.9186618 -0.005184096 0.3950109 -0.9186618 -0.005184096 0.3950109 -0.9190499 -0.05654956 0.3900633 -0.9190499 -0.05654956 0.3900633 -0.9190499 -0.05654956 0.3900633 -0.9198233 -0.04307272 0.3899614 -0.9198233 -0.04307272 0.3899614 -0.9198233 -0.04307272 0.3899614 -0.9186197 0.2757089 0.2830592 -0.9186197 0.2757089 0.2830592 -0.9186197 0.2757089 0.2830592 -0.9195429 0.306659 0.2457664 -0.9195429 0.306659 0.2457664 -0.9195429 0.306659 0.2457664 -0.9193233 0.3090321 0.2436057 -0.9193233 0.3090321 0.2436057 -0.9193233 0.3090321 0.2436057 0.9186209 0.1930712 0.3447596 0.9186209 0.1930712 0.3447596 0.9186209 0.1930712 0.3447596 0.9192658 0.1458652 0.3656141 0.9192658 0.1458652 0.3656141 0.9192658 0.1458652 0.3656141 0.9196098 0.1503149 0.3629369 0.9196098 0.1503149 0.3629369 0.9196098 0.1503149 0.3629369 0.9186618 -0.005184096 0.3950109 0.9186618 -0.005184096 0.3950109 0.9186618 -0.005184096 0.3950109 0.9198233 -0.04307272 0.3899614 0.9198233 -0.04307272 0.3899614 0.9198233 -0.04307272 0.3899614 0.9191525 0.04632411 0.3911684 0.9191525 0.04632411 0.3911684 0.9191525 0.04632411 0.3911684 0.9197298 0.05531516 0.3886352 0.9197298 0.05531516 0.3886352 0.9197298 0.05531516 0.3886352 0.9811959 0.02719802 0.1910888 0.9811959 0.02719802 0.1910888 0.9811959 0.02719802 0.1910888 0.9661425 -0.02832583 0.2564496 0.9661425 -0.02832583 0.2564496 0.9661425 -0.02832583 0.2564496 0.9186984 -0.1072338 0.3801239 0.9186984 -0.1072338 0.3801239 0.9186984 -0.1072338 0.3801239 0.9197117 -0.1314972 0.3699174 0.9197117 -0.1314972 0.3699174 0.9197117 -0.1314972 0.3699174 0.8992504 -0.1726699 0.4019127 0.8992504 -0.1726699 0.4019127 0.8992504 -0.1726699 0.4019127 5.36968e-06 0.7604056 -0.6494485 -0.9959546 0.05835775 0.06832814 -0.9899413 0.09188286 0.107581 -0.9899413 0.09188286 0.107581 -0.9899413 0.09188286 0.107581 0.002943297 0.7599642 -0.6499583 -0.9885662 0.117663 0.09429889 -0.9885662 0.117663 0.09429889 -0.9885662 0.117663 0.09429889 -0.9847165 0.1587454 0.07164676 -0.9847165 0.1587454 0.07164676 -0.9847165 0.1587454 0.07164676 -0.9756062 0.2162554 0.03776495 -0.9756062 0.2162554 0.03776495 -0.9756062 0.2162554 0.03776495 -0.948629 0.3154142 -0.02483828 -0.948629 0.3154142 -0.02483828 -0.948629 0.3154142 -0.02483828 -0.9191604 0.3870508 -0.07304721 -0.9191604 0.3870508 -0.07304721 -0.9191604 0.3870508 -0.07304721 -0.8992453 0.4239841 -0.1076816 -0.8992453 0.4239841 -0.1076816 -0.8992453 0.4239841 -0.1076816 -0.8262879 0.5231609 -0.2086889 -0.8262879 0.5231609 -0.2086889 -0.8262879 0.5231609 -0.2086889 -0.6775036 0.6454292 -0.3527179 -0.6775036 0.6454292 -0.3527179 -0.6775036 0.6454292 -0.3527179 -4.61077e-06 0.7604068 -0.6494471 -3.239445e-06 0.7604052 -0.6494489 0 0.0130978 -0.9999142 0 0.0130978 -0.9999142 0 0.0130978 -0.9999142 0 0.0130978 -0.9999142 0 0.1434827 -0.9896528 0 0.1434827 -0.9896528 0 0.1434827 -0.9896528 0 0.1434827 -0.9896528 0 -0.7162833 0.6978096 0 -0.7162833 0.6978096 0 -0.7162833 0.6978096 0 -0.7162833 0.6978096 0 0.7162966 -0.6977959 0 0.7162966 -0.6977959 0 0.7162966 -0.6977959 0 0.7162966 -0.6977959 0 0.511288 -0.8594094 0 0.511288 -0.8594094 0 0.511288 -0.8594094 0 0.511288 -0.8594094 0 0.6190991 -0.7853129 0 0.6190991 -0.7853129 0 0.6190991 -0.7853129 0 0.6190991 -0.7853129 0 0.2714446 -0.9624541 0 0.2714446 -0.9624541 0 0.2714446 -0.9624541 0 0.2714446 -0.9624541 0 0.3947452 -0.9187906 0 0.3947452 -0.9187906 0 0.3947452 -0.9187906 0 0.3947452 -0.9187906 0 -0.9187906 -0.3947452 0 -0.9187906 -0.3947452 0 -0.9187906 -0.3947452 0 -0.9187906 -0.3947452 0 0.8724675 -0.4886722 0 0.8724675 -0.4886722 0 0.8724675 -0.4886722 0 0.8724675 -0.4886722 0 0.8012661 -0.5983081 0 0.8012661 -0.5983081 0 0.8012661 -0.5983081 0 0.8012661 -0.5983081 0 -0.3705575 -0.9288095 0 -0.3705575 -0.9288095 0 -0.3705575 -0.9288095 0 -0.3705575 -0.9288095 0 -0.6977959 -0.7162966 0 -0.6977959 -0.7162966 0 -0.6977959 -0.7162966 0 -0.6977959 -0.7162966 0 -0.9930681 0.1175406 0 -0.9930681 0.1175406 0 -0.9930681 0.1175406 0 -0.9930681 0.1175406 0 -0.9999142 -0.0130978 0 -0.9999142 -0.0130978 0 -0.9999142 -0.0130978 0 -0.9999142 -0.0130978 0 -0.9624541 -0.2714446 0 -0.9624541 -0.2714446 0 -0.9624541 -0.2714446 0 -0.9624541 -0.2714446 0 -0.9896528 -0.1434827 0 -0.9896528 -0.1434827 0 -0.9896528 -0.1434827 0 -0.9896528 -0.1434827 0 0.9930754 -0.1174786 0 0.9930754 -0.1174786 0 0.9930754 -0.1174786 0 0.9930754 -0.1174786 0 -0.8012611 0.5983149 0 -0.8012611 0.5983149 0 -0.8012611 0.5983149 0 -0.8012611 0.5983149 0 -0.8724927 0.4886272 0 -0.8724927 0.4886272 0 -0.8724927 0.4886272 0 -0.8724927 0.4886272 0 -0.9288095 0.3705575 0 -0.9288095 0.3705575 0 -0.9288095 0.3705575 0 -0.9288095 0.3705575 0 -0.9692311 0.2461526 0 -0.9692311 0.2461526 0 -0.9692311 0.2461526 0 -0.9692311 0.2461526 0 0.8593967 0.5113094 0 0.8593967 0.5113094 0 0.8593967 0.5113094 0 0.8593967 0.5113094 0 -0.1175406 -0.9930681 0 -0.1175406 -0.9930681 0 -0.1175406 -0.9930681 0 -0.1175406 -0.9930681 0 -0.2461526 -0.9692311 0 -0.2461526 -0.9692311 0 -0.2461526 -0.9692311 0 -0.2461526 -0.9692311 0 -0.4886272 -0.8724927 0 -0.4886272 -0.8724927 0 -0.4886272 -0.8724927 0 -0.4886272 -0.8724927 0 -0.5983149 -0.8012611 0 -0.5983149 -0.8012611 0 -0.5983149 -0.8012611 0 -0.5983149 -0.8012611 -1 0 0 -1 0 0 -1 0 0 -1 0 0 -1 0 0 -1 0 0 -1 0 0 -1 0 0 -1 0 0 -1 0 0 -1 0 0 -1 0 0 -1 0 0 -1 0 0 -1 0 0 -1 0 0 -1 0 0 -1 0 0 -1 0 0 -1 0 0 -1 0 0 -1 0 0 -1 0 0 -1 0 0 -1 0 0 -1 0 0 -1 0 0 1 0 0 1 0 0 1 0 0 1 0 0 1 0 0 1 0 0 1 0 0 1 0 0 1 0 0 1 0 0 1 0 0 1 0 0 1 0 0 1 0 0 1 0 0 1 0 0 1 0 0 1 0 0 1 0 0 1 0 0 1 0 0 1 0 0 1 0 0 1 0 0 1 0 0 1 0 0 1 0 0 0 -0.7853129 -0.6190991 0 -0.7853129 -0.6190991 0 -0.7853129 -0.6190991 0 -0.7853129 -0.6190991 0 -0.8594094 -0.511288 0 -0.8594094 -0.511288 0 -0.8594094 -0.511288 0 -0.8594094 -0.511288 0 0.9288286 -0.3705098 0 0.9288286 -0.3705098 0 0.9288286 -0.3705098 0 0.9288286 -0.3705098 0 0.9692291 -0.2461604 0 0.9692291 -0.2461604 0 0.9692291 -0.2461604 0 0.9692291 -0.2461604 0 0.1176032 0.9930607 0 0.1176032 0.9930607 0 0.1176032 0.9930607 0 0.1176032 0.9930607 0 0.2461604 0.9692291 0 0.2461604 0.9692291 0 0.2461604 0.9692291 0 0.2461604 0.9692291 0 -0.6191334 0.7852858 0 -0.6191334 0.7852858 0 -0.6191334 0.7852858 0 -0.6191334 0.7852858 0 -0.5112124 0.8594544 0 -0.5112124 0.8594544 0 -0.5112124 0.8594544 0 -0.5112124 0.8594544 0 0.9999155 0.01299646 0 0.9999155 0.01299646 0 0.9999155 0.01299646 0 0.9999155 0.01299646 0 0.5983687 0.8012209 0 0.5983687 0.8012209 0 0.5983687 0.8012209 0 0.5983687 0.8012209 0 0.9187957 0.3947334 0 0.9187957 0.3947334 0 0.9187957 0.3947334 0 0.9187957 0.3947334 0 0.9624615 0.2714183 0 0.9624615 0.2714183 0 0.9624615 0.2714183 0 0.9624615 0.2714183 0 0.9896359 0.1435992 0 0.9896359 0.1435992 0 0.9896359 0.1435992 0 0.9896359 0.1435992 0 -0.1434754 0.9896539 0 -0.1434754 0.9896539 0 -0.1434754 0.9896539 0 -0.1434754 0.9896539 0 -0.0131228 0.9999139 0 -0.0131228 0.9999139 0 -0.0131228 0.9999139 0 -0.0131228 0.9999139 0 0.6977448 0.7163464 0 0.6977448 0.7163464 0 0.6977448 0.7163464 0 0.6977448 0.7163464 0 0.7853361 0.6190696 0 0.7853361 0.6190696 0 0.7853361 0.6190696 0 0.7853361 0.6190696 0 0.4886146 0.8724997 0 0.4886146 0.8724997 0 0.4886146 0.8724997 0 0.4886146 0.8724997 0 0.3705575 0.9288095 0 0.3705575 0.9288095 0 0.3705575 0.9288095 0 0.3705575 0.9288095 0 -0.2715055 0.9624369 0 -0.2715055 0.9624369 0 -0.2715055 0.9624369 0 -0.2715055 0.9624369 0 -0.3947334 0.9187957 0 -0.3947334 0.9187957 0 -0.3947334 0.9187957 0 -0.3947334 0.9187957</float_array>
          <technique_common>
            <accessor count="560" source="#normals-array-array" stride="3">
              <param type="float" name="X"/>
              <param type="float" name="Y"/>
              <param type="float" name="Z"/>
            </accessor>
          </technique_common>
        </source>
        <vertices id="verts-array-vertices">
          <input semantic="POSITION" source="#verts-array"/>
        </vertices>
        <triangles count="296" material="material0">
          <input offset="0" semantic="VERTEX" source="#verts-array-vertices"/>
          <input offset="1" semantic="NORMAL" source="#normals-array"/>
          <p>0 0 1 1 2 2 3 3 4 4 5 5 6 6 7 7 8 8 9 9 10 10 11 11 12 12 13 13 14 14 15 15 5 5 16 16 17 17 18 18 19 19 20 20 21 21 22 22 23 23 24 24 25 25 26 26 27 27 28 28 29 29 30 30 31 31 32 32 33 33 34 34 35 35 36 36 37 37 38 38 39 39 40 40 41 41 42 42 43 43 44 44 45 45 46 46 47 47 48 48 49 49 50 50 51 51 52 52 53 53 54 54 55 55 56 56 57 57 58 58 59 59 60 60 61 61 62 62 63 63 64 64 65 65 66 66 67 67 68 68 69 69 70 70 71 71 72 72 73 73 74 74 75 75 76 76 77 77 78 78 79 79 80 80 81 81 82 82 83 83 56 56 58 58 56 56 83 83 12 12 84 84 85 85 86 86 84 84 38 38 85 85 87 87 88 88 89 89 89 89 88 88 90 90 91 91 92 92 93 93 94 94 95 95 96 96 97 97 98 98 99 99 100 100 101 101 102 102 56 56 103 103 57 57 104 104 105 105 103 103 16 16 106 106 15 15 59 59 3 3 107 107 59 59 107 107 60 60 60 60 107 107 15 15 3 3 5 5 107 107 15 15 107 107 5 5 108 108 109 109 110 110 111 111 112 112 113 113 114 114 115 115 116 116 117 117 118 118 119 119 120 120 121 121 122 122 123 123 124 124 125 125 126 126 127 127 128 128 129 129 130 130 131 131 132 132 133 133 134 134 135 135 136 136 137 137 138 138 139 139 84 84 84 84 139 139 38 38 39 39 139 139 138 138 38 38 139 139 39 39 140 140 141 141 142 142 143 143 144 144 145 145 146 146 147 147 148 148 149 149 150 150 151 151 152 152 153 153 154 154 155 155 156 156 157 157 158 158 159 159 160 160 161 161 162 162 163 163 164 164 165 165 166 166 167 167 168 168 169 169 170 170 171 171 172 172 173 173 174 174 175 175 176 176 177 177 178 178 179 179 180 180 181 181 182 182 183 183 184 184 185 185 186 186 187 187 188 188 189 189 190 190 191 191 192 192 193 193 194 194 195 195 196 196 153 153 197 197 154 154 198 198 199 199 200 200 201 201 202 202 203 203 204 204 205 205 206 206 101 101 207 207 102 102 104 104 208 208 14 14 103 103 208 208 104 104 208 208 103 103 56 56 12 12 14 14 208 208 56 56 12 12 208 208 60 60 15 15 209 209 106 106 209 209 15 15 210 210 211 211 212 212 213 213 214 214 215 215 216 216 217 217 218 218 219 219 220 220 221 221 222 222 223 223 224 224 225 225 226 226 227 227 228 228 229 229 230 230 231 231 232 232 233 233 234 234 235 235 236 236 237 237 238 238 239 239 240 240 241 241 242 242 243 243 244 244 245 245 246 246 247 247 248 248 249 249 250 250 251 251 252 252 253 253 254 254 255 255 256 256 257 257 258 258 259 259 260 260 261 261 262 262 263 263 264 264 265 265 266 266 267 267 268 268 269 269 270 270 271 271 272 272 273 273 274 274 275 275 276 276 277 277 278 278 279 279 280 280 281 281 136 136 135 135 282 282 55 55 283 283 53 53 284 284 285 285 286 286 282 282 287 287 140 140 288 288 289 289 290 290 291 291 292 292 293 293 294 294 295 295 296 296 297 297 298 298 299 299 300 300 301 301 302 302 303 303 304 304 305 305 306 306 307 307 308 308 309 309 310 310 311 311 138 138 312 312 39 39 136 136 313 313 142 142 282 282 313 313 136 136 142 142 313 313 140 140 313 313 282 282 140 140 314 314 315 315 316 316 316 316 315 315 317 317 318 318 319 319 320 320 318 318 321 321 319 319 322 322 323 323 324 324 325 325 323 323 322 322 326 326 327 327 328 328 326 326 329 329 327 327 330 330 331 331 332 332 330 330 333 333 331 331 334 334 335 335 336 336 337 337 335 335 334 334 338 338 339 339 340 340 341 341 339 339 338 338 342 342 343 343 344 344 344 344 343 343 345 345 346 346 347 347 348 348 349 349 346 346 348 348 350 350 351 351 352 352 353 353 350 350 352 352 354 354 355 355 356 356 357 357 355 355 354 354 358 358 359 359 360 360 359 359 361 361 360 360 362 362 363 363 364 364 363 363 365 365 364 364 366 366 367 367 368 368 369 369 367 367 366 366 370 370 371 371 372 372 373 373 371 371 370 370 374 374 375 375 376 376 377 377 375 375 374 374 378 378 379 379 380 380 378 378 380 380 381 381 382 382 383 383 384 384 385 385 384 384 383 383 386 386 387 387 388 388 389 389 387 387 386 386 390 390 391 391 392 392 391 391 393 393 392 392 394 394 395 395 396 396 397 397 395 395 394 394 398 398 399 399 400 400 399 399 401 401 400 400 12 12 83 83 5 5 16 16 5 5 83 83 402 402 403 403 404 404 404 404 403 403 405 405 105 105 61 61 103 103 60 60 103 103 61 61 406 406 407 407 408 408 406 406 409 409 407 407 410 410 411 411 412 412 412 412 413 413 410 410 414 414 415 415 416 416 416 416 415 415 417 417 418 418 419 419 420 420 419 419 421 421 420 420 422 422 423 423 424 424 425 425 423 423 426 426 423 423 427 427 426 426 423 423 428 428 429 429 430 430 423 423 431 431 432 432 423 423 433 433 427 427 423 423 434 434 429 429 435 435 423 423 423 423 436 436 437 437 424 424 423 423 438 438 423 423 437 437 434 434 423 423 425 425 439 439 428 428 423 423 439 439 423 423 440 440 441 441 423 423 422 422 442 442 436 436 423 423 442 442 438 438 423 423 432 432 443 443 431 431 423 423 444 444 423 423 445 445 446 446 445 445 423 423 433 433 423 423 447 447 444 444 448 448 423 423 446 446 423 423 441 441 430 430 447 447 423 423 443 443 423 423 448 448 449 449 450 450 451 451 452 452 453 453 451 451 453 453 454 454 451 451 455 455 451 451 456 456 457 457 458 458 451 451 459 459 460 460 451 451 461 461 456 456 451 451 452 452 451 451 462 462 463 463 457 457 451 451 464 464 451 451 450 450 455 455 465 465 451 451 449 449 451 451 454 454 466 466 451 451 467 467 461 461 451 451 458 458 468 468 459 459 451 451 464 464 469 469 451 451 470 470 451 451 460 460 471 471 451 451 466 466 472 472 451 451 473 473 451 451 474 474 463 463 473 473 451 451 475 475 468 468 451 451 465 465 474 474 451 451 469 469 471 471 462 462 451 451 472 472 467 467 451 451 476 476 477 477 478 478 479 479 478 478 477 477 480 480 481 481 482 482 483 483 482 482 481 481 83 83 106 106 16 16 106 106 83 83 58 58 484 484 485 485 486 486 487 487 485 485 484 484 488 488 489 489 490 490 491 491 489 489 488 488 492 492 493 493 494 494 493 493 495 495 494 494 496 496 497 497 498 498 499 499 498 498 497 497 500 500 501 501 502 502 503 503 500 500 502 502 504 504 505 505 506 506 506 506 505 505 507 507 137 137 136 136 86 86 86 86 136 136 84 84 138 138 136 136 142 142 84 84 136 136 138 138 508 508 509 509 510 510 511 511 509 509 508 508 512 512 513 513 514 514 513 513 515 515 514 514 516 516 517 517 518 518 519 519 518 518 517 517 60 60 209 209 103 103 103 103 209 209 57 57 209 209 106 106 58 58 57 57 209 209 58 58 520 520 521 521 522 522 521 521 520 520 523 523 524 524 525 525 526 526 525 525 524 524 527 527 528 528 529 529 530 530 528 528 531 531 529 529 532 532 533 533 534 534 534 534 533 533 535 535 536 536 537 537 538 538 539 539 537 537 536 536 540 540 541 541 542 542 543 543 540 540 542 542 544 544 545 545 546 546 547 547 545 545 544 544 548 548 549 549 550 550 551 551 550 550 549 549 552 552 553 553 554 554 555 555 554 554 553 553 556 556 557 557 558 558 559 559 558 558 557 557 39 39 312 312 140 140 140 140 312 312 141 141 138 138 142 142 312 312 141 141 312 312 142 142</p>
        </triangles>
      </mesh>
    </geometry>
  </library_geometries>
  <library_materials>
    <material id="2581e93d08fb4383a9bb7763a9a5005e" name="defaultmaterial">
      <instance_effect url="#9f5b7302d0ac40bb93270284ed5dceff"/>
    </material>
  </library_materials>
  <library_visual_scenes>
    <visual_scene id="scene">
      <node id="node0" name="node0">
        <instance_geometry url="#c669c005d9c34dbe9bb3148ffbccf414">
          <bind_material>
            <technique_common>
              <instance_material symbol="material0" target="#2581e93d08fb4383a9bb7763a9a5005e"/>
            </technique_common>
          </bind_material>
        </instance_geometry>
      </node>
    </visual_scene>
  </library_visual_scenes>
  <scene>
    <instance_visual_scene url="#scene"/>
  </scene>
</COLLADA>
